SplineFontDB: 3.2
FontName: Montserrat-Bold
FullName: Montserrat Bold
FamilyName: Montserrat
Weight: Bold
Copyright: Copyright 2011 The Montserrat Project Authors (https://github.com/JulietaUla/Montserrat)
Version: 9.000
ItalicAngle: 0
UnderlinePosition: -125
UnderlineWidth: 50
Ascent: 800
Descent: 200
InvalidEm: 0
sfntRevision: 0x00090000
LayerCount: 2
Layer: 0 1 "Back" 1
Layer: 1 1 "Fore" 0
XUID: [1021 598 623987363 5671843]
StyleMap: 0x0020
FSType: 0
OS2Version: 4
OS2_WeightWidthSlopeOnly: 0
OS2_UseTypoMetrics: 1
CreationTime: 1624264748
ModificationTime: 1773235487
PfmFamily: 81
TTFWeight: 700
TTFWidth: 5
LineGap: 0
VLineGap: 0
Panose: 0 0 0 0 0 0 0 0 0 0
OS2TypoAscent: 968
OS2TypoAOffset: 0
OS2TypoDescent: -251
OS2TypoDOffset: 0
OS2TypoLinegap: 0
OS2WinAscent: 1109
OS2WinAOffset: 0
OS2WinDescent: 453
OS2WinDOffset: 0
HheadAscent: 968
HheadAOffset: 0
HheadDescent: -251
HheadDOffset: 0
OS2SubXSize: 650
OS2SubYSize: 600
OS2SubXOff: 0
OS2SubYOff: 75
OS2SupXSize: 650
OS2SupYSize: 600
OS2SupXOff: 0
OS2SupYOff: 350
OS2StrikeYSize: 50
OS2StrikeYPos: 323
OS2CapHeight: 700
OS2XHeight: 538
OS2Vendor: 'ULA '
OS2CodePages: 20000197.00000000
OS2UnicodeRanges: a00002ff.4000247b.00000000.00000000
Lookup: 1 0 0 "'rvrn' Required Variation Alternates lookup 0" { "'rvrn' Required Variation Alternates lookup 0 subtable"  } ['rvrn' ('DFLT' <'NAV ' 'dflt' > 'cyrl' <'BGR ' 'BSH ' 'CHU ' 'MKD ' 'SRB ' 'dflt' > 'latn' <'AZE ' 'CAT ' 'CRT ' 'KAZ ' 'MOL ' 'NAV ' 'NLD ' 'NSM ' 'ROM ' 'TAT ' 'TOD0' 'TRK ' 'VIT ' 'XPE ' 'dflt' > ) ]
Lookup: 1 0 0 "'rvrn' Required Variation Alternates lookup 1" { "'rvrn' Required Variation Alternates lookup 1 subtable"  } ['rvrn' ('DFLT' <'NAV ' 'dflt' > 'cyrl' <'BGR ' 'BSH ' 'CHU ' 'MKD ' 'SRB ' 'dflt' > 'latn' <'AZE ' 'CAT ' 'CRT ' 'KAZ ' 'MOL ' 'NAV ' 'NLD ' 'NSM ' 'ROM ' 'TAT ' 'TOD0' 'TRK ' 'VIT ' 'XPE ' 'dflt' > ) ]

StartChar: .notdef
Encoding: 65536 -1 0
Width: 607
GlyphClass: 1
Flags: W
LayerCount: 2
Fore
SplineSet
50 0 m 1,0,-1
 50 700 l 1,1,-1
 557 700 l 1,2,-1
 557 0 l 1,3,-1
 50 0 l 1,0,-1
130 70 m 1,4,-1
 477 70 l 1,5,-1
 477 630 l 1,6,-1
 130 630 l 1,7,-1
 130 70 l 1,4,-1
EndSplineSet
EndChar

StartChar: A
Encoding: 65 65 1
Width: 786
GlyphClass: 2
Flags: W
AnchorPoint: "Anchor-3" 393 700 basechar 0
AnchorPoint: "Anchor-2" 786 0 basechar 0
AnchorPoint: "Anchor-0" 393 0 basechar 0
LayerCount: 2
Fore
SplineSet
1 0 m 1,0,-1
 313 700 l 1,1,-1
 473 700 l 1,2,-1
 786 0 l 1,3,-1
 616 0 l 1,4,-1
 360 618 l 1,5,-1
 424 618 l 1,6,-1
 167 0 l 1,7,-1
 1 0 l 1,0,-1
157 150 m 1,8,-1
 200 273 l 1,9,-1
 560 273 l 1,10,-1
 604 150 l 1,11,-1
 157 150 l 1,8,-1
EndSplineSet
Substitution2: "'ss01' Style Set 1 lookup 52 subtable" A.ss01
Substitution2: "'c2sc' Capitals to Small Capitals lookup 47 subtable" a.sc
Substitution2: "Single Substitution lookup 41 subtable" ordfeminine
AlternateSubs2: "'aalt' Access All Alternates lookup 3 subtable" ordfeminine a.sc A.ss01
EndChar

StartChar: uni2C6D
Encoding: 11373 11373 25
Width: 904
GlyphClass: 2
Flags: W
AnchorPoint: "Anchor-3" 438 700 basechar 0
AnchorPoint: "Anchor-2" 811 0 basechar 0
AnchorPoint: "Anchor-0" 438 0 basechar 0
LayerCount: 2
Fore
SplineSet
409 -9 m 0,0,1
 332 -9 332 -9 267 16.5 c 128,-1,2
 202 42 202 42 153 89.5 c 128,-1,3
 104 137 104 137 76.5 203.5 c 128,-1,4
 49 270 49 270 49 351 c 0,5,6
 49 433 49 433 76.5 499 c 128,-1,7
 104 565 104 565 152.5 612.5 c 128,-1,8
 201 660 201 660 266 685.5 c 128,-1,9
 331 711 331 711 407 711 c 0,10,11
 477 711 477 711 535 688.5 c 128,-1,12
 593 666 593 666 635.5 621 c 128,-1,13
 678 576 678 576 701 508 c 128,-1,14
 724 440 724 440 724 350 c 256,15,16
 724 260 724 260 701.5 193 c 128,-1,17
 679 126 679 126 637 81 c 128,-1,18
 595 36 595 36 537 13.5 c 128,-1,19
 479 -9 479 -9 409 -9 c 0,0,1
433 127 m 0,20,21
 495 127 495 127 544.5 154.5 c 128,-1,22
 594 182 594 182 622.5 232 c 128,-1,23
 651 282 651 282 651 351 c 256,24,25
 651 420 651 420 622.5 470 c 128,-1,26
 594 520 594 520 544.5 547.5 c 128,-1,27
 495 575 495 575 433 575 c 256,28,29
 371 575 371 575 321 547.5 c 128,-1,30
 271 520 271 520 242.5 469.5 c 128,-1,31
 214 419 214 419 214 351 c 256,32,33
 214 283 214 283 242.5 232.5 c 128,-1,34
 271 182 271 182 320.5 154.5 c 128,-1,35
 370 127 370 127 433 127 c 0,20,21
656 0 m 1,36,-1
 656 169 l 1,37,-1
 662 352 l 1,38,-1
 649 535 l 1,39,-1
 649 700 l 1,40,-1
 811 700 l 1,41,-1
 811 0 l 1,42,-1
 656 0 l 1,36,-1
EndSplineSet
Substitution2: "'c2sc' Capitals to Small Capitals lookup 47 subtable" uni0251.sc
Substitution2: "'aalt' Access All Alternates lookup 2 subtable" uni0251.sc
EndChar

StartChar: uni023A
Encoding: 570 570 31
Width: 774
GlyphClass: 1
Flags: W
LayerCount: 2
Fore
SplineSet
1 0 m 1,0,-1
 314 700 l 1,1,-1
 460 700 l 1,2,-1
 774 0 l 1,3,-1
 620 0 l 1,4,-1
 356 627 l 1,5,-1
 415 627 l 1,6,-1
 152 0 l 1,7,-1
 1 0 l 1,0,-1
152 158 m 1,8,-1
 191 267 l 1,9,-1
 560 267 l 1,10,-1
 599 158 l 1,11,-1
 152 158 l 1,8,-1
239 -70 m 1,12,-1
 591 770 l 1,13,-1
 690 770 l 1,14,-1
 339 -70 l 1,15,-1
 239 -70 l 1,12,-1
EndSplineSet
Substitution2: "'ss01' Style Set 1 lookup 52 subtable" uni023A.ss01
Substitution2: "'c2sc' Capitals to Small Capitals lookup 47 subtable" uni2C65.sc
AlternateSubs2: "'aalt' Access All Alternates lookup 3 subtable" uni2C65.sc uni023A.ss01
Substitution2: "'rvrn' Required Variation Alternates lookup 0 subtable" uni023A.BRACKET.varAlt01
EndChar

StartChar: uni2C6F
Encoding: 11375 11375 33
Width: 786
GlyphClass: 2
Flags: W
AnchorPoint: "Anchor-3" 393 700 basechar 0
AnchorPoint: "Anchor-2" 1 700 basechar 0
AnchorPoint: "Anchor-0" 393 0 basechar 0
LayerCount: 2
Fore
SplineSet
786 700 m 1,0,-1
 473 0 l 1,1,-1
 313 0 l 1,2,-1
 1 700 l 1,3,-1
 170 700 l 1,4,-1
 427 82 l 1,5,-1
 362 82 l 1,6,-1
 619 700 l 1,7,-1
 786 700 l 1,0,-1
629 550 m 1,8,-1
 586 427 l 1,9,-1
 226 427 l 1,10,-1
 183 550 l 1,11,-1
 629 550 l 1,8,-1
EndSplineSet
Substitution2: "'ss01' Style Set 1 lookup 52 subtable" uni2C6F.ss01
Substitution2: "'c2sc' Capitals to Small Capitals lookup 47 subtable" uni0250.sc
AlternateSubs2: "'aalt' Access All Alternates lookup 3 subtable" uni0250.sc uni2C6F.ss01
EndChar

StartChar: AE
Encoding: 198 198 34
Width: 1100
GlyphClass: 2
Flags: W
AnchorPoint: "Anchor-3" 658 700 basechar 0
AnchorPoint: "Anchor-2" 1044 0 basechar 0
AnchorPoint: "Anchor-0" 582 0 basechar 0
LayerCount: 2
Fore
SplineSet
1 0 m 1,0,-1
 396 700 l 1,1,-1
 557 700 l 1,2,-1
 557 570 l 1,3,-1
 418 570 l 1,4,-1
 516 638 l 1,5,-1
 167 0 l 1,6,-1
 1 0 l 1,0,-1
207 150 m 1,7,-1
 210 273 l 1,8,-1
 557 273 l 1,9,-1
 557 150 l 1,10,-1
 207 150 l 1,7,-1
502 0 m 1,11,-1
 502 700 l 1,12,-1
 1031 700 l 1,13,-1
 1031 570 l 1,14,-1
 663 570 l 1,15,-1
 663 130 l 1,16,-1
 1044 130 l 1,17,-1
 1044 0 l 1,18,-1
 502 0 l 1,11,-1
651 292 m 1,19,-1
 651 418 l 1,20,-1
 989 418 l 1,21,-1
 989 292 l 1,22,-1
 651 292 l 1,19,-1
EndSplineSet
Substitution2: "'ss01' Style Set 1 lookup 52 subtable" AE.ss01
Substitution2: "'c2sc' Capitals to Small Capitals lookup 47 subtable" ae.sc
AlternateSubs2: "'aalt' Access All Alternates lookup 3 subtable" ae.sc AE.ss01
EndChar

StartChar: B
Encoding: 66 66 37
Width: 785
GlyphClass: 2
Flags: W
AnchorPoint: "Anchor-3" 390 700 basechar 0
AnchorPoint: "Anchor-0" 390 0 basechar 0
LayerCount: 2
Fore
SplineSet
93 0 m 1,0,-1
 93 700 l 1,1,-1
 435 700 l 2,2,3
 567 700 567 700 633.5 650 c 128,-1,4
 700 600 700 600 700 518 c 0,5,6
 700 463 700 463 673 422.5 c 128,-1,7
 646 382 646 382 599 360 c 128,-1,8
 552 338 552 338 491 338 c 1,9,-1
 510 379 l 1,10,11
 576 379 576 379 627 357.5 c 128,-1,12
 678 336 678 336 706.5 294 c 128,-1,13
 735 252 735 252 735 191 c 0,14,15
 735 101 735 101 664 50.5 c 128,-1,16
 593 0 593 0 455 0 c 2,17,-1
 93 0 l 1,0,-1
254 122 m 1,18,-1
 443 122 l 2,19,20
 506 122 506 122 538.5 142.5 c 128,-1,21
 571 163 571 163 571 208 c 0,22,23
 571 252 571 252 538.5 273.5 c 128,-1,24
 506 295 506 295 443 295 c 2,25,-1
 242 295 l 1,26,-1
 242 413 l 1,27,-1
 415 413 l 2,28,29
 474 413 474 413 505.5 433.5 c 128,-1,30
 537 454 537 454 537 496 c 0,31,32
 537 537 537 537 505.5 557.5 c 128,-1,33
 474 578 474 578 415 578 c 2,34,-1
 254 578 l 1,35,-1
 254 122 l 1,18,-1
EndSplineSet
Substitution2: "'c2sc' Capitals to Small Capitals lookup 47 subtable" b.sc
Substitution2: "'aalt' Access All Alternates lookup 2 subtable" b.sc
EndChar

StartChar: uniA7B4
Encoding: 42932 42932 40
Width: 785
GlyphClass: 2
Flags: W
AnchorPoint: "Anchor-3" 390 700 basechar 0
AnchorPoint: "Anchor-0" 390 0 basechar 0
LayerCount: 2
Fore
SplineSet
93 -194 m 1,0,-1
 93 700 l 1,1,-1
 435 700 l 2,2,3
 567 700 567 700 633.5 650 c 128,-1,4
 700 600 700 600 700 518 c 0,5,6
 700 463 700 463 673 422.5 c 128,-1,7
 646 382 646 382 599 360 c 128,-1,8
 552 338 552 338 491 338 c 1,9,-1
 510 379 l 1,10,11
 576 379 576 379 627 357.5 c 128,-1,12
 678 336 678 336 706.5 294 c 128,-1,13
 735 252 735 252 735 191 c 0,14,15
 735 101 735 101 664 50.5 c 128,-1,16
 593 0 593 0 455 0 c 2,17,-1
 243 0 l 1,18,-1
 243 122 l 1,19,-1
 443 122 l 2,20,21
 506 122 506 122 538.5 142.5 c 128,-1,22
 571 163 571 163 571 208 c 0,23,24
 571 252 571 252 538.5 273.5 c 128,-1,25
 506 295 506 295 443 295 c 2,26,-1
 243 295 l 1,27,-1
 243 413 l 1,28,-1
 415 413 l 2,29,30
 474 413 474 413 505.5 433.5 c 128,-1,31
 537 454 537 454 537 496 c 0,32,33
 537 537 537 537 505.5 557.5 c 128,-1,34
 474 578 474 578 415 578 c 2,35,-1
 254 578 l 1,36,-1
 254 -194 l 1,37,-1
 93 -194 l 1,0,-1
EndSplineSet
Substitution2: "'c2sc' Capitals to Small Capitals lookup 47 subtable" uniA7B5.sc
Substitution2: "'aalt' Access All Alternates lookup 2 subtable" uniA7B5.sc
EndChar

StartChar: uni0181
Encoding: 385 385 41
Width: 984
GlyphClass: 2
Flags: W
AnchorPoint: "Anchor-3" 589 700 basechar 0
AnchorPoint: "Anchor-0" 589 0 basechar 0
LayerCount: 2
Fore
SplineSet
97 350 m 1,0,1
 63 388 63 388 46.5 435 c 128,-1,2
 30 482 30 482 33.5 528.5 c 128,-1,3
 37 575 37 575 61 614 c 128,-1,4
 85 653 85 653 131.5 676.5 c 128,-1,5
 178 700 178 700 247 700 c 2,6,-1
 300 700 l 1,7,-1
 300 568 l 1,8,-1
 246 568 l 2,9,10
 218 568 218 568 202 554 c 128,-1,11
 186 540 186 540 182 518 c 128,-1,12
 178 496 178 496 186 470 c 128,-1,13
 194 444 194 444 214 418 c 1,14,-1
 97 350 l 1,0,1
292 0 m 1,15,-1
 292 700 l 1,16,-1
 634 700 l 2,17,18
 766 700 766 700 833 650 c 128,-1,19
 900 600 900 600 900 518 c 0,20,21
 900 463 900 463 872.5 422.5 c 128,-1,22
 845 382 845 382 798 360 c 128,-1,23
 751 338 751 338 690 338 c 1,24,-1
 709 379 l 1,25,26
 775 379 775 379 826 357.5 c 128,-1,27
 877 336 877 336 905.5 294 c 128,-1,28
 934 252 934 252 934 191 c 0,29,30
 934 101 934 101 863 50.5 c 128,-1,31
 792 0 792 0 654 0 c 2,32,-1
 292 0 l 1,15,-1
453 122 m 1,33,-1
 643 122 l 2,34,35
 705 122 705 122 738 142.5 c 128,-1,36
 771 163 771 163 771 208 c 0,37,38
 771 252 771 252 738 273.5 c 128,-1,39
 705 295 705 295 643 295 c 2,40,-1
 441 295 l 1,41,-1
 441 413 l 1,42,-1
 614 413 l 2,43,44
 674 413 674 413 705 433.5 c 128,-1,45
 736 454 736 454 736 496 c 0,46,47
 736 537 736 537 705 557.5 c 128,-1,48
 674 578 674 578 614 578 c 2,49,-1
 453 578 l 1,50,-1
 453 122 l 1,33,-1
EndSplineSet
Substitution2: "'c2sc' Capitals to Small Capitals lookup 47 subtable" uni0253.sc
Substitution2: "'locl' Localized Forms in Latin lookup 21 subtable" uni0181.loclXPE
AlternateSubs2: "'aalt' Access All Alternates lookup 3 subtable" uni0181.loclXPE uni0253.sc
EndChar

StartChar: uni0243
Encoding: 579 579 43
Width: 804
GlyphClass: 2
Flags: W
AnchorPoint: "Anchor-3" 409 700 basechar 0
AnchorPoint: "Anchor-0" 409 0 basechar 0
LayerCount: 2
Fore
SplineSet
112 0 m 1,0,-1
 112 700 l 1,1,-1
 454 700 l 2,2,3
 586 700 586 700 653 650 c 128,-1,4
 720 600 720 600 720 518 c 0,5,6
 720 463 720 463 693 423 c 128,-1,7
 666 383 666 383 618.5 362 c 128,-1,8
 571 341 571 341 510 342 c 1,9,-1
 529 382 l 1,10,11
 595 382 595 382 646 359.5 c 128,-1,12
 697 337 697 337 725.5 295 c 128,-1,13
 754 253 754 253 754 193 c 0,14,15
 754 103 754 103 683.5 51.5 c 128,-1,16
 613 0 613 0 474 0 c 2,17,-1
 112 0 l 1,0,-1
24 162 m 1,18,-1
 24 262 l 1,19,-1
 172 262 l 1,20,-1
 204 256 l 1,21,-1
 401 256 l 1,22,-1
 401 168 l 1,23,-1
 204 168 l 1,24,-1
 172 162 l 1,25,-1
 24 162 l 1,18,-1
273 120 m 1,26,-1
 463 120 l 2,27,28
 525 120 525 120 558 142.5 c 128,-1,29
 591 165 591 165 591 210 c 0,30,31
 591 257 591 257 558 280.5 c 128,-1,32
 525 304 525 304 463 304 c 2,33,-1
 261 304 l 1,34,-1
 261 415 l 1,35,-1
 434 415 l 2,36,37
 494 415 494 415 525 434.5 c 128,-1,38
 556 454 556 454 556 496 c 0,39,40
 556 537 556 537 525 557.5 c 128,-1,41
 494 578 494 578 434 578 c 2,42,-1
 273 578 l 1,43,-1
 273 120 l 1,26,-1
EndSplineSet
Substitution2: "'c2sc' Capitals to Small Capitals lookup 47 subtable" uni0180.sc
Substitution2: "'aalt' Access All Alternates lookup 2 subtable" uni0180.sc
EndChar

StartChar: uni0182
Encoding: 386 386 44
Width: 785
GlyphClass: 2
Flags: W
AnchorPoint: "Anchor-3" 390 700 basechar 0
AnchorPoint: "Anchor-0" 390 0 basechar 0
LayerCount: 2
Fore
SplineSet
93 0 m 1,0,-1
 93 700 l 1,1,-1
 671 700 l 1,2,-1
 671 578 l 1,3,-1
 254 578 l 1,4,-1
 254 122 l 1,5,-1
 443 122 l 2,6,7
 506 122 506 122 538.5 143 c 128,-1,8
 571 164 571 164 571 210 c 0,9,10
 571 255 571 255 538.5 276.5 c 128,-1,11
 506 298 506 298 443 298 c 2,12,-1
 242 298 l 1,13,-1
 242 416 l 1,14,-1
 472 416 l 2,15,16
 597 416 597 416 666 366 c 128,-1,17
 735 316 735 316 735 210 c 0,18,19
 735 105 735 105 664 52.5 c 128,-1,20
 593 0 593 0 455 0 c 2,21,-1
 93 0 l 1,0,-1
EndSplineSet
Substitution2: "'c2sc' Capitals to Small Capitals lookup 47 subtable" uni0183.sc
Substitution2: "'aalt' Access All Alternates lookup 2 subtable" uni0183.sc
EndChar

StartChar: C
Encoding: 67 67 45
Width: 744
GlyphClass: 2
Flags: W
AnchorPoint: "Anchor-3" 423 700 basechar 0
AnchorPoint: "Anchor-1" 177 357 basechar 0
AnchorPoint: "Anchor-0" 423 0 basechar 0
LayerCount: 2
Fore
SplineSet
428 -12 m 0,0,1
 347 -12 347 -12 277.5 14.5 c 128,-1,2
 208 41 208 41 157 90 c 128,-1,3
 106 139 106 139 77.5 205 c 128,-1,4
 49 271 49 271 49 350 c 256,5,6
 49 429 49 429 77.5 495 c 128,-1,7
 106 561 106 561 157.5 610 c 128,-1,8
 209 659 209 659 278 685.5 c 128,-1,9
 347 712 347 712 429 712 c 0,10,11
 520 712 520 712 593.5 680.5 c 128,-1,12
 667 649 667 649 717 588 c 1,13,-1
 613 492 l 1,14,15
 577 533 577 533 533 553.5 c 128,-1,16
 489 574 489 574 437 574 c 0,17,18
 388 574 388 574 347 558 c 128,-1,19
 306 542 306 542 276 512 c 128,-1,20
 246 482 246 482 229.5 441 c 128,-1,21
 213 400 213 400 213 350 c 256,22,23
 213 300 213 300 229.5 259 c 128,-1,24
 246 218 246 218 276 188 c 128,-1,25
 306 158 306 158 347 142 c 128,-1,26
 388 126 388 126 437 126 c 0,27,28
 489 126 489 126 533 146.5 c 128,-1,29
 577 167 577 167 613 209 c 1,30,-1
 717 113 l 1,31,32
 667 52 667 52 593.5 20 c 128,-1,33
 520 -12 520 -12 428 -12 c 0,0,1
EndSplineSet
Substitution2: "'c2sc' Capitals to Small Capitals lookup 47 subtable" c.sc
Substitution2: "'aalt' Access All Alternates lookup 2 subtable" c.sc
EndChar

StartChar: uniA792
Encoding: 42898 42898 47
Width: 804
GlyphClass: 2
Flags: W
AnchorPoint: "Anchor-3" 484 700 basechar 0
AnchorPoint: "Anchor-1" 238 357 basechar 0
AnchorPoint: "Anchor-0" 484 0 basechar 0
LayerCount: 2
Fore
SplineSet
489 -12 m 0,0,1
 407 -12 407 -12 337.5 14.5 c 128,-1,2
 268 41 268 41 217 90 c 128,-1,3
 166 139 166 139 138 205 c 128,-1,4
 110 271 110 271 110 350 c 256,5,6
 110 429 110 429 138 495 c 128,-1,7
 166 561 166 561 217.5 610 c 128,-1,8
 269 659 269 659 338.5 685.5 c 128,-1,9
 408 712 408 712 489 712 c 0,10,11
 580 712 580 712 654 680.5 c 128,-1,12
 728 649 728 649 778 588 c 1,13,-1
 674 492 l 1,14,15
 638 533 638 533 594 553.5 c 128,-1,16
 550 574 550 574 497 574 c 0,17,18
 448 574 448 574 407 558 c 128,-1,19
 366 542 366 542 336.5 512 c 128,-1,20
 307 482 307 482 290 441 c 128,-1,21
 273 400 273 400 273 350 c 256,22,23
 273 300 273 300 290 259 c 128,-1,24
 307 218 307 218 336.5 188 c 128,-1,25
 366 158 366 158 407 142 c 128,-1,26
 448 126 448 126 497 126 c 0,27,28
 550 126 550 126 594 146.5 c 128,-1,29
 638 167 638 167 674 209 c 1,30,-1
 778 113 l 1,31,32
 728 52 728 52 654 20 c 128,-1,33
 580 -12 580 -12 489 -12 c 0,0,1
21 303 m 1,34,-1
 21 412 l 1,35,-1
 426 412 l 1,36,-1
 426 303 l 1,37,-1
 21 303 l 1,34,-1
EndSplineSet
Substitution2: "'c2sc' Capitals to Small Capitals lookup 47 subtable" uniA793.sc
Substitution2: "'aalt' Access All Alternates lookup 2 subtable" uniA793.sc
EndChar

StartChar: uniA7B3
Encoding: 42931 42931 53
Width: 638
GlyphClass: 1
Flags: W
LayerCount: 2
Fore
SplineSet
746 -122 m 1,0,1
 714 -161 714 -161 669 -183.5 c 128,-1,2
 624 -206 624 -206 576 -206 c 128,-1,3
 528 -206 528 -206 484.5 -179 c 128,-1,4
 441 -152 441 -152 414 -93 c 2,5,-1
 290 167 l 1,6,-1
 239 240 l 1,7,-1
 89 527 l 2,8,9
 76 552 76 552 57.5 562.5 c 128,-1,10
 39 573 39 573 19 566.5 c 128,-1,11
 -1 560 -1 560 -21 535 c 1,12,-1
 -108 628 l 1,13,14
 -75 666 -75 666 -30.5 688.5 c 128,-1,15
 14 711 14 711 61.5 711 c 128,-1,16
 109 711 109 711 152 683 c 128,-1,17
 195 655 195 655 225 593 c 2,18,-1
 333 371 l 1,19,-1
 379 301 l 1,20,-1
 547 -21 l 2,21,22
 560 -46 560 -46 579 -57 c 128,-1,23
 598 -68 598 -68 619 -61 c 128,-1,24
 640 -54 640 -54 659 -29 c 1,25,-1
 746 -122 l 1,0,1
-42 -194 m 1,26,-1
 254 329 l 1,27,-1
 286 324 l 1,28,-1
 482 700 l 1,29,-1
 659 700 l 1,30,-1
 376 217 l 1,31,-1
 346 216 l 1,32,-1
 136 -194 l 1,33,-1
 -42 -194 l 1,26,-1
EndSplineSet
Substitution2: "'c2sc' Capitals to Small Capitals lookup 47 subtable" uniAB53.sc
Substitution2: "'aalt' Access All Alternates lookup 2 subtable" uniAB53.sc
EndChar

StartChar: uni0187
Encoding: 391 391 54
Width: 782
GlyphClass: 2
Flags: W
AnchorPoint: "Anchor-3" 428 700 basechar 0
AnchorPoint: "Anchor-0" 428 0 basechar 0
LayerCount: 2
Fore
SplineSet
723 588 m 1,0,-1
 585 589 l 1,1,-1
 585 682 l 2,2,3
 585 742 585 742 609 781.5 c 128,-1,4
 633 821 633 821 672 841 c 128,-1,5
 711 861 711 861 758.5 861.5 c 128,-1,6
 806 862 806 862 852 843 c 1,7,-1
 816 731 l 1,8,9
 795 740 795 740 773 736 c 128,-1,10
 751 732 751 732 737 717 c 128,-1,11
 723 702 723 702 723 675 c 2,12,-1
 723 588 l 1,0,-1
434 -12 m 0,13,14
 352 -12 352 -12 283 14.5 c 128,-1,15
 214 41 214 41 163 90 c 128,-1,16
 112 139 112 139 83.5 205 c 128,-1,17
 55 271 55 271 55 350 c 256,18,19
 55 429 55 429 83.5 495 c 128,-1,20
 112 561 112 561 163 610 c 128,-1,21
 214 659 214 659 283.5 685.5 c 128,-1,22
 353 712 353 712 435 712 c 0,23,24
 526 712 526 712 599.5 680.5 c 128,-1,25
 673 649 673 649 723 588 c 1,26,-1
 619 492 l 1,27,28
 583 533 583 533 539 553.5 c 128,-1,29
 495 574 495 574 442 574 c 0,30,31
 393 574 393 574 352.5 558 c 128,-1,32
 312 542 312 542 282 512 c 128,-1,33
 252 482 252 482 235.5 441 c 128,-1,34
 219 400 219 400 219 350 c 256,35,36
 219 300 219 300 235.5 259 c 128,-1,37
 252 218 252 218 282 188 c 128,-1,38
 312 158 312 158 352.5 142 c 128,-1,39
 393 126 393 126 442 126 c 0,40,41
 495 126 495 126 539 146.5 c 128,-1,42
 583 167 583 167 619 209 c 1,43,-1
 723 113 l 1,44,45
 673 52 673 52 599.5 20 c 128,-1,46
 526 -12 526 -12 434 -12 c 0,13,14
EndSplineSet
Substitution2: "'c2sc' Capitals to Small Capitals lookup 47 subtable" uni0188.sc
Substitution2: "'aalt' Access All Alternates lookup 2 subtable" uni0188.sc
EndChar

StartChar: uni023B
Encoding: 571 571 55
Width: 744
GlyphClass: 2
Flags: W
AnchorPoint: "Anchor-3" 423 700 basechar 0
AnchorPoint: "Anchor-0" 423 0 basechar 0
LayerCount: 2
Fore
SplineSet
180 -70 m 1,0,-1
 568 770 l 1,1,-1
 669 770 l 1,2,-1
 282 -70 l 1,3,-1
 180 -70 l 1,0,-1
428 -12 m 0,4,5
 347 -12 347 -12 277.5 14.5 c 128,-1,6
 208 41 208 41 157 90 c 128,-1,7
 106 139 106 139 77.5 205 c 128,-1,8
 49 271 49 271 49 350 c 256,9,10
 49 429 49 429 77.5 495 c 128,-1,11
 106 561 106 561 157.5 610 c 128,-1,12
 209 659 209 659 278 685.5 c 128,-1,13
 347 712 347 712 429 712 c 0,14,15
 520 712 520 712 593.5 680.5 c 128,-1,16
 667 649 667 649 717 588 c 1,17,-1
 613 492 l 1,18,19
 577 533 577 533 533 553.5 c 128,-1,20
 489 574 489 574 437 574 c 0,21,22
 388 574 388 574 347 558 c 128,-1,23
 306 542 306 542 276 512 c 128,-1,24
 246 482 246 482 229.5 441 c 128,-1,25
 213 400 213 400 213 350 c 256,26,27
 213 300 213 300 229.5 259 c 128,-1,28
 246 218 246 218 276 188 c 128,-1,29
 306 158 306 158 347 142 c 128,-1,30
 388 126 388 126 437 126 c 0,31,32
 489 126 489 126 533 146.5 c 128,-1,33
 577 167 577 167 613 209 c 1,34,-1
 717 113 l 1,35,36
 667 52 667 52 593.5 20 c 128,-1,37
 520 -12 520 -12 428 -12 c 0,4,5
EndSplineSet
Substitution2: "'c2sc' Capitals to Small Capitals lookup 47 subtable" uni023C.sc
Substitution2: "'aalt' Access All Alternates lookup 2 subtable" uni023C.sc
EndChar

StartChar: D
Encoding: 68 68 56
Width: 846
GlyphClass: 2
Flags: W
AnchorPoint: "Anchor-3" 380 700 basechar 0
AnchorPoint: "Anchor-1" 214 357 basechar 0
AnchorPoint: "Anchor-0" 383 0 basechar 0
LayerCount: 2
Fore
SplineSet
93 0 m 1,0,-1
 93 700 l 1,1,-1
 411 700 l 2,2,3
 525 700 525 700 612 656.5 c 128,-1,4
 699 613 699 613 748 535 c 128,-1,5
 797 457 797 457 797 350 c 0,6,7
 797 244 797 244 748 165.5 c 128,-1,8
 699 87 699 87 612 43.5 c 128,-1,9
 525 0 525 0 411 0 c 2,10,-1
 93 0 l 1,0,-1
255 133 m 1,11,-1
 403 133 l 2,12,13
 473 133 473 133 524.5 159.5 c 128,-1,14
 576 186 576 186 604.5 235 c 128,-1,15
 633 284 633 284 633 350 c 0,16,17
 633 417 633 417 604.5 465.5 c 128,-1,18
 576 514 576 514 524.5 540.5 c 128,-1,19
 473 567 473 567 403 567 c 2,20,-1
 255 567 l 1,21,-1
 255 133 l 1,11,-1
EndSplineSet
Substitution2: "'c2sc' Capitals to Small Capitals lookup 47 subtable" d.sc
Substitution2: "'aalt' Access All Alternates lookup 2 subtable" d.sc
EndChar

StartChar: uni018A
Encoding: 394 394 65
Width: 1045
GlyphClass: 2
Flags: W
AnchorPoint: "Anchor-3" 579 700 basechar 0
AnchorPoint: "Anchor-1" 413 357 basechar 0
AnchorPoint: "Anchor-0" 582 0 basechar 0
LayerCount: 2
Fore
SplineSet
97 350 m 1,0,1
 63 388 63 388 46.5 435 c 128,-1,2
 30 482 30 482 33.5 528.5 c 128,-1,3
 37 575 37 575 61 614 c 128,-1,4
 85 653 85 653 131.5 676.5 c 128,-1,5
 178 700 178 700 247 700 c 2,6,-1
 300 700 l 1,7,-1
 300 568 l 1,8,-1
 246 568 l 2,9,10
 218 568 218 568 202 554 c 128,-1,11
 186 540 186 540 182 518 c 128,-1,12
 178 496 178 496 186 470 c 128,-1,13
 194 444 194 444 214 418 c 1,14,-1
 97 350 l 1,0,1
292 0 m 1,15,-1
 292 700 l 1,16,-1
 610 700 l 2,17,18
 725 700 725 700 811.5 656.5 c 128,-1,19
 898 613 898 613 947 535 c 128,-1,20
 996 457 996 457 996 350 c 0,21,22
 996 244 996 244 947 165.5 c 128,-1,23
 898 87 898 87 811.5 43.5 c 128,-1,24
 725 0 725 0 610 0 c 2,25,-1
 292 0 l 1,15,-1
454 133 m 1,26,-1
 602 133 l 2,27,28
 672 133 672 133 723.5 159.5 c 128,-1,29
 775 186 775 186 803.5 235 c 128,-1,30
 832 284 832 284 832 350 c 0,31,32
 832 417 832 417 803.5 465.5 c 128,-1,33
 775 514 775 514 723.5 540.5 c 128,-1,34
 672 567 672 567 602 567 c 2,35,-1
 454 567 l 1,36,-1
 454 133 l 1,26,-1
EndSplineSet
Substitution2: "'c2sc' Capitals to Small Capitals lookup 47 subtable" uni0257.sc
Substitution2: "'aalt' Access All Alternates lookup 2 subtable" uni0257.sc
EndChar

StartChar: uni018B
Encoding: 395 395 68
Width: 775
GlyphClass: 1
Flags: W
LayerCount: 2
Fore
SplineSet
317 0 m 2,0,1
 186 0 186 0 112 57 c 128,-1,2
 38 114 38 114 38 218 c 0,3,4
 38 317 38 317 106 372 c 128,-1,5
 174 427 174 427 305 427 c 2,6,-1
 521 427 l 1,7,-1
 521 575 l 1,8,-1
 119 575 l 1,9,-1
 119 700 l 1,10,-1
 682 700 l 1,11,-1
 682 0 l 1,12,-1
 317 0 l 2,0,1
331 122 m 2,13,-1
 521 122 l 1,14,-1
 521 309 l 1,15,-1
 331 309 l 2,16,17
 267 309 267 309 234.5 285 c 128,-1,18
 202 261 202 261 202 219 c 0,19,20
 202 176 202 176 235 149 c 128,-1,21
 268 122 268 122 331 122 c 2,13,-1
EndSplineSet
Substitution2: "'c2sc' Capitals to Small Capitals lookup 47 subtable" uni018C.sc
Substitution2: "'aalt' Access All Alternates lookup 2 subtable" uni018C.sc
EndChar

StartChar: E
Encoding: 69 69 72
Width: 691
GlyphClass: 2
Flags: W
AnchorPoint: "Anchor-3" 357 700 basechar 0
AnchorPoint: "Anchor-2" 635 0 basechar 0
AnchorPoint: "Anchor-0" 357 0 basechar 0
LayerCount: 2
Fore
SplineSet
93 0 m 1,0,-1
 93 700 l 1,1,-1
 622 700 l 1,2,-1
 622 570 l 1,3,-1
 254 570 l 1,4,-1
 254 130 l 1,5,-1
 635 130 l 1,6,-1
 635 0 l 1,7,-1
 93 0 l 1,0,-1
242 292 m 1,8,-1
 242 418 l 1,9,-1
 579 418 l 1,10,-1
 579 292 l 1,11,-1
 242 292 l 1,8,-1
EndSplineSet
Substitution2: "'ss01' Style Set 1 lookup 52 subtable" E.ss01
Substitution2: "'c2sc' Capitals to Small Capitals lookup 47 subtable" e.sc
AlternateSubs2: "'aalt' Access All Alternates lookup 3 subtable" e.sc E.ss01
EndChar

StartChar: uni0190
Encoding: 400 400 96
Width: 672
GlyphClass: 2
Flags: W
AnchorPoint: "Anchor-3" 363 700 basechar 0
AnchorPoint: "Anchor-2" 473 0 basechar 0
AnchorPoint: "Anchor-0" 363 0 basechar 0
LayerCount: 2
Fore
SplineSet
382 -12 m 0,0,1
 276 -12 276 -12 202 15 c 128,-1,2
 128 42 128 42 89.5 90 c 128,-1,3
 51 138 51 138 51 200 c 0,4,5
 51 255 51 255 78.5 294.5 c 128,-1,6
 106 334 106 334 154 355 c 128,-1,7
 202 376 202 376 262 376 c 1,8,-1
 267 341 l 1,9,10
 209 341 209 341 167 366 c 128,-1,11
 125 391 125 391 103 431 c 128,-1,12
 81 471 81 471 81 517 c 0,13,14
 81 568 81 568 106 604.5 c 128,-1,15
 131 641 131 641 173.5 665 c 128,-1,16
 216 689 216 689 270 700.5 c 128,-1,17
 324 712 324 712 383 712 c 0,18,19
 451 712 451 712 518.5 696.5 c 128,-1,20
 586 681 586 681 639 653 c 1,21,-1
 593 529 l 1,22,23
 566 544 566 544 530.5 555.5 c 128,-1,24
 495 567 495 567 456 573.5 c 128,-1,25
 417 580 417 580 381 580 c 0,26,27
 344 580 344 580 313 571.5 c 128,-1,28
 282 563 282 563 263.5 544 c 128,-1,29
 245 525 245 525 245 493 c 0,30,31
 245 458 245 458 271.5 439 c 128,-1,32
 298 420 298 420 352 420 c 2,33,-1
 522 420 l 1,34,-1
 522 298 l 1,35,-1
 342 298 l 2,36,37
 302 298 302 298 273.5 288 c 128,-1,38
 245 278 245 278 230 259 c 128,-1,39
 215 240 215 240 215 212 c 0,40,41
 215 169 215 169 255.5 144 c 128,-1,42
 296 119 296 119 382 119 c 0,43,44
 450 119 450 119 510 135 c 128,-1,45
 570 151 570 151 617 182 c 1,46,-1
 667 60 l 1,47,48
 617 27 617 27 543.5 7.5 c 128,-1,49
 470 -12 470 -12 382 -12 c 0,0,1
EndSplineSet
Substitution2: "'c2sc' Capitals to Small Capitals lookup 47 subtable" uni025B.sc
Substitution2: "'aalt' Access All Alternates lookup 2 subtable" uni025B.sc
EndChar

StartChar: uni018E
Encoding: 398 398 97
Width: 691
GlyphClass: 2
Flags: W
AnchorPoint: "Anchor-3" 334 700 basechar 0
AnchorPoint: "Anchor-0" 334 0 basechar 0
LayerCount: 2
Fore
SplineSet
598 0 m 1,0,-1
 56 0 l 1,1,-1
 56 130 l 1,2,-1
 437 130 l 1,3,-1
 437 570 l 1,4,-1
 70 570 l 1,5,-1
 70 700 l 1,6,-1
 598 700 l 1,7,-1
 598 0 l 1,0,-1
449 292 m 1,8,-1
 112 292 l 1,9,-1
 112 418 l 1,10,-1
 449 418 l 1,11,-1
 449 292 l 1,8,-1
EndSplineSet
Substitution2: "'ss01' Style Set 1 lookup 52 subtable" uni018E.ss01
Substitution2: "'c2sc' Capitals to Small Capitals lookup 47 subtable" uni0258.sc
AlternateSubs2: "'aalt' Access All Alternates lookup 3 subtable" uni0258.sc uni018E.ss01
EndChar

StartChar: uniA7AB
Encoding: 42923 42923 98
Width: 672
GlyphClass: 2
Flags: W
AnchorPoint: "Anchor-3" 310 700 basechar 0
AnchorPoint: "Anchor-2" 199 0 basechar 0
AnchorPoint: "Anchor-0" 310 0 basechar 0
LayerCount: 2
Fore
SplineSet
290 -12 m 0,0,1
 203 -12 203 -12 129.5 7.5 c 128,-1,2
 56 27 56 27 5 60 c 1,3,-1
 56 182 l 1,4,5
 103 151 103 151 163 135 c 128,-1,6
 223 119 223 119 291 119 c 0,7,8
 377 119 377 119 417.5 144 c 128,-1,9
 458 169 458 169 458 212 c 0,10,11
 458 240 458 240 443 259 c 128,-1,12
 428 278 428 278 399.5 288 c 128,-1,13
 371 298 371 298 331 298 c 2,14,-1
 150 298 l 1,15,-1
 150 420 l 1,16,-1
 321 420 l 2,17,18
 375 420 375 420 401.5 439 c 128,-1,19
 428 458 428 458 428 493 c 0,20,21
 428 525 428 525 409.5 544 c 128,-1,22
 391 563 391 563 360 571.5 c 128,-1,23
 329 580 329 580 291 580 c 0,24,25
 255 580 255 580 216 573.5 c 128,-1,26
 177 567 177 567 142 555.5 c 128,-1,27
 107 544 107 544 79 529 c 1,28,-1
 34 653 l 1,29,30
 87 681 87 681 154 696.5 c 128,-1,31
 221 712 221 712 290 712 c 0,32,33
 348 712 348 712 402 700.5 c 128,-1,34
 456 689 456 689 499 665 c 128,-1,35
 542 641 542 641 567 604.5 c 128,-1,36
 592 568 592 568 592 517 c 0,37,38
 592 471 592 471 570 431 c 128,-1,39
 548 391 548 391 506 366 c 128,-1,40
 464 341 464 341 405 341 c 1,41,-1
 410 376 l 1,42,43
 471 376 471 376 518.5 355 c 128,-1,44
 566 334 566 334 593.5 294.5 c 128,-1,45
 621 255 621 255 621 200 c 0,46,47
 621 138 621 138 582.5 90 c 128,-1,48
 544 42 544 42 470.5 15 c 128,-1,49
 397 -12 397 -12 290 -12 c 0,0,1
EndSplineSet
Substitution2: "'c2sc' Capitals to Small Capitals lookup 47 subtable" uni025C.sc
Substitution2: "'aalt' Access All Alternates lookup 2 subtable" uni025C.sc
EndChar

StartChar: uni01A9
Encoding: 425 425 99
Width: 537
GlyphClass: 1
Flags: W
LayerCount: 2
Fore
SplineSet
134 -12 m 0,0,1
 88 -12 88 -12 45 2 c 128,-1,2
 2 16 2 16 -28 43 c 1,3,-1
 20 155 l 1,4,5
 43 138 43 138 64.5 130 c 128,-1,6
 86 122 86 122 107 122 c 0,7,8
 139 122 139 122 163.5 139.5 c 128,-1,9
 188 157 188 157 187 200 c 2,10,-1
 182 494 l 2,11,12
 181 569 181 569 209 617 c 128,-1,13
 237 665 237 665 286.5 688.5 c 128,-1,14
 336 712 336 712 400 712 c 0,15,16
 447 712 447 712 489 698 c 128,-1,17
 531 684 531 684 561 657 c 1,18,-1
 514 545 l 1,19,20
 491 562 491 562 469 570 c 128,-1,21
 447 578 447 578 427 578 c 0,22,23
 409 578 409 578 390 571.5 c 128,-1,24
 371 565 371 565 359 548.5 c 128,-1,25
 347 532 347 532 347 500 c 2,26,-1
 351 206 l 2,27,28
 352 143 352 143 333 101 c 128,-1,29
 314 59 314 59 282.5 34 c 128,-1,30
 251 9 251 9 212 -1.5 c 128,-1,31
 173 -12 173 -12 134 -12 c 0,0,1
EndSplineSet
Substitution2: "'c2sc' Capitals to Small Capitals lookup 47 subtable" uni0283.sc
Substitution2: "'aalt' Access All Alternates lookup 2 subtable" uni0283.sc
EndChar

StartChar: uni0246
Encoding: 582 582 100
Width: 691
GlyphClass: 2
Flags: W
AnchorPoint: "Anchor-3" 357 700 basechar 0
AnchorPoint: "Anchor-2" 635 0 basechar 0
AnchorPoint: "Anchor-0" 357 0 basechar 0
LayerCount: 2
Fore
SplineSet
159 -70 m 1,0,-1
 544 770 l 1,1,-1
 643 770 l 1,2,-1
 259 -70 l 1,3,-1
 159 -70 l 1,0,-1
93 0 m 1,4,-1
 93 700 l 1,5,-1
 622 700 l 1,6,-1
 622 570 l 1,7,-1
 254 570 l 1,8,-1
 254 130 l 1,9,-1
 635 130 l 1,10,-1
 635 0 l 1,11,-1
 93 0 l 1,4,-1
242 292 m 1,12,-1
 242 418 l 1,13,-1
 579 418 l 1,14,-1
 579 292 l 1,15,-1
 242 292 l 1,12,-1
EndSplineSet
Substitution2: "'ss01' Style Set 1 lookup 52 subtable" uni0246.ss01
Substitution2: "'c2sc' Capitals to Small Capitals lookup 47 subtable" uni0247.sc
AlternateSubs2: "'aalt' Access All Alternates lookup 3 subtable" uni0247.sc uni0246.ss01
EndChar

StartChar: uni018F
Encoding: 399 399 103
Width: 837
GlyphClass: 2
Flags: W
AnchorPoint: "Anchor-3" 419 700 basechar 0
AnchorPoint: "Anchor-2" 481 0 basechar 0
AnchorPoint: "Anchor-0" 419 0 basechar 0
LayerCount: 2
Fore
SplineSet
419 -12 m 256,0,1
 339 -12 339 -12 271 15 c 128,-1,2
 203 42 203 42 153.5 91 c 128,-1,3
 104 140 104 140 76.5 208 c 128,-1,4
 49 276 49 276 49 357 c 2,5,-1
 49 391 l 1,6,-1
 642 391 l 1,7,-1
 642 281 l 1,8,-1
 160 281 l 1,9,-1
 212 334 l 1,10,11
 212 284 212 284 226.5 244 c 128,-1,12
 241 204 241 204 268 175.5 c 128,-1,13
 295 147 295 147 333 132 c 128,-1,14
 371 117 371 117 419 117 c 256,15,16
 467 117 467 117 505 132 c 128,-1,17
 543 147 543 147 569.5 175.5 c 128,-1,18
 596 204 596 204 610 243 c 128,-1,19
 624 282 624 282 624 331 c 2,20,-1
 624 357 l 2,21,22
 624 404 624 404 607.5 444 c 128,-1,23
 591 484 591 484 562 513 c 128,-1,24
 533 542 533 542 493 558 c 128,-1,25
 453 574 453 574 407 574 c 0,26,27
 371 574 371 574 334 565 c 128,-1,28
 297 556 297 556 263.5 538 c 128,-1,29
 230 520 230 520 204 492 c 1,30,-1
 107 597 l 1,31,32
 140 631 140 631 187.5 657 c 128,-1,33
 235 683 235 683 291 697.5 c 128,-1,34
 347 712 347 712 408 712 c 0,35,36
 491 712 491 712 560.5 685.5 c 128,-1,37
 630 659 630 659 681.5 610 c 128,-1,38
 733 561 733 561 760.5 495 c 128,-1,39
 788 429 788 429 788 351 c 0,40,41
 788 271 788 271 760.5 205 c 128,-1,42
 733 139 733 139 683 90.5 c 128,-1,43
 633 42 633 42 566 15 c 128,-1,44
 499 -12 499 -12 419 -12 c 256,0,1
EndSplineSet
Substitution2: "'ss01' Style Set 1 lookup 52 subtable" uni018F.ss01
Substitution2: "'c2sc' Capitals to Small Capitals lookup 47 subtable" uni0259.sc
AlternateSubs2: "'aalt' Access All Alternates lookup 3 subtable" uni0259.sc uni018F.ss01
EndChar

StartChar: uni01B8
Encoding: 440 440 106
Width: 659
GlyphClass: 2
Flags: W
AnchorPoint: "Anchor-3" 332 700 basechar 0
AnchorPoint: "Anchor-0" 332 0 basechar 0
LayerCount: 2
Fore
SplineSet
352 -12 m 0,0,1
 248 -12 248 -12 181 20 c 128,-1,2
 114 52 114 52 82 103.5 c 128,-1,3
 50 155 50 155 50 215 c 256,4,5
 50 275 50 275 81 321.5 c 128,-1,6
 112 368 112 368 172.5 394 c 128,-1,7
 233 420 233 420 324 420 c 2,8,-1
 371 420 l 1,9,-1
 300 374 l 1,10,-1
 86 595 l 1,11,-1
 86 700 l 1,12,-1
 597 700 l 1,13,-1
 597 571 l 1,14,-1
 207 571 l 1,15,-1
 221 634 l 1,16,-1
 436 412 l 1,17,-1
 436 302 l 1,18,-1
 356 302 l 2,19,20
 282 302 282 302 247 278.5 c 128,-1,21
 212 255 212 255 212 214 c 0,22,23
 212 170 212 170 251 146 c 128,-1,24
 290 122 290 122 357 122 c 0,25,26
 417 122 417 122 473.5 139 c 128,-1,27
 530 156 530 156 571 187 c 1,28,-1
 626 62 l 1,29,30
 578 27 578 27 504 7.5 c 128,-1,31
 430 -12 430 -12 352 -12 c 0,0,1
EndSplineSet
Substitution2: "'c2sc' Capitals to Small Capitals lookup 47 subtable" uni01B9.sc
Substitution2: "'aalt' Access All Alternates lookup 2 subtable" uni01B9.sc
EndChar

StartChar: F
Encoding: 70 70 107
Width: 659
GlyphClass: 2
Flags: W
AnchorPoint: "Anchor-3" 354 700 basechar 0
AnchorPoint: "Anchor-0" 354 0 basechar 0
LayerCount: 2
Fore
SplineSet
93 0 m 1,0,-1
 93 700 l 1,1,-1
 622 700 l 1,2,-1
 622 570 l 1,3,-1
 255 570 l 1,4,-1
 255 0 l 1,5,-1
 93 0 l 1,0,-1
243 255 m 1,6,-1
 243 385 l 1,7,-1
 579 385 l 1,8,-1
 579 255 l 1,9,-1
 243 255 l 1,6,-1
EndSplineSet
Substitution2: "'ss01' Style Set 1 lookup 52 subtable" F.ss01
Substitution2: "'c2sc' Capitals to Small Capitals lookup 47 subtable" f.sc
AlternateSubs2: "'aalt' Access All Alternates lookup 3 subtable" f.sc F.ss01
EndChar

StartChar: uni0191
Encoding: 401 401 109
Width: 684
GlyphClass: 1
Flags: W
LayerCount: 2
Fore
SplineSet
-34 -182 m 1,0,-1
 6 -66 l 1,1,2
 33 -77 33 -77 56.5 -74 c 128,-1,3
 80 -71 80 -71 95.5 -54 c 128,-1,4
 111 -37 111 -37 111 -8 c 2,5,-1
 111 700 l 1,6,-1
 639 700 l 1,7,-1
 639 570 l 1,8,-1
 273 570 l 1,9,-1
 273 -9 l 2,10,11
 273 -74 273 -74 245 -117.5 c 128,-1,12
 217 -161 217 -161 171.5 -182.5 c 128,-1,13
 126 -204 126 -204 72 -203.5 c 128,-1,14
 18 -203 18 -203 -34 -182 c 1,0,-1
261 255 m 1,15,-1
 261 385 l 1,16,-1
 597 385 l 1,17,-1
 597 255 l 1,18,-1
 261 255 l 1,15,-1
EndSplineSet
Substitution2: "'ss01' Style Set 1 lookup 52 subtable" uni0191.ss01
Substitution2: "'c2sc' Capitals to Small Capitals lookup 47 subtable" florin.sc
AlternateSubs2: "'aalt' Access All Alternates lookup 3 subtable" florin.sc uni0191.ss01
EndChar

StartChar: G
Encoding: 71 71 110
Width: 791
GlyphClass: 2
Flags: W
AnchorPoint: "Anchor-3" 427 700 basechar 0
AnchorPoint: "Anchor-0" 417 0 basechar 0
LayerCount: 2
Fore
SplineSet
431 -12 m 0,0,1
 348 -12 348 -12 278.5 14.5 c 128,-1,2
 209 41 209 41 157.5 90 c 128,-1,3
 106 139 106 139 77.5 205 c 128,-1,4
 49 271 49 271 49 350 c 256,5,6
 49 429 49 429 77.5 495 c 128,-1,7
 106 561 106 561 158 610 c 128,-1,8
 210 659 210 659 280 685.5 c 128,-1,9
 350 712 350 712 434 712 c 0,10,11
 527 712 527 712 601.5 681 c 128,-1,12
 676 650 676 650 727 591 c 1,13,-1
 623 495 l 1,14,15
 585 535 585 535 540 554.5 c 128,-1,16
 495 574 495 574 442 574 c 0,17,18
 391 574 391 574 349 558 c 128,-1,19
 307 542 307 542 276.5 512 c 128,-1,20
 246 482 246 482 229.5 441 c 128,-1,21
 213 400 213 400 213 350 c 0,22,23
 213 301 213 301 229.5 260 c 128,-1,24
 246 219 246 219 276.5 188.5 c 128,-1,25
 307 158 307 158 348.5 142 c 128,-1,26
 390 126 390 126 440 126 c 0,27,28
 488 126 488 126 533.5 141.5 c 128,-1,29
 579 157 579 157 622 194 c 1,30,-1
 714 77 l 1,31,32
 657 34 657 34 581.5 11 c 128,-1,33
 506 -12 506 -12 431 -12 c 0,0,1
714 77 m 1,34,-1
 566 98 l 1,35,-1
 566 361 l 1,36,-1
 714 361 l 1,37,-1
 714 77 l 1,34,-1
EndSplineSet
Substitution2: "'ss01' Style Set 1 lookup 52 subtable" G.ss01
Substitution2: "'c2sc' Capitals to Small Capitals lookup 47 subtable" g.sc
AlternateSubs2: "'aalt' Access All Alternates lookup 3 subtable" g.sc G.ss01
EndChar

StartChar: uni0193
Encoding: 403 403 117
Width: 807
GlyphClass: 2
Flags: W
AnchorPoint: "Anchor-3" 422 700 basechar 0
AnchorPoint: "Anchor-0" 422 0 basechar 0
LayerCount: 2
Fore
SplineSet
431 -12 m 0,0,1
 348 -12 348 -12 278.5 14.5 c 128,-1,2
 209 41 209 41 157.5 90 c 128,-1,3
 106 139 106 139 77.5 205 c 128,-1,4
 49 271 49 271 49 350 c 256,5,6
 49 429 49 429 77.5 495 c 128,-1,7
 106 561 106 561 158 610 c 128,-1,8
 210 659 210 659 280 685.5 c 128,-1,9
 350 712 350 712 434 712 c 0,10,11
 527 712 527 712 601.5 681 c 128,-1,12
 676 650 676 650 727 591 c 1,13,-1
 623 495 l 1,14,15
 585 535 585 535 540 554.5 c 128,-1,16
 495 574 495 574 442 574 c 0,17,18
 391 574 391 574 349 558 c 128,-1,19
 307 542 307 542 276.5 512 c 128,-1,20
 246 482 246 482 229.5 441 c 128,-1,21
 213 400 213 400 213 350 c 0,22,23
 213 301 213 301 229.5 260 c 128,-1,24
 246 219 246 219 276.5 188.5 c 128,-1,25
 307 158 307 158 348.5 142 c 128,-1,26
 390 126 390 126 440 126 c 0,27,28
 488 126 488 126 533.5 141.5 c 128,-1,29
 579 157 579 157 622 194 c 1,30,-1
 714 77 l 1,31,32
 657 34 657 34 581.5 11 c 128,-1,33
 506 -12 506 -12 431 -12 c 0,0,1
714 77 m 1,34,-1
 566 98 l 1,35,-1
 566 361 l 1,36,-1
 714 361 l 1,37,-1
 714 77 l 1,34,-1
589 596 m 1,38,-1
 589 682 l 2,39,40
 589 742 589 742 613 781.5 c 128,-1,41
 637 821 637 821 676 841 c 128,-1,42
 715 861 715 861 762.5 861.5 c 128,-1,43
 810 862 810 862 856 843 c 1,44,-1
 820 731 l 1,45,46
 799 740 799 740 777 736 c 128,-1,47
 755 732 755 732 741 717 c 128,-1,48
 727 702 727 702 727 675 c 2,49,-1
 727 591 l 1,50,-1
 589 596 l 1,38,-1
EndSplineSet
Substitution2: "'ss01' Style Set 1 lookup 52 subtable" uni0193.ss01
Substitution2: "'c2sc' Capitals to Small Capitals lookup 47 subtable" uni0260.sc
AlternateSubs2: "'aalt' Access All Alternates lookup 3 subtable" uni0260.sc uni0193.ss01
EndChar

StartChar: uni0241
Encoding: 577 577 118
Width: 637
GlyphClass: 2
Flags: W
AnchorPoint: "Anchor-3" 305 700 basechar 0
AnchorPoint: "Anchor-0" 301 0 basechar 0
LayerCount: 2
Fore
SplineSet
219 0 m 1,0,-1
 219 168 l 2,1,2
 219 218 219 218 236 252 c 128,-1,3
 253 286 253 286 278.5 309 c 128,-1,4
 304 332 304 332 334 349.5 c 128,-1,5
 364 367 364 367 389.5 384 c 128,-1,6
 415 401 415 401 432 422.5 c 128,-1,7
 449 444 449 444 449 474 c 0,8,9
 449 510 449 510 427.5 533 c 128,-1,10
 406 556 406 556 371.5 568 c 128,-1,11
 337 580 337 580 298 580 c 0,12,13
 264 580 264 580 229.5 570.5 c 128,-1,14
 195 561 195 561 166 541 c 128,-1,15
 137 521 137 521 116 489 c 1,16,-1
 -10 564 l 1,17,18
 21 613 21 613 70 645.5 c 128,-1,19
 119 678 119 678 180 695 c 128,-1,20
 241 712 241 712 305 712 c 0,21,22
 364 712 364 712 418.5 698 c 128,-1,23
 473 684 473 684 517 655.5 c 128,-1,24
 561 627 561 627 586.5 583.5 c 128,-1,25
 612 540 612 540 612 481 c 0,26,27
 612 433 612 433 595.5 399 c 128,-1,28
 579 365 579 365 552.5 340.5 c 128,-1,29
 526 316 526 316 497 297 c 128,-1,30
 468 278 468 278 441.5 258.5 c 128,-1,31
 415 239 415 239 398.5 214.5 c 128,-1,32
 382 190 382 190 382 156 c 2,33,-1
 382 0 l 1,34,-1
 219 0 l 1,0,-1
EndSplineSet
Substitution2: "'c2sc' Capitals to Small Capitals lookup 47 subtable" uni0294.sc
Substitution2: "'aalt' Access All Alternates lookup 2 subtable" uni0294.sc
EndChar

StartChar: uni01E4
Encoding: 484 484 120
Width: 827
GlyphClass: 2
Flags: W
AnchorPoint: "Anchor-3" 427 700 basechar 0
AnchorPoint: "Anchor-0" 417 0 basechar 0
LayerCount: 2
Fore
SplineSet
431 -12 m 0,0,1
 348 -12 348 -12 278.5 14.5 c 128,-1,2
 209 41 209 41 157.5 90 c 128,-1,3
 106 139 106 139 77.5 205 c 128,-1,4
 49 271 49 271 49 350 c 256,5,6
 49 429 49 429 77.5 495 c 128,-1,7
 106 561 106 561 158 610 c 128,-1,8
 210 659 210 659 280 685.5 c 128,-1,9
 350 712 350 712 434 712 c 0,10,11
 527 712 527 712 601.5 681 c 128,-1,12
 676 650 676 650 727 591 c 1,13,-1
 623 495 l 1,14,15
 585 535 585 535 540 554.5 c 128,-1,16
 495 574 495 574 442 574 c 0,17,18
 391 574 391 574 349 558 c 128,-1,19
 307 542 307 542 276.5 512 c 128,-1,20
 246 482 246 482 229.5 441 c 128,-1,21
 213 400 213 400 213 350 c 0,22,23
 213 301 213 301 229.5 260 c 128,-1,24
 246 219 246 219 276.5 188.5 c 128,-1,25
 307 158 307 158 348.5 142 c 128,-1,26
 390 126 390 126 440 126 c 0,27,28
 488 126 488 126 533.5 141.5 c 128,-1,29
 579 157 579 157 622 194 c 1,30,-1
 714 77 l 1,31,32
 657 34 657 34 581.5 11 c 128,-1,33
 506 -12 506 -12 431 -12 c 0,0,1
434 208 m 1,34,-1
 434 317 l 1,35,-1
 802 317 l 1,36,-1
 802 208 l 1,37,-1
 434 208 l 1,34,-1
714 77 m 1,38,-1
 566 98 l 1,39,-1
 566 365 l 1,40,-1
 714 365 l 1,41,-1
 714 77 l 1,38,-1
EndSplineSet
Substitution2: "'ss01' Style Set 1 lookup 52 subtable" uni01E4.ss01
Substitution2: "'c2sc' Capitals to Small Capitals lookup 47 subtable" uni01E5.sc
AlternateSubs2: "'aalt' Access All Alternates lookup 3 subtable" uni01E5.sc uni01E4.ss01
EndChar

StartChar: uni021C
Encoding: 540 540 121
Width: 662
GlyphClass: 1
Flags: W
LayerCount: 2
Fore
SplineSet
6 -111 m 1,0,-1
 -1 23 l 1,1,2
 98 35 98 35 179 50.5 c 128,-1,3
 260 66 260 66 319 88 c 128,-1,4
 378 110 378 110 409.5 139.5 c 128,-1,5
 441 169 441 169 441 209 c 0,6,7
 441 238 441 238 424.5 255 c 128,-1,8
 408 272 408 272 378.5 276.5 c 128,-1,9
 349 281 349 281 310 272 c 2,10,-1
 163 238 l 1,11,-1
 153 367 l 1,12,-1
 282 397 l 2,13,14
 322 407 322 407 352 420.5 c 128,-1,15
 382 434 382 434 399.5 453.5 c 128,-1,16
 417 473 417 473 417 500 c 0,17,18
 417 521 417 521 406.5 537.5 c 128,-1,19
 396 554 396 554 375 564.5 c 128,-1,20
 354 575 354 575 320 575 c 0,21,22
 290 575 290 575 247 566 c 128,-1,23
 204 557 204 557 154.5 539 c 128,-1,24
 105 521 105 521 53 497 c 1,25,-1
 4 616 l 1,26,27
 49 643 49 643 104.5 664.5 c 128,-1,28
 160 686 160 686 220 698.5 c 128,-1,29
 280 711 280 711 338 711 c 0,30,31
 423 711 423 711 476.5 686 c 128,-1,32
 530 661 530 661 556 620.5 c 128,-1,33
 582 580 582 580 582 534 c 0,34,35
 582 480 582 480 551 439 c 128,-1,36
 520 398 520 398 467.5 370.5 c 128,-1,37
 415 343 415 343 350 327 c 1,38,-1
 343 360 l 1,39,40
 420 380 420 380 480 364.5 c 128,-1,41
 540 349 540 349 574.5 306.5 c 128,-1,42
 609 264 609 264 609 202 c 0,43,44
 609 134 609 134 565.5 79.5 c 128,-1,45
 522 25 522 25 442.5 -14.5 c 128,-1,46
 363 -54 363 -54 252 -78 c 128,-1,47
 141 -102 141 -102 6 -111 c 1,0,-1
EndSplineSet
Substitution2: "'c2sc' Capitals to Small Capitals lookup 47 subtable" uni021D.sc
Substitution2: "'aalt' Access All Alternates lookup 2 subtable" uni021D.sc
EndChar

StartChar: H
Encoding: 72 72 122
Width: 828
GlyphClass: 2
Flags: W
AnchorPoint: "Anchor-3" 414 700 basechar 0
AnchorPoint: "Anchor-1" 414 554 basechar 0
AnchorPoint: "Anchor-0" 414 0 basechar 0
LayerCount: 2
Fore
SplineSet
573 0 m 1,0,-1
 573 700 l 1,1,-1
 735 700 l 1,2,-1
 735 0 l 1,3,-1
 573 0 l 1,0,-1
93 0 m 1,4,-1
 93 700 l 1,5,-1
 255 700 l 1,6,-1
 255 0 l 1,7,-1
 93 0 l 1,4,-1
243 287 m 1,8,-1
 243 424 l 1,9,-1
 585 424 l 1,10,-1
 585 287 l 1,11,-1
 243 287 l 1,8,-1
EndSplineSet
Substitution2: "'c2sc' Capitals to Small Capitals lookup 47 subtable" h.sc
Substitution2: "'aalt' Access All Alternates lookup 2 subtable" h.sc
EndChar

StartChar: Hbar
Encoding: 294 294 123
Width: 855
GlyphClass: 2
Flags: W
AnchorPoint: "Anchor-3" 427 700 basechar 0
AnchorPoint: "Anchor-1" 428 554 basechar 0
AnchorPoint: "Anchor-0" 427 0 basechar 0
LayerCount: 2
Fore
SplineSet
586 0 m 1,0,-1
 586 700 l 1,1,-1
 749 700 l 1,2,-1
 749 0 l 1,3,-1
 586 0 l 1,0,-1
106 0 m 1,4,-1
 106 700 l 1,5,-1
 269 700 l 1,6,-1
 269 0 l 1,7,-1
 106 0 l 1,4,-1
256 283 m 1,8,-1
 256 416 l 1,9,-1
 598 416 l 1,10,-1
 598 283 l 1,11,-1
 256 283 l 1,8,-1
18 499 m 1,12,-1
 18 608 l 1,13,-1
 837 608 l 1,14,-1
 837 499 l 1,15,-1
 18 499 l 1,12,-1
EndSplineSet
Substitution2: "'c2sc' Capitals to Small Capitals lookup 47 subtable" hbar.sc
Substitution2: "'aalt' Access All Alternates lookup 2 subtable" hbar.sc
EndChar

StartChar: uni1E28
Encoding: 7720 7720 126
Width: 828
GlyphClass: 2
Flags: W
AnchorPoint: "Anchor-3" 414 700 basechar 0
AnchorPoint: "Anchor-1" 414 564 basechar 0
AnchorPoint: "Anchor-0" 414 0 basechar 0
LayerCount: 2
Fore
SplineSet
573 0 m 1,0,-1
 573 700 l 1,1,-1
 735 700 l 1,2,-1
 735 0 l 1,3,-1
 573 0 l 1,0,-1
158 -232 m 0,4,5
 132 -232 132 -232 107 -226 c 128,-1,6
 82 -220 82 -220 64 -211 c 1,7,-1
 88 -144 l 1,8,9
 103 -151 103 -151 119 -155 c 128,-1,10
 135 -159 135 -159 154 -159 c 0,11,12
 182 -159 182 -159 193.5 -150 c 128,-1,13
 205 -141 205 -141 205 -127 c 0,14,15
 205 -114 205 -114 193.5 -106 c 128,-1,16
 182 -98 182 -98 156 -98 c 2,17,-1
 114 -98 l 1,18,-1
 140 8 l 1,19,-1
 223 8 l 1,20,-1
 209 -50 l 1,21,22
 261 -55 261 -55 282.5 -78.5 c 128,-1,23
 304 -102 304 -102 304 -133 c 0,24,25
 304 -178 304 -178 264 -205 c 128,-1,26
 224 -232 224 -232 158 -232 c 0,4,5
93 0 m 1,27,-1
 93 700 l 1,28,-1
 255 700 l 1,29,-1
 255 0 l 1,30,-1
 93 0 l 1,27,-1
243 287 m 1,31,-1
 243 424 l 1,32,-1
 585 424 l 1,33,-1
 585 287 l 1,34,-1
 243 287 l 1,31,-1
EndSplineSet
Substitution2: "'c2sc' Capitals to Small Capitals lookup 47 subtable" uni1E29.sc
Substitution2: "'aalt' Access All Alternates lookup 2 subtable" uni1E29.sc
EndChar

StartChar: uniA7AA
Encoding: 42922 42922 132
Width: 1027
GlyphClass: 2
Flags: W
AnchorPoint: "Anchor-3" 613 700 basechar 0
AnchorPoint: "Anchor-1" 614 554 basechar 0
AnchorPoint: "Anchor-0" 613 0 basechar 0
LayerCount: 2
Fore
SplineSet
97 350 m 1,0,1
 63 388 63 388 46.5 435 c 128,-1,2
 30 482 30 482 33.5 528.5 c 128,-1,3
 37 575 37 575 61 614 c 128,-1,4
 85 653 85 653 131.5 676.5 c 128,-1,5
 178 700 178 700 247 700 c 2,6,-1
 300 700 l 1,7,-1
 300 568 l 1,8,-1
 246 568 l 2,9,10
 218 568 218 568 202 554 c 128,-1,11
 186 540 186 540 182 518 c 128,-1,12
 178 496 178 496 186 470 c 128,-1,13
 194 444 194 444 214 418 c 1,14,-1
 97 350 l 1,0,1
772 0 m 1,15,-1
 772 700 l 1,16,-1
 934 700 l 1,17,-1
 934 0 l 1,18,-1
 772 0 l 1,15,-1
292 0 m 1,19,-1
 292 700 l 1,20,-1
 454 700 l 1,21,-1
 454 0 l 1,22,-1
 292 0 l 1,19,-1
442 287 m 1,23,-1
 442 424 l 1,24,-1
 784 424 l 1,25,-1
 784 287 l 1,26,-1
 442 287 l 1,23,-1
EndSplineSet
Substitution2: "'c2sc' Capitals to Small Capitals lookup 47 subtable" uni0266.sc
Substitution2: "'aalt' Access All Alternates lookup 2 subtable" uni0266.sc
EndChar

StartChar: uniA78D
Encoding: 42893 42893 133
Width: 780
GlyphClass: 2
Flags: W
AnchorPoint: "Anchor-3" 369 700 basechar 0
AnchorPoint: "Anchor-0" 368 0 basechar 0
LayerCount: 2
Fore
SplineSet
687 700 m 1,0,-1
 687 0 l 1,1,-1
 529 0 l 1,2,-1
 529 388 l 1,3,-1
 564 359 l 1,4,5
 531 279 531 279 467.5 240.5 c 128,-1,6
 404 202 404 202 315 202 c 0,7,8
 191 202 191 202 120.5 279.5 c 128,-1,9
 50 357 50 357 50 503 c 2,10,-1
 50 700 l 1,11,-1
 212 700 l 1,12,-1
 212 508 l 2,13,14
 212 422 212 422 253 380.5 c 128,-1,15
 294 339 294 339 361 339 c 0,16,17
 432 339 432 339 478 383 c 128,-1,18
 524 427 524 427 524 520 c 2,19,-1
 524 700 l 1,20,-1
 687 700 l 1,0,-1
EndSplineSet
Substitution2: "'c2sc' Capitals to Small Capitals lookup 47 subtable" uni0265.sc
Substitution2: "'aalt' Access All Alternates lookup 2 subtable" uni0265.sc
EndChar

StartChar: I
Encoding: 73 73 134
Width: 408
GlyphClass: 2
Flags: W
AnchorPoint: "Anchor-3" 194 700 basechar 0
AnchorPoint: "Anchor-2" 275 0 basechar 0
AnchorPoint: "Anchor-1" 194 350 basechar 0
AnchorPoint: "Anchor-0" 194 0 basechar 0
LayerCount: 2
Fore
SplineSet
-343 526 m 1025,0,-1
19 130 m 1,1,-1
 369 130 l 1,2,-1
 369 0 l 1,3,-1
 19 0 l 1,4,-1
 19 130 l 1,1,-1
19 700 m 1,5,-1
 369 700 l 1,6,-1
 369 570 l 1,7,-1
 19 570 l 1,8,-1
 19 700 l 1,5,-1
113 10 m 1,9,-1
 113 690 l 1,10,-1
 275 690 l 1,11,-1
 275 10 l 1,12,-1
 113 10 l 1,9,-1
EndSplineSet
Substitution2: "'ss01' Style Set 1 lookup 52 subtable" I.ss01
Substitution2: "'c2sc' Capitals to Small Capitals lookup 47 subtable" i.sc
AlternateSubs2: "'aalt' Access All Alternates lookup 3 subtable" i.sc I.ss01
EndChar

StartChar: IJ
Encoding: 306 306 135
Width: 744
GlyphClass: 2
Flags: W
AnchorPoint: "Anchor-3" 168 700 basechar 0
LayerCount: 2
Fore
SplineSet
337 -12 m 0,0,1
 258 -12 258 -12 189.5 9.5 c 128,-1,2
 121 31 121 31 71 65 c 1,3,-1
 132 187 l 1,4,5
 178 157 178 157 231 140.5 c 128,-1,6
 284 124 284 124 334 124 c 0,7,8
 414 124 414 124 454.5 168.5 c 128,-1,9
 495 213 495 213 495 307 c 2,10,-1
 495 700 l 1,11,-1
 657 700 l 1,12,-1
 657 315 l 2,13,14
 657 209 657 209 617 136 c 128,-1,15
 577 63 577 63 505.5 25.5 c 128,-1,16
 434 -12 434 -12 337 -12 c 0,0,1
87 322 m 1,17,-1
 87 700 l 1,18,-1
 249 700 l 1,19,-1
 249 322 l 1,20,-1
 87 322 l 1,17,-1
EndSplineSet
Substitution2: "'ss01' Style Set 1 lookup 52 subtable" IJ.ss01
Substitution2: "'c2sc' Capitals to Small Capitals lookup 47 subtable" ij.sc
AlternateSubs2: "'aalt' Access All Alternates lookup 3 subtable" ij.sc IJ.ss01
EndChar

StartChar: Iacute_J.loclNLD
Encoding: 65537 -1 136
Width: 744
GlyphClass: 1
Flags: W
LayerCount: 2
Fore
SplineSet
337 -8 m 0,0,1
 258 -8 258 -8 189.5 13.5 c 128,-1,2
 121 35 121 35 71 71 c 1,3,-1
 132 191 l 1,4,5
 178 160 178 160 230 144 c 128,-1,6
 282 128 282 128 331 128 c 0,7,8
 412 128 412 128 453 172.5 c 128,-1,9
 494 217 494 217 494 311 c 2,10,-1
 494 700 l 1,11,-1
 657 700 l 1,12,-1
 657 319 l 2,13,14
 657 213 657 213 617 140 c 128,-1,15
 577 67 577 67 505.5 29.5 c 128,-1,16
 434 -8 434 -8 337 -8 c 0,0,1
87 322 m 1,17,-1
 87 700 l 1,18,-1
 249 700 l 1,19,-1
 249 322 l 1,20,-1
 87 322 l 1,17,-1
94 757 m 1,21,-1
 228 901 l 1,22,-1
 384 901 l 1,23,-1
 203 757 l 1,24,-1
 94 757 l 1,21,-1
501 757 m 1,25,-1
 636 901 l 1,26,-1
 792 901 l 1,27,-1
 610 757 l 1,28,-1
 501 757 l 1,25,-1
EndSplineSet
Substitution2: "'ss01' Style Set 1 lookup 52 subtable" Iacute_J.loclNLD.ss01
Substitution2: "'c2sc' Capitals to Small Capitals lookup 47 subtable" iacute_j.loclNLD.sc
Ligature2: "'locl' Localized Forms in Latin lookup 18 subtable" Iacute J
AlternateSubs2: "'aalt' Access All Alternates lookup 3 subtable" iacute_j.loclNLD.sc Iacute_J.loclNLD.ss01
EndChar

StartChar: uni0196
Encoding: 406 406 151
Width: 422
GlyphClass: 2
Flags: W
AnchorPoint: "Anchor-3" 168 700 basechar 0
AnchorPoint: "Anchor-2" 352 0 basechar 0
AnchorPoint: "Anchor-0" 237 0 basechar 0
LayerCount: 2
Fore
SplineSet
284 -11 m 1,0,-1
 284 -11 l 1,1,2
 233 -11 233 -11 187.5 9 c 128,-1,3
 142 29 142 29 114.5 72.5 c 128,-1,4
 87 116 87 116 87 185 c 2,5,-1
 87 700 l 1,6,-1
 249 700 l 1,7,-1
 249 196 l 2,8,9
 249 159 249 159 269 140.5 c 128,-1,10
 289 122 289 122 317 122 c 0,11,12
 333 122 333 122 349.5 127 c 128,-1,13
 366 132 366 132 383 141 c 1,14,-1
 419 21 l 1,15,16
 388 6 388 6 353 -2.5 c 128,-1,17
 318 -11 318 -11 284 -11 c 1,0,-1
EndSplineSet
Substitution2: "'c2sc' Capitals to Small Capitals lookup 47 subtable" uni0269.sc
Substitution2: "'aalt' Access All Alternates lookup 2 subtable" uni0269.sc
EndChar

StartChar: uni0197
Encoding: 407 407 152
Width: 380
GlyphClass: 2
Flags: W
AnchorPoint: "Anchor-3" 190 700 basechar 0
AnchorPoint: "Anchor-2" 271 0 basechar 0
AnchorPoint: "Anchor-0" 190 0 basechar 0
LayerCount: 2
Fore
SplineSet
109 0 m 1,0,-1
 109 700 l 1,1,-1
 271 700 l 1,2,-1
 271 0 l 1,3,-1
 109 0 l 1,0,-1
21 303 m 1,4,-1
 21 412 l 1,5,-1
 359 412 l 1,6,-1
 359 303 l 1,7,-1
 21 303 l 1,4,-1
EndSplineSet
Substitution2: "'ss01' Style Set 1 lookup 52 subtable" uni0197.ss01
Substitution2: "'c2sc' Capitals to Small Capitals lookup 47 subtable" uni0268.sc
AlternateSubs2: "'aalt' Access All Alternates lookup 3 subtable" uni0268.sc uni0197.ss01
EndChar

StartChar: J
Encoding: 74 74 155
Width: 561
GlyphClass: 2
Flags: W
AnchorPoint: "Anchor-3" 271 700 basechar 0
LayerCount: 2
Fore
SplineSet
222 -12 m 0,0,1
 151 -12 151 -12 91.5 14.5 c 128,-1,2
 32 41 32 41 -6 90 c 1,3,-1
 84 198 l 1,4,5
 113 160 113 160 145 140.5 c 128,-1,6
 177 121 177 121 214 121 c 0,7,8
 313 121 313 121 313 237 c 2,9,-1
 313 570 l 1,10,-1
 67 570 l 1,11,-1
 67 700 l 1,12,-1
 474 700 l 1,13,-1
 474 246 l 2,14,15
 474 116 474 116 410 52 c 128,-1,16
 346 -12 346 -12 222 -12 c 0,0,1
EndSplineSet
Substitution2: "'ss01' Style Set 1 lookup 52 subtable" J.ss01
Substitution2: "'c2sc' Capitals to Small Capitals lookup 47 subtable" j.sc
AlternateSubs2: "'aalt' Access All Alternates lookup 3 subtable" j.sc J.ss01
EndChar

StartChar: uniA7B2
Encoding: 42930 42930 157
Width: 568
GlyphClass: 2
Flags: W
AnchorPoint: "Anchor-3" 270 700 basechar 0
LayerCount: 2
Fore
SplineSet
228 -12 m 0,0,1
 166 -12 166 -12 120.5 8.5 c 128,-1,2
 75 29 75 29 51 65.5 c 128,-1,3
 27 102 27 102 27 147 c 0,4,5
 27 186 27 186 47.5 222 c 128,-1,6
 68 258 68 258 114.5 281 c 128,-1,7
 161 304 161 304 238 304 c 2,8,-1
 547 304 l 1,9,-1
 547 198 l 1,10,-1
 246 198 l 2,11,12
 211 198 211 198 192 189.5 c 128,-1,13
 173 181 173 181 167 169 c 128,-1,14
 161 157 161 157 161 146 c 0,15,16
 161 133 161 133 168 122 c 128,-1,17
 175 111 175 111 189.5 104.5 c 128,-1,18
 204 98 204 98 224 98 c 0,19,20
 246 98 246 98 265.5 107.5 c 128,-1,21
 285 117 285 117 297.5 138 c 128,-1,22
 310 159 310 159 310 195 c 2,23,-1
 311 570 l 1,24,-1
 66 570 l 1,25,-1
 66 700 l 1,26,-1
 473 700 l 1,27,-1
 471 214 l 2,28,29
 471 135 471 135 436.5 85 c 128,-1,30
 402 35 402 35 347 11.5 c 128,-1,31
 292 -12 292 -12 228 -12 c 0,0,1
EndSplineSet
Substitution2: "'ss01' Style Set 1 lookup 52 subtable" uniA7B2.ss01
Substitution2: "'c2sc' Capitals to Small Capitals lookup 47 subtable" uni029D.sc
AlternateSubs2: "'aalt' Access All Alternates lookup 3 subtable" uni029D.sc uniA7B2.ss01
EndChar

StartChar: uni0248
Encoding: 584 584 158
Width: 566
GlyphClass: 2
Flags: W
AnchorPoint: "Anchor-3" 271 700 basechar 0
LayerCount: 2
Fore
SplineSet
222 -12 m 0,0,1
 151 -12 151 -12 91.5 14.5 c 128,-1,2
 32 41 32 41 -6 90 c 1,3,-1
 84 198 l 1,4,5
 113 160 113 160 145 140.5 c 128,-1,6
 177 121 177 121 214 121 c 0,7,8
 313 121 313 121 313 237 c 2,9,-1
 313 570 l 1,10,-1
 67 570 l 1,11,-1
 67 700 l 1,12,-1
 474 700 l 1,13,-1
 474 246 l 2,14,15
 474 116 474 116 410 52 c 128,-1,16
 346 -12 346 -12 222 -12 c 0,0,1
181 303 m 1,17,-1
 181 412 l 1,18,-1
 563 412 l 1,19,-1
 563 303 l 1,20,-1
 181 303 l 1,17,-1
EndSplineSet
Substitution2: "'ss01' Style Set 1 lookup 52 subtable" uni0248.ss01
Substitution2: "'c2sc' Capitals to Small Capitals lookup 47 subtable" uni0249.sc
AlternateSubs2: "'aalt' Access All Alternates lookup 3 subtable" uni0249.sc uni0248.ss01
EndChar

StartChar: K
Encoding: 75 75 159
Width: 760
GlyphClass: 2
Flags: W
AnchorPoint: "Anchor-3" 389 700 basechar 0
AnchorPoint: "Anchor-0" 389 0 basechar 0
LayerCount: 2
Fore
SplineSet
238 160 m 1,0,-1
 229 347 l 1,1,-1
 564 700 l 1,2,-1
 744 700 l 1,3,-1
 442 375 l 1,4,-1
 352 279 l 1,5,-1
 238 160 l 1,0,-1
93 0 m 1,6,-1
 93 700 l 1,7,-1
 254 700 l 1,8,-1
 254 0 l 1,9,-1
 93 0 l 1,6,-1
572 0 m 1,10,-1
 323 305 l 1,11,-1
 429 420 l 1,12,-1
 761 0 l 1,13,-1
 572 0 l 1,10,-1
EndSplineSet
Substitution2: "'c2sc' Capitals to Small Capitals lookup 47 subtable" k.sc
Substitution2: "'aalt' Access All Alternates lookup 2 subtable" k.sc
EndChar

StartChar: uni0198
Encoding: 408 408 164
Width: 750
GlyphClass: 2
Flags: W
AnchorPoint: "Anchor-3" 389 700 basechar 0
AnchorPoint: "Anchor-0" 389 0 basechar 0
LayerCount: 2
Fore
SplineSet
232 162 m 1,0,-1
 222 350 l 1,1,-1
 493 668 l 2,2,3
 542 723 542 723 591 740.5 c 128,-1,4
 640 758 640 758 685 747 c 128,-1,5
 730 736 730 736 766 703 c 1,6,-1
 694 600 l 1,7,8
 671 620 671 620 645 616.5 c 128,-1,9
 619 613 619 613 596 586 c 2,10,-1
 232 162 l 1,0,-1
93 0 m 1,11,-1
 93 700 l 1,12,-1
 254 700 l 1,13,-1
 254 0 l 1,14,-1
 93 0 l 1,11,-1
572 0 m 1,15,-1
 323 305 l 1,16,-1
 429 420 l 1,17,-1
 761 0 l 1,18,-1
 572 0 l 1,15,-1
EndSplineSet
Substitution2: "'c2sc' Capitals to Small Capitals lookup 47 subtable" uni0199.sc
Substitution2: "'aalt' Access All Alternates lookup 2 subtable" uni0199.sc
EndChar

StartChar: uniA740
Encoding: 42816 42816 166
Width: 760
GlyphClass: 2
Flags: W
AnchorPoint: "Anchor-3" 389 700 basechar 0
AnchorPoint: "Anchor-0" 389 0 basechar 0
LayerCount: 2
Fore
SplineSet
242 137 m 1,0,-1
 238 331 l 1,1,-1
 575 700 l 1,2,-1
 754 700 l 1,3,-1
 242 137 l 1,0,-1
102 0 m 1,4,-1
 102 700 l 1,5,-1
 263 700 l 1,6,-1
 263 0 l 1,7,-1
 102 0 l 1,4,-1
582 0 m 1,8,-1
 334 305 l 1,9,-1
 439 420 l 1,10,-1
 771 0 l 1,11,-1
 582 0 l 1,8,-1
14 528 m 1,12,-1
 14 625 l 1,13,-1
 389 625 l 1,14,-1
 389 528 l 1,15,-1
 14 528 l 1,12,-1
EndSplineSet
Substitution2: "'c2sc' Capitals to Small Capitals lookup 47 subtable" uniA741.sc
Substitution2: "'aalt' Access All Alternates lookup 2 subtable" uniA741.sc
EndChar

StartChar: L
Encoding: 76 76 167
Width: 624
GlyphClass: 2
Flags: W
AnchorPoint: "Anchor-4" 441 700 basechar 0
AnchorPoint: "Anchor-3" 174 700 basechar 0
AnchorPoint: "Anchor-1" 174 365 basechar 0
AnchorPoint: "Anchor-0" 350 0 basechar 0
LayerCount: 2
Fore
SplineSet
93 0 m 1,0,-1
 93 700 l 1,1,-1
 255 700 l 1,2,-1
 255 132 l 1,3,-1
 606 132 l 1,4,-1
 606 0 l 1,5,-1
 93 0 l 1,0,-1
EndSplineSet
Substitution2: "'c2sc' Capitals to Small Capitals lookup 47 subtable" l.sc
Substitution2: "'aalt' Access All Alternates lookup 2 subtable" l.sc
EndChar

StartChar: uni023D
Encoding: 573 573 170
Width: 635
GlyphClass: 2
Flags: W
AnchorPoint: "Anchor-4" 451 700 basechar 0
AnchorPoint: "Anchor-3" 185 700 basechar 0
AnchorPoint: "Anchor-1" 185 365 basechar 0
AnchorPoint: "Anchor-0" 360 0 basechar 0
LayerCount: 2
Fore
SplineSet
103 0 m 1,0,-1
 103 700 l 1,1,-1
 266 700 l 1,2,-1
 266 132 l 1,3,-1
 616 132 l 1,4,-1
 616 0 l 1,5,-1
 103 0 l 1,0,-1
15 303 m 1,6,-1
 15 412 l 1,7,-1
 398 412 l 1,8,-1
 398 303 l 1,9,-1
 15 303 l 1,6,-1
EndSplineSet
Substitution2: "'c2sc' Capitals to Small Capitals lookup 47 subtable" uni019A.sc
Substitution2: "'aalt' Access All Alternates lookup 2 subtable" uni019A.sc
EndChar

StartChar: uniA7AD
Encoding: 42925 42925 171
Width: 717
GlyphClass: 2
Flags: W
AnchorPoint: "Anchor-4" 533 700 basechar 0
AnchorPoint: "Anchor-3" 267 700 basechar 0
AnchorPoint: "Anchor-1" 267 387 basechar 0
AnchorPoint: "Anchor-0" 454 0 basechar 0
LayerCount: 2
Fore
SplineSet
186 0 m 1,0,-1
 186 700 l 1,1,-1
 348 700 l 1,2,-1
 348 132 l 1,3,-1
 698 132 l 1,4,-1
 698 0 l 1,5,-1
 186 0 l 1,0,-1
162 311 m 2,6,7
 100 311 100 311 61.5 332.5 c 128,-1,8
 23 354 23 354 5.5 387 c 128,-1,9
 -12 420 -12 420 -12 457 c 0,10,11
 -12 496 -12 496 5 526 c 128,-1,12
 22 556 22 556 52.5 574 c 128,-1,13
 83 592 83 592 122 592 c 0,14,15
 160 592 160 592 188.5 573 c 128,-1,16
 217 554 217 554 233 516.5 c 128,-1,17
 249 479 249 479 249 422 c 1,18,-1
 186 422 l 1,19,20
 184 464 184 464 165 482 c 128,-1,21
 146 500 146 500 128 500 c 0,22,23
 113 500 113 500 103.5 490.5 c 128,-1,24
 94 481 94 481 94 467 c 0,25,26
 94 451 94 451 109.5 436.5 c 128,-1,27
 125 422 125 422 164 422 c 2,28,-1
 542 422 l 1,29,-1
 544 311 l 1,30,-1
 162 311 l 2,6,7
EndSplineSet
Substitution2: "'c2sc' Capitals to Small Capitals lookup 47 subtable" uni026C.sc
Substitution2: "'aalt' Access All Alternates lookup 2 subtable" uni026C.sc
EndChar

StartChar: uni2C60
Encoding: 11360 11360 178
Width: 668
GlyphClass: 1
Flags: W
LayerCount: 2
Fore
SplineSet
136 0 m 1,0,-1
 136 700 l 1,1,-1
 299 700 l 1,2,-1
 299 132 l 1,3,-1
 649 132 l 1,4,-1
 649 0 l 1,5,-1
 136 0 l 1,0,-1
48 259 m 1,6,-1
 48 366 l 1,7,-1
 431 366 l 1,8,-1
 431 259 l 1,9,-1
 48 259 l 1,6,-1
48 421 m 1,10,-1
 48 529 l 1,11,-1
 431 529 l 1,12,-1
 431 421 l 1,13,-1
 48 421 l 1,10,-1
EndSplineSet
Substitution2: "'c2sc' Capitals to Small Capitals lookup 47 subtable" uni2C61.sc
Substitution2: "'aalt' Access All Alternates lookup 2 subtable" uni2C61.sc
EndChar

StartChar: uni2C62
Encoding: 11362 11362 181
Width: 668
GlyphClass: 2
Flags: W
AnchorPoint: "Anchor-4" 485 700 basechar 0
AnchorPoint: "Anchor-3" 218 700 basechar 0
AnchorPoint: "Anchor-0" 393 0 basechar 0
LayerCount: 2
Fore
SplineSet
137 0 m 1,0,-1
 137 700 l 1,1,-1
 299 700 l 1,2,-1
 299 132 l 1,3,-1
 649 132 l 1,4,-1
 649 0 l 1,5,-1
 137 0 l 1,0,-1
340 321 m 0,6,7
 313 321 313 321 280.5 330.5 c 128,-1,8
 248 340 248 340 216 352.5 c 128,-1,9
 184 365 184 365 157 374.5 c 128,-1,10
 130 384 130 384 114 384 c 0,11,12
 94 384 94 384 82 368.5 c 128,-1,13
 70 353 70 353 68 328 c 1,14,-1
 -11 328 l 1,15,16
 -9 394 -9 394 21.5 434 c 128,-1,17
 52 474 52 474 106 474 c 0,18,19
 133 474 133 474 165.5 464.5 c 128,-1,20
 198 455 198 455 230 442 c 128,-1,21
 262 429 262 429 289 419.5 c 128,-1,22
 316 410 316 410 332 410 c 0,23,24
 352 410 352 410 364.5 425.5 c 128,-1,25
 377 441 377 441 378 464 c 1,26,-1
 457 464 l 1,27,28
 456 401 456 401 425 361 c 128,-1,29
 394 321 394 321 340 321 c 0,6,7
EndSplineSet
Substitution2: "'c2sc' Capitals to Small Capitals lookup 47 subtable" uni026B.sc
Substitution2: "'aalt' Access All Alternates lookup 2 subtable" uni026B.sc
EndChar

StartChar: M
Encoding: 77 77 183
Width: 975
GlyphClass: 2
Flags: W
AnchorPoint: "Anchor-3" 487 700 basechar 0
AnchorPoint: "Anchor-0" 487 0 basechar 0
LayerCount: 2
Fore
SplineSet
93 0 m 1,0,-1
 93 700 l 1,1,-1
 227 700 l 1,2,-1
 525 206 l 1,3,-1
 454 206 l 1,4,-1
 747 700 l 1,5,-1
 880 700 l 1,6,-1
 882 0 l 1,7,-1
 730 0 l 1,8,-1
 729 467 l 1,9,-1
 757 467 l 1,10,-1
 523 74 l 1,11,-1
 450 74 l 1,12,-1
 211 467 l 1,13,-1
 245 467 l 1,14,-1
 245 0 l 1,15,-1
 93 0 l 1,0,-1
EndSplineSet
Substitution2: "'ss01' Style Set 1 lookup 52 subtable" M.ss01
Substitution2: "'c2sc' Capitals to Small Capitals lookup 47 subtable" m.sc
AlternateSubs2: "'aalt' Access All Alternates lookup 3 subtable" m.sc M.ss01
EndChar

StartChar: uni2C6E
Encoding: 11374 11374 187
Width: 985
GlyphClass: 2
Flags: W
AnchorPoint: "Anchor-3" 497 700 basechar 0
AnchorPoint: "Anchor-0" 497 0 basechar 0
LayerCount: 2
Fore
SplineSet
572 -172 m 1,0,-1
 616 -58 l 1,1,2
 639 -71 639 -71 661 -74.5 c 128,-1,3
 683 -78 683 -78 700.5 -71.5 c 128,-1,4
 718 -65 718 -65 729 -49 c 128,-1,5
 740 -33 740 -33 740 -8 c 2,6,-1
 740 467 l 1,7,-1
 767 467 l 1,8,-1
 533 74 l 1,9,-1
 460 74 l 1,10,-1
 221 467 l 1,11,-1
 255 467 l 1,12,-1
 255 0 l 1,13,-1
 103 0 l 1,14,-1
 103 700 l 1,15,-1
 237 700 l 1,16,-1
 535 206 l 1,17,-1
 464 206 l 1,18,-1
 757 700 l 1,19,-1
 890 700 l 1,20,-1
 892 -10 l 2,21,22
 892 -67 892 -67 871.5 -106.5 c 128,-1,23
 851 -146 851 -146 817.5 -169.5 c 128,-1,24
 784 -193 784 -193 741.5 -200.5 c 128,-1,25
 699 -208 699 -208 655 -201 c 128,-1,26
 611 -194 611 -194 572 -172 c 1,0,-1
EndSplineSet
Substitution2: "'c2sc' Capitals to Small Capitals lookup 47 subtable" uni0271.sc
Substitution2: "'aalt' Access All Alternates lookup 2 subtable" uni0271.sc
EndChar

StartChar: uni019C
Encoding: 412 412 188
Width: 1241
GlyphClass: 2
Flags: W
AnchorPoint: "Anchor-3" 620 700 basechar 0
AnchorPoint: "Anchor-0" 622 0 basechar 0
LayerCount: 2
Fore
SplineSet
1148 700 m 1,0,-1
 1148 0 l 1,1,-1
 991 0 l 1,2,-1
 991 152 l 1,3,-1
 1013 127 l 1,4,5
 987 61 987 61 927.5 24.5 c 128,-1,6
 868 -12 868 -12 784 -12 c 0,7,8
 695 -12 695 -12 635.5 28 c 128,-1,9
 576 68 576 68 553 139 c 1,10,-1
 600 135 l 1,11,12
 570 64 570 64 503 26 c 128,-1,13
 436 -12 436 -12 349 -12 c 0,14,15
 227 -12 227 -12 157 59.5 c 128,-1,16
 87 131 87 131 87 270 c 2,17,-1
 87 700 l 1,18,-1
 249 700 l 1,19,-1
 249 275 l 2,20,21
 249 199 249 199 288.5 162.5 c 128,-1,22
 328 126 328 126 389 126 c 0,23,24
 455 126 455 126 497.5 164 c 128,-1,25
 540 202 540 202 540 285 c 2,26,-1
 540 700 l 1,27,-1
 702 700 l 1,28,-1
 702 275 l 2,29,30
 702 199 702 199 739 162.5 c 128,-1,31
 776 126 776 126 836 126 c 0,32,33
 879 126 879 126 913 142.5 c 128,-1,34
 947 159 947 159 966.5 194.5 c 128,-1,35
 986 230 986 230 986 285 c 2,36,-1
 986 700 l 1,37,-1
 1148 700 l 1,0,-1
EndSplineSet
Substitution2: "'c2sc' Capitals to Small Capitals lookup 47 subtable" uni026F.sc
Substitution2: "'aalt' Access All Alternates lookup 2 subtable" uni026F.sc
EndChar

StartChar: N
Encoding: 78 78 189
Width: 828
GlyphClass: 2
Flags: W
AnchorPoint: "Anchor-3" 414 700 basechar 0
AnchorPoint: "Anchor-0" 414 0 basechar 0
LayerCount: 2
Fore
SplineSet
93 0 m 1,0,-1
 93 700 l 1,1,-1
 227 700 l 1,2,-1
 640 196 l 1,3,-1
 575 196 l 1,4,-1
 575 700 l 1,5,-1
 735 700 l 1,6,-1
 735 0 l 1,7,-1
 602 0 l 1,8,-1
 188 504 l 1,9,-1
 253 504 l 1,10,-1
 253 0 l 1,11,-1
 93 0 l 1,0,-1
EndSplineSet
Substitution2: "'ss01' Style Set 1 lookup 52 subtable" N.ss01
Substitution2: "'c2sc' Capitals to Small Capitals lookup 47 subtable" n.sc
AlternateSubs2: "'aalt' Access All Alternates lookup 3 subtable" n.sc N.ss01
EndChar

StartChar: uni019D
Encoding: 413 413 198
Width: 829
GlyphClass: 2
Flags: W
AnchorPoint: "Anchor-3" 423 700 basechar 0
AnchorPoint: "Anchor-0" 423 0 basechar 0
LayerCount: 2
Fore
SplineSet
-34 -184 m 1,0,-1
 6 -68 l 1,1,2
 31 -77 31 -77 53.5 -73.5 c 128,-1,3
 76 -70 76 -70 90.5 -53.5 c 128,-1,4
 105 -37 105 -37 105 -8 c 2,5,-1
 105 700 l 1,6,-1
 262 700 l 1,7,-1
 262 526 l 1,8,-1
 228 554 l 1,9,10
 261 634 261 634 324.5 673 c 128,-1,11
 388 712 388 712 476 712 c 0,12,13
 601 712 601 712 671.5 634 c 128,-1,14
 742 556 742 556 742 410 c 2,15,-1
 742 0 l 1,16,-1
 579 0 l 1,17,-1
 579 405 l 2,18,19
 579 491 579 491 538.5 532.5 c 128,-1,20
 498 574 498 574 431 574 c 0,21,22
 359 574 359 574 313.5 530.5 c 128,-1,23
 268 487 268 487 268 394 c 2,24,-1
 268 -8 l 2,25,26
 268 -73 268 -73 240 -116.5 c 128,-1,27
 212 -160 212 -160 167.5 -181.5 c 128,-1,28
 123 -203 123 -203 70 -203.5 c 128,-1,29
 17 -204 17 -204 -34 -184 c 1,0,-1
EndSplineSet
Substitution2: "'c2sc' Capitals to Small Capitals lookup 47 subtable" uni0272.sc
Substitution2: "'aalt' Access All Alternates lookup 2 subtable" uni0272.sc
EndChar

StartChar: uni0220
Encoding: 544 544 201
Width: 828
GlyphClass: 2
Flags: W
AnchorPoint: "Anchor-3" 421 700 basechar 0
AnchorPoint: "Anchor-0" 421 0 basechar 0
LayerCount: 2
Fore
SplineSet
577 -194 m 1,0,-1
 577 405 l 2,1,2
 577 491 577 491 536.5 532.5 c 128,-1,3
 496 574 496 574 429 574 c 0,4,5
 357 574 357 574 311.5 530.5 c 128,-1,6
 266 487 266 487 266 394 c 2,7,-1
 266 0 l 1,8,-1
 103 0 l 1,9,-1
 103 700 l 1,10,-1
 260 700 l 1,11,-1
 260 526 l 1,12,-1
 226 554 l 1,13,14
 259 634 259 634 322.5 673 c 128,-1,15
 386 712 386 712 474 712 c 0,16,17
 599 712 599 712 669.5 634 c 128,-1,18
 740 556 740 556 740 410 c 2,19,-1
 740 -194 l 1,20,-1
 577 -194 l 1,0,-1
EndSplineSet
EndChar

StartChar: Eng
Encoding: 330 330 203
Width: 828
GlyphClass: 2
Flags: W
AnchorPoint: "Anchor-3" 414 700 basechar 0
AnchorPoint: "Anchor-0" 414 -195 basechar 0
LayerCount: 2
Fore
SplineSet
93 0 m 1,0,-1
 93 700 l 1,1,-1
 227 700 l 1,2,-1
 640 196 l 1,3,-1
 602 0 l 1,4,-1
 188 504 l 1,5,-1
 253 504 l 1,6,-1
 253 0 l 1,7,-1
 93 0 l 1,0,-1
489 -202 m 0,8,9
 434 -202 434 -202 384 -184.5 c 128,-1,10
 334 -167 334 -167 300 -135 c 1,11,-1
 375 -23 l 1,12,13
 396 -45 396 -45 422.5 -57.5 c 128,-1,14
 449 -70 449 -70 479 -70 c 0,15,16
 525 -70 525 -70 550 -40.5 c 128,-1,17
 575 -11 575 -11 575 47 c 2,18,-1
 575 700 l 1,19,-1
 735 700 l 1,20,-1
 735 63 l 2,21,22
 735 -8 735 -8 717 -58 c 128,-1,23
 699 -108 699 -108 666 -140 c 128,-1,24
 633 -172 633 -172 588 -187 c 128,-1,25
 543 -202 543 -202 489 -202 c 0,8,9
EndSplineSet
Substitution2: "'ss01' Style Set 1 lookup 52 subtable" Eng.ss01
Substitution2: "'c2sc' Capitals to Small Capitals lookup 47 subtable" eng.sc
Substitution2: "'locl' Localized Forms in Latin lookup 19 subtable" Eng.loclNSM
AlternateSubs2: "'aalt' Access All Alternates lookup 3 subtable" Eng.loclNSM eng.sc Eng.ss01
EndChar

StartChar: O
Encoding: 79 79 204
Width: 864
GlyphClass: 2
Flags: W
AnchorPoint: "Anchor-4" 626 700 basechar 0
AnchorPoint: "Anchor-3" 432 700 basechar 0
AnchorPoint: "Anchor-2" 530 0 basechar 0
AnchorPoint: "Anchor-1" 432 350 basechar 0
AnchorPoint: "Anchor-0" 432 0 basechar 0
LayerCount: 2
Fore
SplineSet
433 -12 m 0,0,1
 350 -12 350 -12 279.5 15 c 128,-1,2
 209 42 209 42 157.5 91 c 128,-1,3
 106 140 106 140 77.5 206 c 128,-1,4
 49 272 49 272 49 350 c 256,5,6
 49 428 49 428 77.5 494 c 128,-1,7
 106 560 106 560 158 609 c 128,-1,8
 210 658 210 658 280 685 c 128,-1,9
 350 712 350 712 432 712 c 0,10,11
 515 712 515 712 584.5 685 c 128,-1,12
 654 658 654 658 705.5 609 c 128,-1,13
 757 560 757 560 786 494.5 c 128,-1,14
 815 429 815 429 815 350 c 0,15,16
 815 272 815 272 786 205.5 c 128,-1,17
 757 139 757 139 705.5 90.5 c 128,-1,18
 654 42 654 42 584.5 15 c 128,-1,19
 515 -12 515 -12 433 -12 c 0,0,1
432 126 m 256,20,21
 479 126 479 126 518.5 142 c 128,-1,22
 558 158 558 158 588 188 c 128,-1,23
 618 218 618 218 634.5 259 c 128,-1,24
 651 300 651 300 651 350 c 256,25,26
 651 400 651 400 634.5 441 c 128,-1,27
 618 482 618 482 588.5 512 c 128,-1,28
 559 542 559 542 519 558 c 128,-1,29
 479 574 479 574 432 574 c 256,30,31
 385 574 385 574 345.5 558 c 128,-1,32
 306 542 306 542 276 512 c 128,-1,33
 246 482 246 482 229.5 441 c 128,-1,34
 213 400 213 400 213 350 c 0,35,36
 213 301 213 301 229.5 259.5 c 128,-1,37
 246 218 246 218 275.5 188 c 128,-1,38
 305 158 305 158 345 142 c 128,-1,39
 385 126 385 126 432 126 c 256,20,21
EndSplineSet
Substitution2: "'c2sc' Capitals to Small Capitals lookup 47 subtable" o.sc
Substitution2: "Single Substitution lookup 41 subtable" ordmasculine
AlternateSubs2: "'aalt' Access All Alternates lookup 3 subtable" ordmasculine o.sc
EndChar

StartChar: uni0222
Encoding: 546 546 205
Width: 772
GlyphClass: 1
Flags: W
LayerCount: 2
Fore
SplineSet
386 -10 m 0,0,1
 283 -10 283 -10 207 19 c 128,-1,2
 131 48 131 48 89.5 102 c 128,-1,3
 48 156 48 156 48 230 c 0,4,5
 48 301 48 301 89.5 353 c 128,-1,6
 131 405 131 405 207 434 c 128,-1,7
 283 463 283 463 386 463 c 0,8,9
 490 463 490 463 565.5 434 c 128,-1,10
 641 405 641 405 682.5 353 c 128,-1,11
 724 301 724 301 724 230 c 0,12,13
 724 156 724 156 682.5 102 c 128,-1,14
 641 48 641 48 565.5 19 c 128,-1,15
 490 -10 490 -10 386 -10 c 0,0,1
386 115 m 0,16,17
 469 115 469 115 517 148 c 128,-1,18
 565 181 565 181 565 238 c 0,19,20
 565 294 565 294 517 326.5 c 128,-1,21
 469 359 469 359 386 359 c 0,22,23
 331 359 331 359 290.5 344.5 c 128,-1,24
 250 330 250 330 229 302.5 c 128,-1,25
 208 275 208 275 208 238 c 0,26,27
 208 200 208 200 229 172.5 c 128,-1,28
 250 145 250 145 290.5 130 c 128,-1,29
 331 115 331 115 386 115 c 0,16,17
386 370 m 0,30,31
 289 370 289 370 220 395.5 c 128,-1,32
 151 421 151 421 114 470 c 128,-1,33
 77 519 77 519 77 588 c 2,34,-1
 77 700 l 1,35,-1
 238 700 l 1,36,-1
 238 589 l 2,37,38
 238 534 238 534 277 503.5 c 128,-1,39
 316 473 316 473 386 473 c 256,40,41
 456 473 456 473 495 503.5 c 128,-1,42
 534 534 534 534 534 589 c 2,43,-1
 534 700 l 1,44,-1
 695 700 l 1,45,-1
 695 588 l 2,46,47
 695 519 695 519 658 470 c 128,-1,48
 621 421 621 421 551.5 395.5 c 128,-1,49
 482 370 482 370 386 370 c 0,30,31
EndSplineSet
Substitution2: "'c2sc' Capitals to Small Capitals lookup 47 subtable" uni0223.sc
Substitution2: "'aalt' Access All Alternates lookup 2 subtable" uni0223.sc
EndChar

StartChar: Ohorn
Encoding: 416 416 224
Width: 864
GlyphClass: 2
Flags: W
AnchorPoint: "Anchor-3" 432 700 basechar 0
AnchorPoint: "Anchor-0" 432 0 basechar 0
LayerCount: 2
Fore
SplineSet
432 -12 m 0,0,1
 350 -12 350 -12 279.5 15 c 128,-1,2
 209 42 209 42 157.5 91 c 128,-1,3
 106 140 106 140 77.5 206 c 128,-1,4
 49 272 49 272 49 350 c 0,5,6
 49 429 49 429 77.5 495 c 128,-1,7
 106 561 106 561 158.5 609.5 c 128,-1,8
 211 658 211 658 282.5 685 c 128,-1,9
 354 712 354 712 439 712 c 0,10,11
 495 712 495 712 540 705 c 128,-1,12
 585 698 585 698 622 698 c 0,13,14
 660 698 660 698 682 715 c 128,-1,15
 704 732 704 732 704 764 c 0,16,17
 704 782 704 782 698 797 c 128,-1,18
 692 812 692 812 684 824 c 1,19,-1
 776 858 l 1,20,21
 791 837 791 837 799.5 812 c 128,-1,22
 808 787 808 787 808 758 c 0,23,24
 808 684 808 684 756.5 644 c 128,-1,25
 705 604 705 604 615 604 c 0,26,27
 577 604 577 604 540 609 c 128,-1,28
 503 614 503 614 468 618 c 1,29,-1
 659 642 l 1,30,31
 705 613 705 613 740 569 c 128,-1,32
 775 525 775 525 795 469.5 c 128,-1,33
 815 414 815 414 815 350 c 0,34,35
 815 272 815 272 786 205.5 c 128,-1,36
 757 139 757 139 705.5 90.5 c 128,-1,37
 654 42 654 42 584.5 15 c 128,-1,38
 515 -12 515 -12 432 -12 c 0,0,1
432 126 m 256,39,40
 479 126 479 126 518.5 142.5 c 128,-1,41
 558 159 558 159 588 188.5 c 128,-1,42
 618 218 618 218 634.5 259.5 c 128,-1,43
 651 301 651 301 651 350 c 256,44,45
 651 399 651 399 634.5 440.5 c 128,-1,46
 618 482 618 482 588 511.5 c 128,-1,47
 558 541 558 541 518.5 557.5 c 128,-1,48
 479 574 479 574 432 574 c 256,49,50
 385 574 385 574 345 558 c 128,-1,51
 305 542 305 542 275.5 512 c 128,-1,52
 246 482 246 482 229.5 441 c 128,-1,53
 213 400 213 400 213 350 c 0,54,55
 213 301 213 301 229.5 259.5 c 128,-1,56
 246 218 246 218 275.5 188 c 128,-1,57
 305 158 305 158 345 142 c 128,-1,58
 385 126 385 126 432 126 c 256,39,40
EndSplineSet
Substitution2: "'c2sc' Capitals to Small Capitals lookup 47 subtable" ohorn.sc
Substitution2: "'aalt' Access All Alternates lookup 2 subtable" ohorn.sc
EndChar

StartChar: uniA7B6
Encoding: 42934 42934 235
Width: 1070
GlyphClass: 2
Flags: W
AnchorPoint: "Anchor-3" 536 700 basechar 0
AnchorPoint: "Anchor-0" 536 0 basechar 0
LayerCount: 2
Fore
SplineSet
330 -10 m 0,0,1
 257 -10 257 -10 205.5 20.5 c 128,-1,2
 154 51 154 51 122 103.5 c 128,-1,3
 90 156 90 156 74.5 221 c 128,-1,4
 59 286 59 286 59 357 c 0,5,6
 59 453 59 453 85 545 c 128,-1,7
 111 637 111 637 157 700 c 1,8,-1
 323 700 l 1,9,10
 292 655 292 655 269.5 596 c 128,-1,11
 247 537 247 537 234.5 473 c 128,-1,12
 222 409 222 409 222 349 c 256,13,14
 222 289 222 289 236 238.5 c 128,-1,15
 250 188 250 188 279 157.5 c 128,-1,16
 308 127 308 127 353 127 c 0,17,18
 384 127 384 127 406.5 143.5 c 128,-1,19
 429 160 429 160 441 193.5 c 128,-1,20
 453 227 453 227 453 276 c 2,21,-1
 453 450 l 1,22,-1
 615 450 l 1,23,-1
 615 276 l 2,24,25
 615 227 615 227 627 193.5 c 128,-1,26
 639 160 639 160 661.5 143.5 c 128,-1,27
 684 127 684 127 716 127 c 0,28,29
 762 127 762 127 790.5 157.5 c 128,-1,30
 819 188 819 188 832 239 c 128,-1,31
 845 290 845 290 845 350 c 0,32,33
 845 409 845 409 833 472.5 c 128,-1,34
 821 536 821 536 799.5 595 c 128,-1,35
 778 654 778 654 747 700 c 1,36,-1
 912 700 l 1,37,38
 943 658 943 658 965 602 c 128,-1,39
 987 546 987 546 999 483 c 128,-1,40
 1011 420 1011 420 1011 356 c 0,41,42
 1011 286 1011 286 995.5 221 c 128,-1,43
 980 156 980 156 947.5 103.5 c 128,-1,44
 915 51 915 51 863 20.5 c 128,-1,45
 811 -10 811 -10 738 -10 c 0,46,47
 667 -10 667 -10 612.5 20 c 128,-1,48
 558 50 558 50 527.5 104.5 c 128,-1,49
 497 159 497 159 494 232 c 1,50,-1
 574 232 l 1,51,52
 572 159 572 159 541 104.5 c 128,-1,53
 510 50 510 50 456 20 c 128,-1,54
 402 -10 402 -10 330 -10 c 0,0,1
EndSplineSet
Substitution2: "'c2sc' Capitals to Small Capitals lookup 47 subtable" uniA7B7.sc
Substitution2: "'aalt' Access All Alternates lookup 2 subtable" uniA7B7.sc
EndChar

StartChar: uni01EA
Encoding: 490 490 236
Width: 864
GlyphClass: 2
Flags: W
AnchorPoint: "Anchor-3" 432 700 basechar 0
LayerCount: 2
Fore
SplineSet
453 -232 m 0,0,1
 387 -232 387 -232 351 -201 c 128,-1,2
 315 -170 315 -170 315 -120 c 0,3,4
 315 -88 315 -88 330.5 -58.5 c 128,-1,5
 346 -29 346 -29 380.5 -3.5 c 128,-1,6
 415 22 415 22 468 41 c 1,7,-1
 477 -9 l 1,8,9
 463 -10 463 -10 452 -11 c 128,-1,10
 441 -12 441 -12 432 -12 c 0,11,12
 350 -12 350 -12 280 15 c 128,-1,13
 210 42 210 42 158 90.5 c 128,-1,14
 106 139 106 139 77.5 205.5 c 128,-1,15
 49 272 49 272 49 350 c 0,16,17
 49 429 49 429 77.5 495 c 128,-1,18
 106 561 106 561 158 609.5 c 128,-1,19
 210 658 210 658 280 685 c 128,-1,20
 350 712 350 712 432 712 c 0,21,22
 515 712 515 712 584.5 685 c 128,-1,23
 654 658 654 658 705.5 609.5 c 128,-1,24
 757 561 757 561 786 495 c 128,-1,25
 815 429 815 429 815 350 c 0,26,27
 815 262 815 262 780 192 c 128,-1,28
 745 122 745 122 685.5 75 c 128,-1,29
 626 28 626 28 552 6 c 0,30,31
 505 -8 505 -8 474 -26 c 128,-1,32
 443 -44 443 -44 428 -64.5 c 128,-1,33
 413 -85 413 -85 413 -107 c 0,34,35
 413 -128 413 -128 428.5 -140.5 c 128,-1,36
 444 -153 444 -153 471 -153 c 0,37,38
 487 -153 487 -153 503 -148.5 c 128,-1,39
 519 -144 519 -144 531 -138 c 1,40,-1
 554 -209 l 1,41,42
 535 -219 535 -219 508 -225.5 c 128,-1,43
 481 -232 481 -232 453 -232 c 0,0,1
432 126 m 256,44,45
 479 126 479 126 518.5 142 c 128,-1,46
 558 158 558 158 588 188 c 128,-1,47
 618 218 618 218 634.5 259.5 c 128,-1,48
 651 301 651 301 651 350 c 0,49,50
 651 400 651 400 634.5 441 c 128,-1,51
 618 482 618 482 588 512 c 128,-1,52
 558 542 558 542 518.5 558 c 128,-1,53
 479 574 479 574 432 574 c 256,54,55
 385 574 385 574 345 558 c 128,-1,56
 305 542 305 542 275.5 512 c 128,-1,57
 246 482 246 482 229.5 441 c 128,-1,58
 213 400 213 400 213 350 c 0,59,60
 213 301 213 301 229.5 259.5 c 128,-1,61
 246 218 246 218 275.5 188 c 128,-1,62
 305 158 305 158 345 142 c 128,-1,63
 385 126 385 126 432 126 c 256,44,45
EndSplineSet
Substitution2: "'c2sc' Capitals to Small Capitals lookup 47 subtable" uni01EB.sc
Substitution2: "'locl' Localized Forms in Latin lookup 17 subtable" uni01EA.loclNAV
AlternateSubs2: "'aalt' Access All Alternates lookup 3 subtable" uni01EA.loclNAV uni01EB.sc
EndChar

StartChar: uni0186
Encoding: 390 390 238
Width: 744
GlyphClass: 2
Flags: W
AnchorPoint: "Anchor-3" 321 700 basechar 0
AnchorPoint: "Anchor-2" 397 0 basechar 0
AnchorPoint: "Anchor-1" 566 342 basechar 0
AnchorPoint: "Anchor-0" 321 0 basechar 0
LayerCount: 2
Fore
SplineSet
315 712 m 0,0,1
 397 712 397 712 466.5 685.5 c 128,-1,2
 536 659 536 659 587 610 c 128,-1,3
 638 561 638 561 666 495 c 128,-1,4
 694 429 694 429 694 350 c 256,5,6
 694 271 694 271 666 205 c 128,-1,7
 638 139 638 139 586.5 90 c 128,-1,8
 535 41 535 41 465.5 14.5 c 128,-1,9
 396 -12 396 -12 315 -12 c 0,10,11
 224 -12 224 -12 150 20 c 128,-1,12
 76 52 76 52 27 112 c 1,13,-1
 130 208 l 1,14,15
 166 167 166 167 210.5 146.5 c 128,-1,16
 255 126 255 126 307 126 c 0,17,18
 356 126 356 126 397 142 c 128,-1,19
 438 158 438 158 468 188 c 128,-1,20
 498 218 498 218 514.5 259 c 128,-1,21
 531 300 531 300 531 350 c 256,22,23
 531 400 531 400 514.5 441 c 128,-1,24
 498 482 498 482 468 512 c 128,-1,25
 438 542 438 542 397 558 c 128,-1,26
 356 574 356 574 307 574 c 0,27,28
 255 574 255 574 210.5 553.5 c 128,-1,29
 166 533 166 533 130 491 c 1,30,-1
 27 587 l 1,31,32
 76 648 76 648 150 680 c 128,-1,33
 224 712 224 712 315 712 c 0,0,1
EndSplineSet
Substitution2: "'c2sc' Capitals to Small Capitals lookup 47 subtable" uni0254.sc
Substitution2: "'aalt' Access All Alternates lookup 2 subtable" uni0254.sc
EndChar

StartChar: OE
Encoding: 338 338 245
Width: 1156
GlyphClass: 2
Flags: W
AnchorPoint: "Anchor-3" 638 700 basechar 0
AnchorPoint: "Anchor-0" 638 0 basechar 0
LayerCount: 2
Fore
SplineSet
435 0 m 2,0,1
 321 0 321 0 234 43.5 c 128,-1,2
 147 87 147 87 98 165.5 c 128,-1,3
 49 244 49 244 49 349 c 0,4,5
 49 456 49 456 98 534.5 c 128,-1,6
 147 613 147 613 234 656.5 c 128,-1,7
 321 700 321 700 435 700 c 2,8,-1
 599 700 l 1,9,-1
 599 567 l 1,10,-1
 443 567 l 2,11,12
 374 567 374 567 322 540.5 c 128,-1,13
 270 514 270 514 241.5 465.5 c 128,-1,14
 213 417 213 417 213 349 c 0,15,16
 213 283 213 283 241.5 234.5 c 128,-1,17
 270 186 270 186 322 159.5 c 128,-1,18
 374 133 374 133 443 133 c 2,19,-1
 599 133 l 1,20,-1
 599 0 l 1,21,-1
 435 0 l 2,0,1
558 0 m 1,22,-1
 558 700 l 1,23,-1
 1087 700 l 1,24,-1
 1087 570 l 1,25,-1
 719 570 l 1,26,-1
 719 130 l 1,27,-1
 1100 130 l 1,28,-1
 1100 0 l 1,29,-1
 558 0 l 1,22,-1
707 292 m 1,30,-1
 707 418 l 1,31,-1
 1044 418 l 1,32,-1
 1044 292 l 1,33,-1
 707 292 l 1,30,-1
EndSplineSet
Substitution2: "'c2sc' Capitals to Small Capitals lookup 47 subtable" oe.sc
Substitution2: "'aalt' Access All Alternates lookup 2 subtable" oe.sc
EndChar

StartChar: P
Encoding: 80 80 246
Width: 752
GlyphClass: 2
Flags: W
AnchorPoint: "Anchor-3" 376 700 basechar 0
AnchorPoint: "Anchor-0" 376 0 basechar 0
LayerCount: 2
Fore
SplineSet
93 0 m 1,0,-1
 93 700 l 1,1,-1
 396 700 l 2,2,3
 490 700 490 700 558 669.5 c 128,-1,4
 626 639 626 639 663 582 c 128,-1,5
 700 525 700 525 700 446 c 0,6,7
 700 368 700 368 663 311 c 128,-1,8
 626 254 626 254 558 223.5 c 128,-1,9
 490 193 490 193 396 193 c 2,10,-1
 183 193 l 1,11,-1
 255 266 l 1,12,-1
 255 0 l 1,13,-1
 93 0 l 1,0,-1
255 248 m 1,14,-1
 183 325 l 1,15,-1
 387 325 l 2,16,17
 462 325 462 325 499 357 c 128,-1,18
 536 389 536 389 536 446 c 0,19,20
 536 504 536 504 499 536 c 128,-1,21
 462 568 462 568 387 568 c 2,22,-1
 183 568 l 1,23,-1
 255 645 l 1,24,-1
 255 248 l 1,14,-1
EndSplineSet
Substitution2: "'c2sc' Capitals to Small Capitals lookup 47 subtable" p.sc
Substitution2: "'aalt' Access All Alternates lookup 2 subtable" p.sc
EndChar

StartChar: uni01A4
Encoding: 420 420 249
Width: 951
GlyphClass: 2
Flags: W
AnchorPoint: "Anchor-3" 575 700 basechar 0
AnchorPoint: "Anchor-0" 575 0 basechar 0
LayerCount: 2
Fore
SplineSet
97 350 m 1,0,1
 63 388 63 388 46.5 435 c 128,-1,2
 30 482 30 482 33.5 528.5 c 128,-1,3
 37 575 37 575 61 614 c 128,-1,4
 85 653 85 653 131.5 676.5 c 128,-1,5
 178 700 178 700 247 700 c 2,6,-1
 300 700 l 1,7,-1
 300 568 l 1,8,-1
 246 568 l 2,9,10
 218 568 218 568 202 554 c 128,-1,11
 186 540 186 540 182 518 c 128,-1,12
 178 496 178 496 186 470 c 128,-1,13
 194 444 194 444 214 418 c 1,14,-1
 97 350 l 1,0,1
292 0 m 1,15,-1
 292 700 l 1,16,-1
 595 700 l 2,17,18
 689 700 689 700 757 669.5 c 128,-1,19
 825 639 825 639 862 582 c 128,-1,20
 899 525 899 525 899 446 c 0,21,22
 899 368 899 368 862 311 c 128,-1,23
 825 254 825 254 757 223.5 c 128,-1,24
 689 193 689 193 595 193 c 2,25,-1
 382 193 l 1,26,-1
 454 266 l 1,27,-1
 454 0 l 1,28,-1
 292 0 l 1,15,-1
454 248 m 1,29,-1
 382 325 l 1,30,-1
 586 325 l 2,31,32
 661 325 661 325 698 357 c 128,-1,33
 735 389 735 389 735 446 c 0,34,35
 735 504 735 504 698 536 c 128,-1,36
 661 568 661 568 586 568 c 2,37,-1
 382 568 l 1,38,-1
 454 645 l 1,39,-1
 454 248 l 1,29,-1
EndSplineSet
Substitution2: "'c2sc' Capitals to Small Capitals lookup 47 subtable" uni01A5.sc
Substitution2: "'aalt' Access All Alternates lookup 2 subtable" uni01A5.sc
EndChar

StartChar: Thorn
Encoding: 222 222 250
Width: 752
GlyphClass: 1
Flags: W
LayerCount: 2
Fore
SplineSet
221 115 m 1,0,-1
 221 247 l 1,1,-1
 387 247 l 2,2,3
 462 247 462 247 499 279 c 128,-1,4
 536 311 536 311 536 369 c 256,5,6
 536 427 536 427 499 459 c 128,-1,7
 462 491 462 491 387 491 c 2,8,-1
 221 491 l 1,9,-1
 221 623 l 1,10,-1
 396 623 l 2,11,12
 490 623 490 623 558 592 c 128,-1,13
 626 561 626 561 663 504.5 c 128,-1,14
 700 448 700 448 700 369 c 0,15,16
 700 291 700 291 663 234 c 128,-1,17
 626 177 626 177 558 146 c 128,-1,18
 490 115 490 115 396 115 c 2,19,-1
 221 115 l 1,0,-1
93 0 m 1,20,-1
 93 700 l 1,21,-1
 255 700 l 1,22,-1
 255 0 l 1,23,-1
 93 0 l 1,20,-1
EndSplineSet
Substitution2: "'c2sc' Capitals to Small Capitals lookup 47 subtable" thorn.sc
Substitution2: "'aalt' Access All Alternates lookup 2 subtable" thorn.sc
EndChar

StartChar: uni2C63
Encoding: 11363 11363 251
Width: 758
GlyphClass: 2
Flags: W
LayerCount: 2
Fore
SplineSet
99 0 m 1,0,-1
 99 700 l 1,1,-1
 402 700 l 2,2,3
 496 700 496 700 564.5 669.5 c 128,-1,4
 633 639 633 639 669.5 582 c 128,-1,5
 706 525 706 525 706 446 c 0,6,7
 706 368 706 368 669.5 311 c 128,-1,8
 633 254 633 254 564.5 223.5 c 128,-1,9
 496 193 496 193 402 193 c 2,10,-1
 189 193 l 1,11,-1
 262 266 l 1,12,-1
 262 0 l 1,13,-1
 99 0 l 1,0,-1
11 394 m 1,14,-1
 11 501 l 1,15,-1
 390 501 l 1,16,-1
 390 394 l 1,17,-1
 11 394 l 1,14,-1
262 248 m 1,18,-1
 189 321 l 1,19,-1
 394 321 l 2,20,21
 467 321 467 321 505 354 c 128,-1,22
 543 387 543 387 543 446 c 0,23,24
 543 507 543 507 505 539.5 c 128,-1,25
 467 572 467 572 394 572 c 2,26,-1
 189 572 l 1,27,-1
 262 645 l 1,28,-1
 262 248 l 1,18,-1
EndSplineSet
Substitution2: "'c2sc' Capitals to Small Capitals lookup 47 subtable" uni1D7D.sc
Substitution2: "'aalt' Access All Alternates lookup 2 subtable" uni1D7D.sc
EndChar

StartChar: Q
Encoding: 81 81 252
Width: 864
GlyphClass: 2
Flags: W
AnchorPoint: "Anchor-3" 433 700 basechar 0
LayerCount: 2
Fore
SplineSet
432 -12 m 0,0,1
 350 -12 350 -12 279.5 15 c 128,-1,2
 209 42 209 42 157.5 91 c 128,-1,3
 106 140 106 140 77.5 206 c 128,-1,4
 49 272 49 272 49 350 c 256,5,6
 49 428 49 428 77.5 494 c 128,-1,7
 106 560 106 560 158 609 c 128,-1,8
 210 658 210 658 280 685 c 128,-1,9
 350 712 350 712 432 712 c 0,10,11
 515 712 515 712 584.5 685 c 128,-1,12
 654 658 654 658 705.5 609.5 c 128,-1,13
 757 561 757 561 786 495 c 128,-1,14
 815 429 815 429 815 350 c 0,15,16
 815 272 815 272 786 205.5 c 128,-1,17
 757 139 757 139 705.5 90.5 c 128,-1,18
 654 42 654 42 584.5 15 c 128,-1,19
 515 -12 515 -12 432 -12 c 0,0,1
661 -161 m 0,20,21
 620 -161 620 -161 583.5 -152 c 128,-1,22
 547 -143 547 -143 511.5 -123 c 128,-1,23
 476 -103 476 -103 437.5 -69 c 128,-1,24
 399 -35 399 -35 354 15 c 1,25,-1
 524 58 l 1,26,27
 551 21 551 21 574 -1 c 128,-1,28
 597 -23 597 -23 618.5 -32 c 128,-1,29
 640 -41 640 -41 664 -41 c 0,30,31
 728 -41 728 -41 778 11 c 1,32,-1
 850 -75 l 1,33,34
 779 -161 779 -161 661 -161 c 0,20,21
432 126 m 256,35,36
 479 126 479 126 518.5 142 c 128,-1,37
 558 158 558 158 588 188 c 128,-1,38
 618 218 618 218 634.5 259.5 c 128,-1,39
 651 301 651 301 651 350 c 0,40,41
 651 400 651 400 634.5 441 c 128,-1,42
 618 482 618 482 588 512 c 128,-1,43
 558 542 558 542 518.5 558 c 128,-1,44
 479 574 479 574 432 574 c 256,45,46
 385 574 385 574 345 558 c 128,-1,47
 305 542 305 542 275.5 512 c 128,-1,48
 246 482 246 482 229.5 441 c 128,-1,49
 213 400 213 400 213 350 c 0,50,51
 213 301 213 301 229.5 259.5 c 128,-1,52
 246 218 246 218 275.5 188 c 128,-1,53
 305 158 305 158 345 142 c 128,-1,54
 385 126 385 126 432 126 c 256,35,36
EndSplineSet
Substitution2: "'ss01' Style Set 1 lookup 52 subtable" Q.ss01
Substitution2: "'c2sc' Capitals to Small Capitals lookup 47 subtable" q.sc
AlternateSubs2: "'aalt' Access All Alternates lookup 3 subtable" q.sc Q.ss01
EndChar

StartChar: uni024A
Encoding: 586 586 253
Width: 899
GlyphClass: 2
Flags: W
AnchorPoint: "Anchor-4" 624 700 basechar 0
AnchorPoint: "Anchor-3" 430 700 basechar 0
AnchorPoint: "Anchor-2" 528 0 basechar 0
AnchorPoint: "Anchor-1" 430 350 basechar 0
AnchorPoint: "Anchor-0" 430 0 basechar 0
LayerCount: 2
Fore
SplineSet
408 -12 m 0,0,1
 332 -12 332 -12 266.5 15 c 128,-1,2
 201 42 201 42 152.5 91 c 128,-1,3
 104 140 104 140 76.5 206 c 128,-1,4
 49 272 49 272 49 350 c 256,5,6
 49 428 49 428 76.5 494 c 128,-1,7
 104 560 104 560 152.5 609 c 128,-1,8
 201 658 201 658 266.5 685 c 128,-1,9
 332 712 332 712 408 712 c 0,10,11
 483 712 483 712 544.5 685 c 128,-1,12
 606 658 606 658 651.5 609.5 c 128,-1,13
 697 561 697 561 721.5 495 c 128,-1,14
 746 429 746 429 746 350 c 0,15,16
 746 272 746 272 721.5 205.5 c 128,-1,17
 697 139 697 139 651.5 90.5 c 128,-1,18
 606 42 606 42 544.5 15 c 128,-1,19
 483 -12 483 -12 408 -12 c 0,0,1
432 126 m 256,20,21
 480 126 480 126 520 142 c 128,-1,22
 560 158 560 158 589 188 c 128,-1,23
 618 218 618 218 634.5 259.5 c 128,-1,24
 651 301 651 301 651 350 c 0,25,26
 651 400 651 400 635 440.5 c 128,-1,27
 619 481 619 481 589.5 511.5 c 128,-1,28
 560 542 560 542 520 558 c 128,-1,29
 480 574 480 574 432 574 c 256,30,31
 384 574 384 574 344 558 c 128,-1,32
 304 542 304 542 274.5 511.5 c 128,-1,33
 245 481 245 481 229 440 c 128,-1,34
 213 399 213 399 213 350 c 256,35,36
 213 301 213 301 229 260 c 128,-1,37
 245 219 245 219 274.5 188.5 c 128,-1,38
 304 158 304 158 344 142 c 128,-1,39
 384 126 384 126 432 126 c 256,20,21
944 -185 m 1,40,41
 893 -205 893 -205 840 -204.5 c 128,-1,42
 787 -204 787 -204 743 -183 c 128,-1,43
 699 -162 699 -162 672 -119.5 c 128,-1,44
 645 -77 645 -77 645 -13 c 2,45,-1
 645 152 l 1,46,-1
 664 351 l 1,47,-1
 648 558 l 1,48,-1
 645 700 l 1,49,-1
 807 700 l 1,50,-1
 807 -10 l 2,51,52
 807 -38 807 -38 821.5 -54 c 128,-1,53
 836 -70 836 -70 859 -73.5 c 128,-1,54
 882 -77 882 -77 906 -68 c 1,55,-1
 944 -185 l 1,40,41
EndSplineSet
Substitution2: "'c2sc' Capitals to Small Capitals lookup 47 subtable" uni024B.sc
Substitution2: "'aalt' Access All Alternates lookup 2 subtable" uni024B.sc
EndChar

StartChar: R
Encoding: 82 82 254
Width: 755
GlyphClass: 2
Flags: W
AnchorPoint: "Anchor-3" 376 700 basechar 0
AnchorPoint: "Anchor-0" 376 0 basechar 0
LayerCount: 2
Fore
SplineSet
93 0 m 1,0,-1
 93 700 l 1,1,-1
 392 700 l 2,2,3
 538 700 538 700 619 632.5 c 128,-1,4
 700 565 700 565 700 446 c 0,5,6
 700 368 700 368 663 311.5 c 128,-1,7
 626 255 626 255 558 225 c 128,-1,8
 490 195 490 195 396 195 c 2,9,-1
 183 195 l 1,10,-1
 255 266 l 1,11,-1
 255 0 l 1,12,-1
 93 0 l 1,0,-1
538 0 m 1,13,-1
 363 254 l 1,14,-1
 536 254 l 1,15,-1
 713 0 l 1,16,-1
 538 0 l 1,13,-1
255 248 m 1,17,-1
 183 324 l 1,18,-1
 387 324 l 2,19,20
 462 324 462 324 499 356.5 c 128,-1,21
 536 389 536 389 536 446 c 0,22,23
 536 504 536 504 499 536 c 128,-1,24
 462 568 462 568 387 568 c 2,25,-1
 183 568 l 1,26,-1
 255 645 l 1,27,-1
 255 248 l 1,17,-1
EndSplineSet
Substitution2: "'c2sc' Capitals to Small Capitals lookup 47 subtable" r.sc
Substitution2: "'aalt' Access All Alternates lookup 2 subtable" r.sc
EndChar

StartChar: uni024C
Encoding: 588 588 264
Width: 755
GlyphClass: 2
Flags: W
AnchorPoint: "Anchor-3" 376 700 basechar 0
AnchorPoint: "Anchor-0" 376 0 basechar 0
LayerCount: 2
Fore
SplineSet
93 0 m 1,0,-1
 93 700 l 1,1,-1
 392 700 l 2,2,3
 538 700 538 700 619 632.5 c 128,-1,4
 700 565 700 565 700 446 c 0,5,6
 700 368 700 368 663 311.5 c 128,-1,7
 626 255 626 255 558 225 c 128,-1,8
 490 195 490 195 396 195 c 2,9,-1
 183 195 l 1,10,-1
 255 266 l 1,11,-1
 255 0 l 1,12,-1
 93 0 l 1,0,-1
538 0 m 1,13,-1
 363 254 l 1,14,-1
 536 254 l 1,15,-1
 713 0 l 1,16,-1
 538 0 l 1,13,-1
255 248 m 1,17,-1
 183 324 l 1,18,-1
 387 324 l 2,19,20
 462 324 462 324 499 356.5 c 128,-1,21
 536 389 536 389 536 446 c 0,22,23
 536 504 536 504 499 536 c 128,-1,24
 462 568 462 568 387 568 c 2,25,-1
 183 568 l 1,26,-1
 255 645 l 1,27,-1
 255 248 l 1,17,-1
5 216 m 1,28,-1
 5 324 l 1,29,-1
 368 324 l 1,30,-1
 368 216 l 1,31,-1
 5 216 l 1,28,-1
EndSplineSet
Substitution2: "'c2sc' Capitals to Small Capitals lookup 47 subtable" uni024D.sc
Substitution2: "'aalt' Access All Alternates lookup 2 subtable" uni024D.sc
EndChar

StartChar: uni2C64
Encoding: 11364 11364 265
Width: 775
GlyphClass: 2
Flags: W
AnchorPoint: "Anchor-3" 396 700 basechar 0
AnchorPoint: "Anchor-0" 396 0 basechar 0
LayerCount: 2
Fore
SplineSet
438 -169 m 1,0,1
 385 -197 385 -197 327 -203 c 128,-1,2
 269 -209 269 -209 218 -190 c 128,-1,3
 167 -171 167 -171 135.5 -127.5 c 128,-1,4
 104 -84 104 -84 104 -13 c 2,5,-1
 104 700 l 1,6,-1
 406 700 l 2,7,8
 501 700 501 700 569 669.5 c 128,-1,9
 637 639 637 639 674 582 c 128,-1,10
 711 525 711 525 711 446 c 0,11,12
 711 368 711 368 674 311.5 c 128,-1,13
 637 255 637 255 569 225 c 128,-1,14
 501 195 501 195 406 195 c 2,15,-1
 218 195 l 1,16,-1
 266 246 l 1,17,-1
 266 -10 l 2,18,19
 266 -35 266 -35 277.5 -50.5 c 128,-1,20
 289 -66 289 -66 307 -71.5 c 128,-1,21
 325 -77 325 -77 347.5 -73 c 128,-1,22
 370 -69 370 -69 393 -56 c 1,23,-1
 438 -169 l 1,0,1
549 0 m 1,24,-1
 374 254 l 1,25,-1
 547 254 l 1,26,-1
 724 0 l 1,27,-1
 549 0 l 1,24,-1
266 268 m 1,28,-1
 218 324 l 1,29,-1
 398 324 l 2,30,31
 472 324 472 324 509.5 356.5 c 128,-1,32
 547 389 547 389 547 446 c 0,33,34
 547 504 547 504 509.5 536 c 128,-1,35
 472 568 472 568 398 568 c 2,36,-1
 218 568 l 1,37,-1
 266 625 l 1,38,-1
 266 268 l 1,28,-1
EndSplineSet
Substitution2: "'c2sc' Capitals to Small Capitals lookup 47 subtable" uni027D.sc
Substitution2: "'aalt' Access All Alternates lookup 2 subtable" uni027D.sc
EndChar

StartChar: S
Encoding: 83 83 266
Width: 658
GlyphClass: 2
Flags: W
AnchorPoint: "Anchor-3" 335 700 basechar 0
AnchorPoint: "Anchor-1" 335 350 basechar 0
AnchorPoint: "Anchor-0" 335 0 basechar 0
LayerCount: 2
Fore
SplineSet
323 -12 m 0,0,1
 239 -12 239 -12 162 10.5 c 128,-1,2
 85 33 85 33 38 69 c 1,3,-1
 93 191 l 1,4,5
 138 159 138 159 199.5 138.5 c 128,-1,6
 261 118 261 118 324 118 c 0,7,8
 372 118 372 118 401.5 127.5 c 128,-1,9
 431 137 431 137 445 154 c 128,-1,10
 459 171 459 171 459 193 c 0,11,12
 459 221 459 221 437 237.5 c 128,-1,13
 415 254 415 254 379 264.5 c 128,-1,14
 343 275 343 275 299.5 284.5 c 128,-1,15
 256 294 256 294 212.5 308 c 128,-1,16
 169 322 169 322 133 344 c 128,-1,17
 97 366 97 366 74.5 402 c 128,-1,18
 52 438 52 438 52 494 c 0,19,20
 52 554 52 554 84.5 603.5 c 128,-1,21
 117 653 117 653 182.5 682.5 c 128,-1,22
 248 712 248 712 347 712 c 0,23,24
 413 712 413 712 477 696.5 c 128,-1,25
 541 681 541 681 590 650 c 1,26,-1
 540 527 l 1,27,28
 491 555 491 555 442 568.5 c 128,-1,29
 393 582 393 582 346 582 c 256,30,31
 299 582 299 582 269 571 c 128,-1,32
 239 560 239 560 226 542.5 c 128,-1,33
 213 525 213 525 213 502 c 0,34,35
 213 475 213 475 235 458.5 c 128,-1,36
 257 442 257 442 293 432 c 128,-1,37
 329 422 329 422 372.5 412 c 128,-1,38
 416 402 416 402 459.5 389 c 128,-1,39
 503 376 503 376 539 354 c 128,-1,40
 575 332 575 332 597.5 296 c 128,-1,41
 620 260 620 260 620 205 c 0,42,43
 620 146 620 146 587 97 c 128,-1,44
 554 48 554 48 488.5 18 c 128,-1,45
 423 -12 423 -12 323 -12 c 0,0,1
EndSplineSet
Substitution2: "'c2sc' Capitals to Small Capitals lookup 47 subtable" s.sc
Substitution2: "'aalt' Access All Alternates lookup 2 subtable" s.sc
EndChar

StartChar: uni1E9E
Encoding: 7838 7838 277
Width: 799
GlyphClass: 1
Flags: W
LayerCount: 2
Fore
SplineSet
487 -12 m 0,0,1
 445 -12 445 -12 408.5 -6 c 128,-1,2
 372 0 372 0 341 12 c 1,3,-1
 365 140 l 1,4,5
 386 130 386 130 413 124 c 128,-1,6
 440 118 440 118 467 118 c 0,7,8
 524 118 524 118 555 142 c 128,-1,9
 586 166 586 166 586 213 c 0,10,11
 586 259 586 259 554.5 283 c 128,-1,12
 523 307 523 307 468 307 c 0,13,14
 448 307 448 307 429 304 c 128,-1,15
 410 301 410 301 394 296 c 1,16,-1
 366 367 l 1,17,-1
 598 634 l 1,18,-1
 613 528 l 1,19,20
 574 555 574 555 530 568.5 c 128,-1,21
 486 582 486 582 435 582 c 0,22,23
 343 582 343 582 296 531.5 c 128,-1,24
 249 481 249 481 249 388 c 2,25,-1
 249 0 l 1,26,-1
 87 0 l 1,27,-1
 87 392 l 2,28,29
 87 491 87 491 127 562.5 c 128,-1,30
 167 634 167 634 244 673 c 128,-1,31
 321 712 321 712 430 712 c 0,32,33
 474 712 474 712 519.5 704.5 c 128,-1,34
 565 697 565 697 607 682 c 128,-1,35
 649 667 649 667 680 645 c 1,36,-1
 680 546 l 1,37,-1
 488 327 l 1,38,-1
 423 416 l 1,39,40
 440 420 440 420 459 422 c 128,-1,41
 478 424 478 424 499 424 c 0,42,43
 567 424 567 424 624.5 398.5 c 128,-1,44
 682 373 682 373 716 324.5 c 128,-1,45
 750 276 750 276 750 206 c 256,46,47
 750 136 750 136 716 87.5 c 128,-1,48
 682 39 682 39 622.5 13.5 c 128,-1,49
 563 -12 563 -12 487 -12 c 0,0,1
EndSplineSet
Substitution2: "'c2sc' Capitals to Small Capitals lookup 47 subtable" germandbls.sc
Substitution2: "'aalt' Access All Alternates lookup 2 subtable" germandbls.sc
EndChar

StartChar: uniA7A8
Encoding: 42920 42920 278
Width: 654
GlyphClass: 2
Flags: W
AnchorPoint: "Anchor-3" 333 700 basechar 0
AnchorPoint: "Anchor-0" 333 0 basechar 0
LayerCount: 2
Fore
SplineSet
322 -11 m 0,0,1
 267 -11 267 -11 214 -1 c 128,-1,2
 161 9 161 9 115.5 27.5 c 128,-1,3
 70 46 70 46 38 70 c 1,4,-1
 91 188 l 1,5,6
 135 156 135 156 197 135 c 128,-1,7
 259 114 259 114 322 114 c 0,8,9
 372 114 372 114 402.5 124 c 128,-1,10
 433 134 433 134 447 152 c 128,-1,11
 461 170 461 170 461 192 c 0,12,13
 461 221 461 221 439 238 c 128,-1,14
 417 255 417 255 380.5 266 c 128,-1,15
 344 277 344 277 300.5 286.5 c 128,-1,16
 257 296 257 296 213 309.5 c 128,-1,17
 169 323 169 323 133 345 c 128,-1,18
 97 367 97 367 74.5 403.5 c 128,-1,19
 52 440 52 440 52 496 c 0,20,21
 52 555 52 555 84 604 c 128,-1,22
 116 653 116 653 181 682 c 128,-1,23
 246 711 246 711 345 711 c 0,24,25
 411 711 411 711 474.5 695.5 c 128,-1,26
 538 680 538 680 586 650 c 1,27,-1
 537 531 l 1,28,29
 490 559 490 559 440.5 572.5 c 128,-1,30
 391 586 391 586 344 586 c 0,31,32
 295 586 295 586 264.5 574.5 c 128,-1,33
 234 563 234 563 220.5 544.5 c 128,-1,34
 207 526 207 526 207 503 c 0,35,36
 207 475 207 475 229 458 c 128,-1,37
 251 441 251 441 287.5 430.5 c 128,-1,38
 324 420 324 420 367.5 410.5 c 128,-1,39
 411 401 411 401 455 388 c 128,-1,40
 499 375 499 375 535 353 c 128,-1,41
 571 331 571 331 593.5 295 c 128,-1,42
 616 259 616 259 616 204 c 0,43,44
 616 146 616 146 583.5 97 c 128,-1,45
 551 48 551 48 486 18.5 c 128,-1,46
 421 -11 421 -11 322 -11 c 0,0,1
272 169 m 1,47,-1
 189 213 l 1,48,-1
 356 529 l 1,49,-1
 438 489 l 1,50,-1
 272 169 l 1,47,-1
EndSplineSet
Substitution2: "'c2sc' Capitals to Small Capitals lookup 47 subtable" uniA7A9.sc
Substitution2: "'aalt' Access All Alternates lookup 2 subtable" uniA7A9.sc
EndChar

StartChar: T
Encoding: 84 84 279
Width: 638
GlyphClass: 2
Flags: W
AnchorPoint: "Anchor-3" 319 700 basechar 0
AnchorPoint: "Anchor-1" 319 351 basechar 0
AnchorPoint: "Anchor-0" 319 0 basechar 0
LayerCount: 2
Fore
SplineSet
238 0 m 1,0,-1
 238 568 l 1,1,-1
 14 568 l 1,2,-1
 14 700 l 1,3,-1
 624 700 l 1,4,-1
 624 568 l 1,5,-1
 400 568 l 1,6,-1
 400 0 l 1,7,-1
 238 0 l 1,0,-1
EndSplineSet
Substitution2: "'ss01' Style Set 1 lookup 52 subtable" T.ss01
Substitution2: "'c2sc' Capitals to Small Capitals lookup 47 subtable" t.sc
AlternateSubs2: "'aalt' Access All Alternates lookup 3 subtable" t.sc T.ss01
EndChar

StartChar: Tbar
Encoding: 358 358 280
Width: 638
GlyphClass: 2
Flags: W
AnchorPoint: "Anchor-3" 319 700 basechar 0
AnchorPoint: "Anchor-1" 319 351 basechar 0
AnchorPoint: "Anchor-0" 319 0 basechar 0
LayerCount: 2
Fore
SplineSet
238 0 m 1,0,-1
 238 568 l 1,1,-1
 14 568 l 1,2,-1
 14 700 l 1,3,-1
 624 700 l 1,4,-1
 624 568 l 1,5,-1
 400 568 l 1,6,-1
 400 0 l 1,7,-1
 238 0 l 1,0,-1
105 287 m 1,8,-1
 105 395 l 1,9,-1
 532 395 l 1,10,-1
 532 287 l 1,11,-1
 105 287 l 1,8,-1
EndSplineSet
Substitution2: "'ss01' Style Set 1 lookup 52 subtable" Tbar.ss01
Substitution2: "'c2sc' Capitals to Small Capitals lookup 47 subtable" tbar.sc
AlternateSubs2: "'aalt' Access All Alternates lookup 3 subtable" tbar.sc Tbar.ss01
EndChar

StartChar: uni023E
Encoding: 574 574 285
Width: 635
GlyphClass: 2
Flags: W
AnchorPoint: "Anchor-3" 318 700 basechar 0
AnchorPoint: "Anchor-1" 318 329 basechar 0
AnchorPoint: "Anchor-0" 318 0 basechar 0
LayerCount: 2
Fore
SplineSet
242 0 m 1,0,-1
 242 568 l 1,1,-1
 14 568 l 1,2,-1
 14 700 l 1,3,-1
 621 700 l 1,4,-1
 621 568 l 1,5,-1
 394 568 l 1,6,-1
 394 0 l 1,7,-1
 242 0 l 1,0,-1
117 -70 m 1,8,-1
 501 770 l 1,9,-1
 601 770 l 1,10,-1
 216 -70 l 1,11,-1
 117 -70 l 1,8,-1
EndSplineSet
Substitution2: "'ss01' Style Set 1 lookup 52 subtable" uni023E.ss01
Substitution2: "'c2sc' Capitals to Small Capitals lookup 47 subtable" uni2C66.sc
AlternateSubs2: "'aalt' Access All Alternates lookup 3 subtable" uni2C66.sc uni023E.ss01
Substitution2: "'rvrn' Required Variation Alternates lookup 0 subtable" uni023E.BRACKET.varAlt01
EndChar

StartChar: uni01AC
Encoding: 428 428 288
Width: 736
GlyphClass: 1
Flags: W
LayerCount: 2
Fore
SplineSet
336 0 m 1,0,-1
 336 594 l 1,1,-1
 368 568 l 1,2,-1
 239 568 l 2,3,4
 209 568 209 568 192.5 553.5 c 128,-1,5
 176 539 176 539 172.5 515.5 c 128,-1,6
 169 492 169 492 178.5 465 c 128,-1,7
 188 438 188 438 209 413 c 1,8,-1
 97 351 l 1,9,10
 63 389 63 389 47 435.5 c 128,-1,11
 31 482 31 482 34.5 528.5 c 128,-1,12
 38 575 38 575 61.5 614 c 128,-1,13
 85 653 85 653 129.5 676.5 c 128,-1,14
 174 700 174 700 241 700 c 2,15,-1
 722 700 l 1,16,-1
 722 568 l 1,17,-1
 463 568 l 1,18,-1
 498 594 l 1,19,-1
 498 0 l 1,20,-1
 336 0 l 1,0,-1
EndSplineSet
Substitution2: "'ss01' Style Set 1 lookup 52 subtable" uni01AC.ss01
Substitution2: "'c2sc' Capitals to Small Capitals lookup 47 subtable" uni01AD.sc
AlternateSubs2: "'aalt' Access All Alternates lookup 3 subtable" uni01AD.sc uni01AC.ss01
EndChar

StartChar: uni01AE
Encoding: 430 430 290
Width: 638
GlyphClass: 2
Flags: W
AnchorPoint: "Anchor-3" 319 700 basechar 0
AnchorPoint: "Anchor-1" 319 328 basechar 0
AnchorPoint: "Anchor-0" 319 0 basechar 0
LayerCount: 2
Fore
SplineSet
572 -169 m 1,0,1
 519 -197 519 -197 461 -202.5 c 128,-1,2
 403 -208 403 -208 352 -189.5 c 128,-1,3
 301 -171 301 -171 269.5 -127 c 128,-1,4
 238 -83 238 -83 238 -12 c 2,5,-1
 238 589 l 1,6,-1
 400 589 l 1,7,-1
 400 -9 l 2,8,9
 400 -34 400 -34 411.5 -49.5 c 128,-1,10
 423 -65 423 -65 441 -71 c 128,-1,11
 459 -77 459 -77 481.5 -73 c 128,-1,12
 504 -69 504 -69 527 -55 c 1,13,-1
 572 -169 l 1,0,1
14 568 m 1,14,-1
 14 700 l 1,15,-1
 624 700 l 1,16,-1
 624 568 l 1,17,-1
 14 568 l 1,14,-1
EndSplineSet
Substitution2: "'ss01' Style Set 1 lookup 52 subtable" uni01AE.ss01
Substitution2: "'c2sc' Capitals to Small Capitals lookup 47 subtable" uni0288.sc
AlternateSubs2: "'aalt' Access All Alternates lookup 3 subtable" uni0288.sc uni01AE.ss01
EndChar

StartChar: uniA7B1
Encoding: 42929 42929 291
Width: 638
GlyphClass: 1
Flags: W
LayerCount: 2
Fore
SplineSet
400 700 m 1,0,-1
 400 132 l 1,1,-1
 624 132 l 1,2,-1
 624 0 l 1,3,-1
 14 0 l 1,4,-1
 14 132 l 1,5,-1
 238 132 l 1,6,-1
 238 700 l 1,7,-1
 400 700 l 1,0,-1
EndSplineSet
Substitution2: "'ss01' Style Set 1 lookup 52 subtable" uniA7B1.ss01
Substitution2: "'c2sc' Capitals to Small Capitals lookup 47 subtable" uni0287.sc
AlternateSubs2: "'aalt' Access All Alternates lookup 3 subtable" uni0287.sc uniA7B1.ss01
EndChar

StartChar: U
Encoding: 85 85 292
Width: 808
GlyphClass: 2
Flags: W
AnchorPoint: "Anchor-4" 661 700 basechar 0
AnchorPoint: "Anchor-3" 405 700 basechar 0
AnchorPoint: "Anchor-2" 617 0 basechar 0
AnchorPoint: "Anchor-1" 405 366 basechar 0
AnchorPoint: "Anchor-0" 405 0 basechar 0
LayerCount: 2
Fore
SplineSet
404 -12 m 256,0,1
 255 -12 255 -12 171 71 c 128,-1,2
 87 154 87 154 87 308 c 2,3,-1
 87 700 l 1,4,-1
 249 700 l 1,5,-1
 249 314 l 2,6,7
 249 214 249 214 290 170 c 128,-1,8
 331 126 331 126 405 126 c 256,9,10
 479 126 479 126 520 170 c 128,-1,11
 561 214 561 214 561 314 c 2,12,-1
 561 700 l 1,13,-1
 721 700 l 1,14,-1
 721 308 l 2,15,16
 721 154 721 154 637 71 c 128,-1,17
 553 -12 553 -12 404 -12 c 256,0,1
EndSplineSet
Substitution2: "'ss01' Style Set 1 lookup 52 subtable" U.ss01
Substitution2: "'c2sc' Capitals to Small Capitals lookup 47 subtable" u.sc
AlternateSubs2: "'aalt' Access All Alternates lookup 3 subtable" u.sc U.ss01
EndChar

StartChar: uni0244
Encoding: 580 580 294
Width: 811
GlyphClass: 2
Flags: W
AnchorPoint: "Anchor-4" 662 700 basechar 0
AnchorPoint: "Anchor-3" 406 700 basechar 0
AnchorPoint: "Anchor-2" 618 0 basechar 0
AnchorPoint: "Anchor-1" 406 366 basechar 0
AnchorPoint: "Anchor-0" 406 0 basechar 0
LayerCount: 2
Fore
SplineSet
405 -12 m 256,0,1
 256 -12 256 -12 172 71 c 128,-1,2
 88 154 88 154 88 308 c 2,3,-1
 88 700 l 1,4,-1
 250 700 l 1,5,-1
 250 314 l 2,6,7
 250 214 250 214 291 170 c 128,-1,8
 332 126 332 126 406 126 c 256,9,10
 480 126 480 126 521 170 c 128,-1,11
 562 214 562 214 562 314 c 2,12,-1
 562 700 l 1,13,-1
 722 700 l 1,14,-1
 722 308 l 2,15,16
 722 154 722 154 638 71 c 128,-1,17
 554 -12 554 -12 405 -12 c 256,0,1
0 303 m 1,18,-1
 0 412 l 1,19,-1
 810 412 l 1,20,-1
 810 303 l 1,21,-1
 0 303 l 1,18,-1
EndSplineSet
Substitution2: "'ss01' Style Set 1 lookup 52 subtable" uni0244.ss01
Substitution2: "'c2sc' Capitals to Small Capitals lookup 47 subtable" uni0289.sc
AlternateSubs2: "'aalt' Access All Alternates lookup 3 subtable" uni0289.sc uni0244.ss01
EndChar

StartChar: Uogonek
Encoding: 370 370 319
Width: 808
GlyphClass: 2
Flags: W
AnchorPoint: "Anchor-4" 661 700 basechar 0
AnchorPoint: "Anchor-3" 405 700 basechar 0
AnchorPoint: "Anchor-1" 405 366 basechar 0
AnchorPoint: "Anchor-0" 405 -231 basechar 0
LayerCount: 2
Fore
SplineSet
433 -232 m 0,0,1
 368 -232 368 -232 331.5 -201 c 128,-1,2
 295 -170 295 -170 295 -120 c 0,3,4
 295 -88 295 -88 311 -59 c 128,-1,5
 327 -30 327 -30 361 -4 c 128,-1,6
 395 22 395 22 448 41 c 1,7,-1
 450 -10 l 1,8,9
 438 -11 438 -11 427 -11.5 c 128,-1,10
 416 -12 416 -12 404 -12 c 0,11,12
 255 -12 255 -12 171 71 c 128,-1,13
 87 154 87 154 87 308 c 2,14,-1
 87 700 l 1,15,-1
 249 700 l 1,16,-1
 249 314 l 2,17,18
 249 214 249 214 290 170 c 128,-1,19
 331 126 331 126 405 126 c 256,20,21
 479 126 479 126 520 170 c 128,-1,22
 561 214 561 214 561 314 c 2,23,-1
 561 700 l 1,24,-1
 721 700 l 1,25,-1
 721 308 l 2,26,27
 721 185 721 185 670 112 c 128,-1,28
 619 39 619 39 534 8 c 0,29,30
 478 -13 478 -13 447.5 -33 c 128,-1,31
 417 -53 417 -53 405.5 -71 c 128,-1,32
 394 -89 394 -89 394 -107 c 0,33,34
 394 -128 394 -128 409 -140.5 c 128,-1,35
 424 -153 424 -153 451 -153 c 0,36,37
 468 -153 468 -153 484 -148.5 c 128,-1,38
 500 -144 500 -144 511 -138 c 1,39,-1
 534 -209 l 1,40,41
 516 -219 516 -219 489 -225.5 c 128,-1,42
 462 -232 462 -232 433 -232 c 0,0,1
EndSplineSet
Substitution2: "'ss01' Style Set 1 lookup 52 subtable" Uogonek.ss01
Substitution2: "'c2sc' Capitals to Small Capitals lookup 47 subtable" uogonek.sc
Substitution2: "'locl' Localized Forms in Latin lookup 17 subtable" Uogonek.loclNAV
AlternateSubs2: "'aalt' Access All Alternates lookup 3 subtable" Uogonek.loclNAV uogonek.sc Uogonek.ss01
EndChar

StartChar: uni01B1
Encoding: 433 433 320
Width: 877
GlyphClass: 2
Flags: W
AnchorPoint: "Anchor-3" 438 700 basechar 0
AnchorPoint: "Anchor-0" 438 0 basechar 0
LayerCount: 2
Fore
SplineSet
844 700 m 1,0,-1
 844 568 l 1,1,-1
 717 568 l 1,2,3
 764 525 764 525 791.5 463.5 c 128,-1,4
 819 402 819 402 819 326 c 0,5,6
 819 251 819 251 790 189 c 128,-1,7
 761 127 761 127 709.5 82 c 128,-1,8
 658 37 658 37 589 12.5 c 128,-1,9
 520 -12 520 -12 438 -12 c 0,10,11
 358 -12 358 -12 288.5 12.5 c 128,-1,12
 219 37 219 37 167 82 c 128,-1,13
 115 127 115 127 86.5 189.5 c 128,-1,14
 58 252 58 252 58 326 c 0,15,16
 58 402 58 402 85.5 463.5 c 128,-1,17
 113 525 113 525 159 568 c 1,18,-1
 33 568 l 1,19,-1
 33 700 l 1,20,-1
 369 700 l 1,21,-1
 369 577 l 1,22,23
 298 541 298 541 259 479 c 128,-1,24
 220 417 220 417 220 343 c 0,25,26
 220 293 220 293 236.5 253 c 128,-1,27
 253 213 253 213 282 184.5 c 128,-1,28
 311 156 311 156 351 141 c 128,-1,29
 391 126 391 126 438 126 c 0,30,31
 486 126 486 126 526 141 c 128,-1,32
 566 156 566 156 595 184.5 c 128,-1,33
 624 213 624 213 640 253 c 128,-1,34
 656 293 656 293 656 343 c 0,35,36
 656 418 656 418 617.5 480 c 128,-1,37
 579 542 579 542 508 577 c 1,38,-1
 508 700 l 1,39,-1
 844 700 l 1,0,-1
EndSplineSet
Substitution2: "'c2sc' Capitals to Small Capitals lookup 47 subtable" uni028A.sc
Substitution2: "'aalt' Access All Alternates lookup 2 subtable" uni028A.sc
EndChar

StartChar: V
Encoding: 86 86 325
Width: 766
GlyphClass: 2
Flags: W
AnchorPoint: "Anchor-3" 383 700 basechar 0
AnchorPoint: "Anchor-2" 464 0 basechar 0
AnchorPoint: "Anchor-0" 383 0 basechar 0
LayerCount: 2
Fore
SplineSet
303 0 m 1,0,-1
 1 700 l 1,1,-1
 176 700 l 1,2,-1
 440 80 l 1,3,-1
 337 80 l 1,4,-1
 605 700 l 1,5,-1
 766 700 l 1,6,-1
 463 0 l 1,7,-1
 303 0 l 1,0,-1
EndSplineSet
Substitution2: "'c2sc' Capitals to Small Capitals lookup 47 subtable" v.sc
Substitution2: "'aalt' Access All Alternates lookup 2 subtable" v.sc
EndChar

StartChar: uni0194
Encoding: 404 404 326
Width: 696
GlyphClass: 2
Flags: W
AnchorPoint: "Anchor-3" 348 700 basechar 0
AnchorPoint: "Anchor-1" 344 257 basechar 0
AnchorPoint: "Anchor-0" 348 0 basechar 0
LayerCount: 2
Fore
SplineSet
351 -206 m 0,0,1
 305 -206 305 -206 267 -187.5 c 128,-1,2
 229 -169 229 -169 206 -135 c 128,-1,3
 183 -101 183 -101 183 -56 c 0,4,5
 183 -19 183 -19 199 19 c 128,-1,6
 215 57 215 57 239 94 c 128,-1,7
 263 131 263 131 287.5 168 c 128,-1,8
 312 205 312 205 328 239 c 2,9,-1
 555 700 l 1,10,-1
 716 700 l 1,11,-1
 444 153 l 2,12,13
 432 128 432 128 408.5 100.5 c 128,-1,14
 385 73 385 73 360.5 44.5 c 128,-1,15
 336 16 336 16 319 -10.5 c 128,-1,16
 302 -37 302 -37 302 -60 c 0,17,18
 302 -80 302 -80 316.5 -92.5 c 128,-1,19
 331 -105 331 -105 351 -105 c 256,20,21
 371 -105 371 -105 385.5 -92.5 c 128,-1,22
 400 -80 400 -80 400 -60 c 0,23,24
 400 -39 400 -39 384 -12.5 c 128,-1,25
 368 14 368 14 345.5 42.5 c 128,-1,26
 323 71 323 71 301.5 98.5 c 128,-1,27
 280 126 280 126 269 149 c 2,28,-1
 -9 700 l 1,29,-1
 166 700 l 1,30,-1
 390 239 l 2,31,32
 406 208 406 208 427 172.5 c 128,-1,33
 448 137 448 137 469 98.5 c 128,-1,34
 490 60 490 60 504 21 c 128,-1,35
 518 -18 518 -18 518 -55 c 0,36,37
 518 -100 518 -100 496 -134 c 128,-1,38
 474 -168 474 -168 436.5 -187 c 128,-1,39
 399 -206 399 -206 351 -206 c 0,0,1
EndSplineSet
Substitution2: "'c2sc' Capitals to Small Capitals lookup 47 subtable" uni0263.sc
Substitution2: "'aalt' Access All Alternates lookup 2 subtable" uni0263.sc
EndChar

StartChar: uni01B2
Encoding: 434 434 328
Width: 798
GlyphClass: 2
Flags: W
AnchorPoint: "Anchor-4" 658 700 basechar 0
AnchorPoint: "Anchor-3" 402 700 basechar 0
AnchorPoint: "Anchor-2" 615 0 basechar 0
AnchorPoint: "Anchor-0" 402 0 basechar 0
LayerCount: 2
Fore
SplineSet
401 -12 m 0,0,1
 252 -12 252 -12 168 71 c 128,-1,2
 84 154 84 154 84 308 c 2,3,-1
 84 700 l 1,4,-1
 247 700 l 1,5,-1
 247 314 l 2,6,7
 247 214 247 214 288 170 c 128,-1,8
 329 126 329 126 402 126 c 0,9,10
 477 126 477 126 517.5 170 c 128,-1,11
 558 214 558 214 558 314 c 2,12,-1
 558 522 l 2,13,14
 558 551 558 551 547 568 c 128,-1,15
 536 585 536 585 517.5 591.5 c 128,-1,16
 499 598 499 598 476.5 594 c 128,-1,17
 454 590 454 590 432 576 c 1,18,-1
 394 690 l 1,19,20
 445 716 445 716 502 721.5 c 128,-1,21
 559 727 559 727 608.5 709 c 128,-1,22
 658 691 658 691 689.5 647 c 128,-1,23
 721 603 721 603 721 529 c 2,24,-1
 721 308 l 2,25,26
 721 154 721 154 636.5 71 c 128,-1,27
 552 -12 552 -12 401 -12 c 0,0,1
EndSplineSet
Substitution2: "'c2sc' Capitals to Small Capitals lookup 47 subtable" uni028B.sc
Substitution2: "'locl' Localized Forms in Latin lookup 20 subtable" uni01B2.loclTOD0
AlternateSubs2: "'aalt' Access All Alternates lookup 3 subtable" uni01B2.loclTOD0 uni028B.sc
EndChar

StartChar: uni0245
Encoding: 581 581 330
Width: 766
GlyphClass: 2
Flags: W
AnchorPoint: "Anchor-3" 383 700 basechar 0
AnchorPoint: "Anchor-2" 766 0 basechar 0
AnchorPoint: "Anchor-0" 383 0 basechar 0
LayerCount: 2
Fore
SplineSet
463 700 m 1,0,-1
 766 0 l 1,1,-1
 590 0 l 1,2,-1
 327 620 l 1,3,-1
 429 620 l 1,4,-1
 161 0 l 1,5,-1
 1 0 l 1,6,-1
 303 700 l 1,7,-1
 463 700 l 1,0,-1
EndSplineSet
Substitution2: "'c2sc' Capitals to Small Capitals lookup 47 subtable" uni028C.sc
Substitution2: "'aalt' Access All Alternates lookup 2 subtable" uni028C.sc
EndChar

StartChar: W
Encoding: 87 87 331
Width: 1183
GlyphClass: 2
Flags: W
AnchorPoint: "Anchor-3" 592 700 basechar 0
AnchorPoint: "Anchor-0" 592 0 basechar 0
LayerCount: 2
Fore
SplineSet
261 0 m 1,0,-1
 32 700 l 1,1,-1
 200 700 l 1,2,-1
 399 80 l 1,3,-1
 315 80 l 1,4,-1
 523 700 l 1,5,-1
 673 700 l 1,6,-1
 873 80 l 1,7,-1
 792 80 l 1,8,-1
 996 700 l 1,9,-1
 1151 700 l 1,10,-1
 922 0 l 1,11,-1
 748 0 l 1,12,-1
 571 544 l 1,13,-1
 617 544 l 1,14,-1
 435 0 l 1,15,-1
 261 0 l 1,0,-1
EndSplineSet
Substitution2: "'ss01' Style Set 1 lookup 52 subtable" W.ss01
Substitution2: "'c2sc' Capitals to Small Capitals lookup 47 subtable" w.sc
AlternateSubs2: "'aalt' Access All Alternates lookup 3 subtable" w.sc W.ss01
EndChar

StartChar: uni2C72
Encoding: 11378 11378 338
Width: 1216
GlyphClass: 2
Flags: W
AnchorPoint: "Anchor-3" 592 700 basechar 0
AnchorPoint: "Anchor-0" 592 0 basechar 0
LayerCount: 2
Fore
SplineSet
261 0 m 1,0,-1
 32 700 l 1,1,-1
 200 700 l 1,2,-1
 399 80 l 1,3,-1
 315 80 l 1,4,-1
 523 700 l 1,5,-1
 673 700 l 1,6,-1
 862 80 l 1,7,-1
 782 80 l 1,8,-1
 956 608 l 2,9,10
 974 667 974 667 1007 700 c 128,-1,11
 1040 733 1040 733 1079.5 744.5 c 128,-1,12
 1119 756 1119 756 1160.5 748.5 c 128,-1,13
 1202 741 1202 741 1239 719 c 1,14,-1
 1189 602 l 1,15,16
 1161 618 1161 618 1134 608.5 c 128,-1,17
 1107 599 1107 599 1095 562 c 2,18,-1
 912 0 l 1,19,-1
 739 0 l 1,20,-1
 571 544 l 1,21,-1
 617 544 l 1,22,-1
 435 0 l 1,23,-1
 261 0 l 1,0,-1
EndSplineSet
Substitution2: "'ss01' Style Set 1 lookup 52 subtable" uni2C72.ss01
Substitution2: "'c2sc' Capitals to Small Capitals lookup 47 subtable" uni2C73.sc
AlternateSubs2: "'aalt' Access All Alternates lookup 3 subtable" uni2C73.sc uni2C72.ss01
EndChar

StartChar: X
Encoding: 88 88 339
Width: 734
GlyphClass: 2
Flags: W
AnchorPoint: "Anchor-3" 367 700 basechar 0
AnchorPoint: "Anchor-0" 367 0 basechar 0
LayerCount: 2
Fore
SplineSet
13 0 m 1,0,-1
 314 415 l 1,1,-1
 314 297 l 1,2,-1
 26 700 l 1,3,-1
 210 700 l 1,4,-1
 409 419 l 1,5,-1
 332 418 l 1,6,-1
 528 700 l 1,7,-1
 704 700 l 1,8,-1
 418 304 l 1,9,-1
 418 420 l 1,10,-1
 721 0 l 1,11,-1
 534 0 l 1,12,-1
 328 297 l 1,13,-1
 402 297 l 1,14,-1
 199 0 l 1,15,-1
 13 0 l 1,0,-1
EndSplineSet
Substitution2: "'c2sc' Capitals to Small Capitals lookup 47 subtable" x.sc
Substitution2: "'aalt' Access All Alternates lookup 2 subtable" x.sc
EndChar

StartChar: Y
Encoding: 89 89 342
Width: 696
GlyphClass: 2
Flags: W
AnchorPoint: "Anchor-3" 348 700 basechar 0
AnchorPoint: "Anchor-2" 429 0 basechar 0
AnchorPoint: "Anchor-1" 344 257 basechar 0
AnchorPoint: "Anchor-0" 348 0 basechar 0
LayerCount: 2
Fore
SplineSet
267 0 m 1,0,-1
 267 286 l 1,1,-1
 304 188 l 1,2,-1
 -4 700 l 1,3,-1
 168 700 l 1,4,-1
 404 307 l 1,5,-1
 305 307 l 1,6,-1
 542 700 l 1,7,-1
 701 700 l 1,8,-1
 393 188 l 1,9,-1
 429 286 l 1,10,-1
 429 0 l 1,11,-1
 267 0 l 1,0,-1
EndSplineSet
Substitution2: "'ss01' Style Set 1 lookup 52 subtable" Y.ss01
Substitution2: "'c2sc' Capitals to Small Capitals lookup 47 subtable" y.sc
AlternateSubs2: "'aalt' Access All Alternates lookup 3 subtable" y.sc Y.ss01
EndChar

StartChar: uni01B3
Encoding: 435 435 349
Width: 735
GlyphClass: 2
Flags: W
AnchorPoint: "Anchor-3" 348 700 basechar 0
AnchorPoint: "Anchor-1" 344 257 basechar 0
AnchorPoint: "Anchor-0" 348 0 basechar 0
LayerCount: 2
Fore
SplineSet
778 713 m 1,0,-1
 721 600 l 1,1,2
 696 618 696 618 670 613 c 128,-1,3
 644 608 644 608 624 576 c 2,4,-1
 393 188 l 1,5,-1
 429 286 l 1,6,-1
 429 0 l 1,7,-1
 267 0 l 1,8,-1
 267 286 l 1,9,-1
 304 188 l 1,10,-1
 -4 700 l 1,11,-1
 168 700 l 1,12,-1
 404 307 l 1,13,-1
 306 307 l 1,14,-1
 511 651 l 2,15,16
 547 712 547 712 593.5 735 c 128,-1,17
 640 758 640 758 688.5 750.5 c 128,-1,18
 737 743 737 743 778 713 c 1,0,-1
EndSplineSet
Substitution2: "'ss01' Style Set 1 lookup 52 subtable" uni01B3.ss01
Substitution2: "'c2sc' Capitals to Small Capitals lookup 47 subtable" uni01B4.sc
AlternateSubs2: "'aalt' Access All Alternates lookup 3 subtable" uni01B4.sc uni01B3.ss01
EndChar

StartChar: uni01A6
Encoding: 422 422 352
Width: 755
GlyphClass: 2
Flags: W
AnchorPoint: "Anchor-3" 376 700 basechar 0
AnchorPoint: "Anchor-0" 376 0 basechar 0
LayerCount: 2
Fore
SplineSet
179 131 m 1,0,-1
 179 260 l 1,1,-1
 387 260 l 2,2,3
 462 260 462 260 499 292.5 c 128,-1,4
 536 325 536 325 536 382 c 0,5,6
 536 440 536 440 499 472 c 128,-1,7
 462 504 462 504 387 504 c 2,8,-1
 179 504 l 1,9,-1
 179 636 l 1,10,-1
 392 636 l 2,11,12
 538 636 538 636 619 568.5 c 128,-1,13
 700 501 700 501 700 382 c 0,14,15
 700 304 700 304 663 248 c 128,-1,16
 626 192 626 192 558 161.5 c 128,-1,17
 490 131 490 131 396 131 c 2,18,-1
 179 131 l 1,0,-1
93 0 m 1,19,-1
 93 700 l 1,20,-1
 255 700 l 1,21,-1
 255 0 l 1,22,-1
 93 0 l 1,19,-1
538 -100 m 1,23,-1
 367 164 l 1,24,-1
 541 164 l 1,25,-1
 713 -100 l 1,26,-1
 538 -100 l 1,23,-1
EndSplineSet
Substitution2: "'c2sc' Capitals to Small Capitals lookup 47 subtable" uni0280.sc
Substitution2: "'aalt' Access All Alternates lookup 2 subtable" uni0280.sc
EndChar

StartChar: uni024E
Encoding: 590 590 353
Width: 696
GlyphClass: 2
Flags: W
AnchorPoint: "Anchor-3" 348 700 basechar 0
AnchorPoint: "Anchor-1" 344 257 basechar 0
AnchorPoint: "Anchor-0" 348 0 basechar 0
LayerCount: 2
Fore
SplineSet
267 0 m 1,0,-1
 267 266 l 1,1,-1
 304 168 l 1,2,-1
 -4 700 l 1,3,-1
 160 700 l 1,4,-1
 388 296 l 1,5,-1
 321 296 l 1,6,-1
 550 700 l 1,7,-1
 701 700 l 1,8,-1
 393 168 l 1,9,-1
 429 266 l 1,10,-1
 429 0 l 1,11,-1
 267 0 l 1,0,-1
0 499 m 1,12,-1
 0 608 l 1,13,-1
 696 608 l 1,14,-1
 696 499 l 1,15,-1
 0 499 l 1,12,-1
EndSplineSet
Substitution2: "'ss01' Style Set 1 lookup 52 subtable" uni024E.ss01
Substitution2: "'c2sc' Capitals to Small Capitals lookup 47 subtable" uni024F.sc
AlternateSubs2: "'aalt' Access All Alternates lookup 3 subtable" uni024F.sc uni024E.ss01
EndChar

StartChar: Z
Encoding: 90 90 355
Width: 691
GlyphClass: 2
Flags: W
AnchorPoint: "Anchor-3" 354 700 basechar 0
AnchorPoint: "Anchor-2" 660 0 basechar 0
AnchorPoint: "Anchor-0" 357 0 basechar 0
LayerCount: 2
Fore
SplineSet
48 0 m 1,0,-1
 48 105 l 1,1,-1
 481 627 l 1,2,-1
 501 568 l 1,3,-1
 56 568 l 1,4,-1
 56 700 l 1,5,-1
 645 700 l 1,6,-1
 645 595 l 1,7,-1
 213 73 l 1,8,-1
 193 132 l 1,9,-1
 660 132 l 1,10,-1
 660 0 l 1,11,-1
 48 0 l 1,0,-1
EndSplineSet
Substitution2: "'ss01' Style Set 1 lookup 52 subtable" Z.ss01
Substitution2: "'c2sc' Capitals to Small Capitals lookup 47 subtable" z.sc
AlternateSubs2: "'aalt' Access All Alternates lookup 3 subtable" z.sc Z.ss01
EndChar

StartChar: uni01B5
Encoding: 437 437 362
Width: 691
GlyphClass: 2
Flags: W
AnchorPoint: "Anchor-3" 354 700 basechar 0
AnchorPoint: "Anchor-0" 357 0 basechar 0
LayerCount: 2
Fore
SplineSet
48 0 m 1,0,-1
 48 105 l 1,1,-1
 481 627 l 1,2,-1
 501 568 l 1,3,-1
 56 568 l 1,4,-1
 56 700 l 1,5,-1
 645 700 l 1,6,-1
 645 595 l 1,7,-1
 213 73 l 1,8,-1
 193 132 l 1,9,-1
 660 132 l 1,10,-1
 660 0 l 1,11,-1
 48 0 l 1,0,-1
125 303 m 1,12,-1
 125 412 l 1,13,-1
 581 412 l 1,14,-1
 581 303 l 1,15,-1
 125 303 l 1,12,-1
EndSplineSet
Substitution2: "'c2sc' Capitals to Small Capitals lookup 47 subtable" uni01B6.sc
Substitution2: "'aalt' Access All Alternates lookup 2 subtable" uni01B6.sc
EndChar

StartChar: uniA78B
Encoding: 42891 42891 363
Width: 317
GlyphClass: 1
Flags: W
LayerCount: 2
Fore
SplineSet
78 297 m 1,0,-1
 78 700 l 1,1,-1
 238 700 l 1,2,-1
 218 297 l 1,3,-1
 78 297 l 1,0,-1
EndSplineSet
Substitution2: "'c2sc' Capitals to Small Capitals lookup 47 subtable" uniA78C.sc
Substitution2: "'aalt' Access All Alternates lookup 2 subtable" uniA78C.sc
EndChar

StartChar: uni0295.case
Encoding: 65538 -1 364
Width: 637
GlyphClass: 2
Flags: W
AnchorPoint: "Anchor-3" 332 700 basechar 0
AnchorPoint: "Anchor-0" 336 0 basechar 0
LayerCount: 2
Fore
SplineSet
417 0 m 1,0,-1
 255 0 l 1,1,-1
 255 156 l 2,2,3
 255 190 255 190 238.5 214.5 c 128,-1,4
 222 239 222 239 195.5 258.5 c 128,-1,5
 169 278 169 278 140 297 c 128,-1,6
 111 316 111 316 84.5 340.5 c 128,-1,7
 58 365 58 365 41 399 c 128,-1,8
 24 433 24 433 24 481 c 0,9,10
 24 540 24 540 50 583.5 c 128,-1,11
 76 627 76 627 119.5 655.5 c 128,-1,12
 163 684 163 684 218 698 c 128,-1,13
 273 712 273 712 331 712 c 0,14,15
 396 712 396 712 457 695 c 128,-1,16
 518 678 518 678 567 645.5 c 128,-1,17
 616 613 616 613 646 564 c 1,18,-1
 521 489 l 1,19,20
 501 521 501 521 471 541 c 128,-1,21
 441 561 441 561 407 570.5 c 128,-1,22
 373 580 373 580 338 580 c 0,23,24
 300 580 300 580 265.5 568 c 128,-1,25
 231 556 231 556 209.5 533 c 128,-1,26
 188 510 188 510 188 474 c 0,27,28
 188 444 188 444 204.5 422.5 c 128,-1,29
 221 401 221 401 247 384 c 128,-1,30
 273 367 273 367 302.5 349.5 c 128,-1,31
 332 332 332 332 358 309 c 128,-1,32
 384 286 384 286 400.5 252 c 128,-1,33
 417 218 417 218 417 168 c 2,34,-1
 417 0 l 1,0,-1
EndSplineSet
EndChar

StartChar: uni01B2.loclTOD0
Encoding: 65548 -1 374
Width: 818
GlyphClass: 2
Flags: W
AnchorPoint: "Anchor-3" 383 700 basechar 0
AnchorPoint: "Anchor-0" 383 0 basechar 0
LayerCount: 2
Fore
SplineSet
304 0 m 1,0,-1
 1 700 l 1,1,-1
 176 700 l 1,2,-1
 422 120 l 1,3,-1
 354 120 l 1,4,-1
 564 611 l 2,5,6
 589 668 589 668 621.5 700.5 c 128,-1,7
 654 733 654 733 692.5 745 c 128,-1,8
 731 757 731 757 770.5 750.5 c 128,-1,9
 810 744 810 744 847 722 c 1,10,-1
 796 605 l 1,11,12
 768 620 768 620 743 610.5 c 128,-1,13
 718 601 718 601 703 565 c 2,14,-1
 463 0 l 1,15,-1
 304 0 l 1,0,-1
EndSplineSet
Substitution2: "'ss01' Style Set 1 lookup 52 subtable" uni01B2.loclTOD0.ss01
Substitution2: "'c2sc' Capitals to Small Capitals lookup 47 subtable" uni01B2.loclTOD0.sc
AlternateSubs2: "'aalt' Access All Alternates lookup 3 subtable" uni01B2.loclTOD0.sc uni01B2.loclTOD0.ss01
EndChar

StartChar: uni0181.loclXPE
Encoding: 65549 -1 375
Width: 764
GlyphClass: 1
Flags: W
LayerCount: 2
Fore
SplineSet
102 47 m 1,0,-1
 102 700 l 1,1,-1
 648 700 l 1,2,-1
 648 571 l 1,3,-1
 262 571 l 1,4,-1
 262 128 l 1,5,-1
 102 47 l 1,0,-1
412 -11 m 0,6,7
 332 -11 332 -11 250 5 c 128,-1,8
 168 21 168 21 102 47 c 1,9,-1
 252 137 l 1,10,11
 267 131 267 131 291 125 c 128,-1,12
 315 119 315 119 345 114.5 c 128,-1,13
 375 110 375 110 404 110 c 256,14,15
 433 110 433 110 459.5 115 c 128,-1,16
 486 120 486 120 507 130 c 128,-1,17
 528 140 528 140 540.5 158.5 c 128,-1,18
 553 177 553 177 553 204 c 0,19,20
 553 240 553 240 533 260 c 128,-1,21
 513 280 513 280 480.5 288.5 c 128,-1,22
 448 297 448 297 409 297 c 0,23,24
 363 297 363 297 316 288 c 128,-1,25
 269 279 269 279 234 268 c 1,26,-1
 234 382 l 1,27,28
 280 398 280 398 332.5 407.5 c 128,-1,29
 385 417 385 417 438 417 c 0,30,31
 492 417 492 417 542 405.5 c 128,-1,32
 592 394 592 394 631 368.5 c 128,-1,33
 670 343 670 343 693 302.5 c 128,-1,34
 716 262 716 262 716 204 c 0,35,36
 716 144 716 144 691.5 102.5 c 128,-1,37
 667 61 667 61 624.5 36 c 128,-1,38
 582 11 582 11 527.5 0 c 128,-1,39
 473 -11 473 -11 412 -11 c 0,6,7
EndSplineSet
EndChar

StartChar: A.ss01
Encoding: 65550 -1 376
Width: 816
GlyphClass: 2
Flags: W
AnchorPoint: "Anchor-3" 408 700 basechar 0
AnchorPoint: "Anchor-2" 729 0 basechar 0
AnchorPoint: "Anchor-0" 408 0 basechar 0
LayerCount: 2
Fore
SplineSet
87 0 m 1,0,-1
 87 383 l 2,1,2
 87 490 87 490 127.5 563.5 c 128,-1,3
 168 637 168 637 240 674.5 c 128,-1,4
 312 712 312 712 408 712 c 256,5,6
 504 712 504 712 576.5 674.5 c 128,-1,7
 649 637 649 637 689 563.5 c 128,-1,8
 729 490 729 490 729 383 c 2,9,-1
 729 0 l 1,10,-1
 567 0 l 1,11,-1
 567 398 l 2,12,13
 567 488 567 488 523 531 c 128,-1,14
 479 574 479 574 407 574 c 256,15,16
 335 574 335 574 291 531 c 128,-1,17
 247 488 247 488 247 398 c 2,18,-1
 247 0 l 1,19,-1
 87 0 l 1,0,-1
189 168 m 1,20,-1
 189 298 l 1,21,-1
 625 298 l 1,22,-1
 625 168 l 1,23,-1
 189 168 l 1,20,-1
EndSplineSet
EndChar

StartChar: uni023A.ss01
Encoding: 65579 -1 405
Width: 816
GlyphClass: 2
Flags: W
AnchorPoint: "Anchor-3" 408 700 basechar 0
AnchorPoint: "Anchor-2" 729 0 basechar 0
AnchorPoint: "Anchor-0" 408 0 basechar 0
LayerCount: 2
Fore
SplineSet
87 0 m 1,0,-1
 87 383 l 2,1,2
 87 490 87 490 127.5 563.5 c 128,-1,3
 168 637 168 637 240 674.5 c 128,-1,4
 312 712 312 712 408 712 c 256,5,6
 504 712 504 712 576.5 674.5 c 128,-1,7
 649 637 649 637 689 563.5 c 128,-1,8
 729 490 729 490 729 383 c 2,9,-1
 729 0 l 1,10,-1
 572 0 l 1,11,-1
 572 398 l 2,12,13
 572 488 572 488 526.5 531 c 128,-1,14
 481 574 481 574 407 574 c 256,15,16
 333 574 333 574 288 531 c 128,-1,17
 243 488 243 488 243 398 c 2,18,-1
 243 0 l 1,19,-1
 87 0 l 1,0,-1
189 176 m 1,20,-1
 189 298 l 1,21,-1
 625 298 l 1,22,-1
 625 176 l 1,23,-1
 189 176 l 1,20,-1
234 -70 m 1,24,-1
 618 770 l 1,25,-1
 718 770 l 1,26,-1
 334 -70 l 1,27,-1
 234 -70 l 1,24,-1
EndSplineSet
EndChar

StartChar: uni2C6F.ss01
Encoding: 65581 -1 407
Width: 816
GlyphClass: 2
Flags: W
AnchorPoint: "Anchor-3" 408 700 basechar 0
AnchorPoint: "Anchor-0" 408 0 basechar 0
LayerCount: 2
Fore
SplineSet
729 700 m 1,0,-1
 729 317 l 2,1,2
 729 211 729 211 689 137 c 128,-1,3
 649 63 649 63 576.5 25.5 c 128,-1,4
 504 -12 504 -12 408 -12 c 256,5,6
 312 -12 312 -12 240 25.5 c 128,-1,7
 168 63 168 63 127.5 137 c 128,-1,8
 87 211 87 211 87 317 c 2,9,-1
 87 700 l 1,10,-1
 249 700 l 1,11,-1
 249 302 l 2,12,13
 249 213 249 213 293 169.5 c 128,-1,14
 337 126 337 126 409 126 c 0,15,16
 482 126 482 126 526 169.5 c 128,-1,17
 570 213 570 213 570 302 c 2,18,-1
 570 700 l 1,19,-1
 729 700 l 1,0,-1
627 532 m 1,20,-1
 627 402 l 1,21,-1
 191 402 l 1,22,-1
 191 532 l 1,23,-1
 627 532 l 1,20,-1
EndSplineSet
EndChar

StartChar: AE.ss01
Encoding: 65582 -1 408
Width: 1106
GlyphClass: 2
Flags: W
AnchorPoint: "Anchor-3" 549 700 basechar 0
AnchorPoint: "Anchor-0" 549 0 basechar 0
LayerCount: 2
Fore
SplineSet
516 0 m 1,0,-1
 516 700 l 1,1,-1
 1045 700 l 1,2,-1
 1045 571 l 1,3,-1
 676 571 l 1,4,-1
 676 417 l 1,5,-1
 1003 417 l 1,6,-1
 1003 294 l 1,7,-1
 676 294 l 1,8,-1
 676 129 l 1,9,-1
 1059 129 l 1,10,-1
 1059 0 l 1,11,-1
 516 0 l 1,0,-1
182 177 m 1,12,-1
 182 305 l 1,13,-1
 596 305 l 1,14,-1
 596 177 l 1,15,-1
 182 177 l 1,12,-1
80 0 m 1,16,-1
 80 385 l 2,17,18
 80 538 80 538 161 619 c 128,-1,19
 242 700 242 700 394 700 c 2,20,-1
 596 700 l 1,21,-1
 596 562 l 1,22,-1
 408 562 l 2,23,24
 324 562 324 562 283.5 517.5 c 128,-1,25
 243 473 243 473 243 381 c 2,26,-1
 243 0 l 1,27,-1
 80 0 l 1,16,-1
EndSplineSet
EndChar

StartChar: E.ss01
Encoding: 65589 -1 415
Width: 687
GlyphClass: 2
Flags: W
AnchorPoint: "Anchor-3" 372 700 basechar 0
AnchorPoint: "Anchor-2" 627 0 basechar 0
AnchorPoint: "Anchor-0" 372 0 basechar 0
LayerCount: 2
Fore
SplineSet
379 -12 m 0,0,1
 271 -12 271 -12 197.5 15 c 128,-1,2
 124 42 124 42 86.5 89.5 c 128,-1,3
 49 137 49 137 49 197 c 0,4,5
 49 250 49 250 76.5 290.5 c 128,-1,6
 104 331 104 331 152 354 c 128,-1,7
 200 377 200 377 260 377 c 1,8,-1
 265 337 l 1,9,10
 207 337 207 337 165 359.5 c 128,-1,11
 123 382 123 382 101 420.5 c 128,-1,12
 79 459 79 459 79 505 c 0,13,14
 79 560 79 560 113 607 c 128,-1,15
 147 654 147 654 217 683 c 128,-1,16
 287 712 287 712 394 712 c 0,17,18
 463 712 463 712 527.5 698.5 c 128,-1,19
 592 685 592 685 640 662 c 1,20,-1
 595 538 l 1,21,22
 547 561 547 561 498.5 571 c 128,-1,23
 450 581 450 581 400 581 c 0,24,25
 320 581 320 581 281.5 556.5 c 128,-1,26
 243 532 243 532 243 494 c 0,27,28
 243 458 243 458 269 438 c 128,-1,29
 295 418 295 418 350 418 c 2,30,-1
 541 418 l 1,31,-1
 541 290 l 1,32,-1
 340 290 l 2,33,34
 300 290 300 290 271.5 280.5 c 128,-1,35
 243 271 243 271 228 253 c 128,-1,36
 213 235 213 235 213 208 c 0,37,38
 213 168 213 168 254 143.5 c 128,-1,39
 295 119 295 119 386 119 c 0,40,41
 448 119 448 119 509.5 135.5 c 128,-1,42
 571 152 571 152 615 182 c 1,43,-1
 665 60 l 1,44,45
 616 27 616 27 540 7.5 c 128,-1,46
 464 -12 464 -12 379 -12 c 0,0,1
EndSplineSet
EndChar

StartChar: Eogonek.ss01
Encoding: 65612 -1 438
Width: 687
GlyphClass: 2
Flags: W
AnchorPoint: "Anchor-3" 372 700 basechar 0
AnchorPoint: "Anchor-0" 372 0 basechar 0
LayerCount: 2
Fore
SplineSet
550 -232 m 0,0,1
 484 -232 484 -232 447.5 -201 c 128,-1,2
 411 -170 411 -170 411 -120 c 0,3,4
 411 -77 411 -77 435.5 -38 c 128,-1,5
 460 1 460 1 511 32 c 1,6,-1
 522 6 l 1,7,8
 489 -2 489 -2 453 -7 c 128,-1,9
 417 -12 417 -12 379 -12 c 0,10,11
 271 -12 271 -12 197.5 15 c 128,-1,12
 124 42 124 42 86.5 89.5 c 128,-1,13
 49 137 49 137 49 197 c 0,14,15
 49 250 49 250 76.5 290.5 c 128,-1,16
 104 331 104 331 152 354 c 128,-1,17
 200 377 200 377 260 377 c 1,18,-1
 265 337 l 1,19,20
 207 337 207 337 165 359.5 c 128,-1,21
 123 382 123 382 101 420.5 c 128,-1,22
 79 459 79 459 79 505 c 0,23,24
 79 560 79 560 113 607 c 128,-1,25
 147 654 147 654 217 683 c 128,-1,26
 287 712 287 712 394 712 c 0,27,28
 463 712 463 712 527.5 698.5 c 128,-1,29
 592 685 592 685 640 662 c 1,30,-1
 595 538 l 1,31,32
 547 561 547 561 498.5 571 c 128,-1,33
 450 581 450 581 400 581 c 0,34,35
 320 581 320 581 281.5 556.5 c 128,-1,36
 243 532 243 532 243 494 c 0,37,38
 243 458 243 458 269 438 c 128,-1,39
 295 418 295 418 350 418 c 2,40,-1
 541 418 l 1,41,-1
 541 290 l 1,42,-1
 340 290 l 2,43,44
 300 290 300 290 271.5 280.5 c 128,-1,45
 243 271 243 271 228 253 c 128,-1,46
 213 235 213 235 213 208 c 0,47,48
 213 168 213 168 254 143.5 c 128,-1,49
 295 119 295 119 386 119 c 0,50,51
 448 119 448 119 509.5 136 c 128,-1,52
 571 153 571 153 615 182 c 1,53,-1
 665 60 l 1,54,55
 606 26 606 26 572 -3.5 c 128,-1,56
 538 -33 538 -33 524 -58 c 128,-1,57
 510 -83 510 -83 510 -104 c 0,58,59
 510 -127 510 -127 525.5 -140 c 128,-1,60
 541 -153 541 -153 567 -153 c 0,61,62
 584 -153 584 -153 600 -148.5 c 128,-1,63
 616 -144 616 -144 628 -138 c 1,64,-1
 650 -209 l 1,65,66
 632 -219 632 -219 605 -225.5 c 128,-1,67
 578 -232 578 -232 550 -232 c 0,0,1
EndSplineSet
EndChar

StartChar: uni0246.ss01
Encoding: 65613 -1 439
Width: 687
GlyphClass: 2
Flags: W
AnchorPoint: "Anchor-3" 363 700 basechar 0
AnchorPoint: "Anchor-2" 473 0 basechar 0
AnchorPoint: "Anchor-0" 363 0 basechar 0
LayerCount: 2
Fore
SplineSet
379 -12 m 0,0,1
 271 -12 271 -12 197.5 15 c 128,-1,2
 124 42 124 42 86.5 89.5 c 128,-1,3
 49 137 49 137 49 197 c 0,4,5
 49 250 49 250 76.5 290.5 c 128,-1,6
 104 331 104 331 152 354 c 128,-1,7
 200 377 200 377 260 377 c 1,8,-1
 265 337 l 1,9,10
 207 337 207 337 165 359.5 c 128,-1,11
 123 382 123 382 101 420.5 c 128,-1,12
 79 459 79 459 79 505 c 0,13,14
 79 560 79 560 113 607 c 128,-1,15
 147 654 147 654 217 683 c 128,-1,16
 287 712 287 712 394 712 c 0,17,18
 463 712 463 712 527.5 698.5 c 128,-1,19
 592 685 592 685 640 662 c 1,20,-1
 595 538 l 1,21,22
 547 561 547 561 498.5 571 c 128,-1,23
 450 581 450 581 400 581 c 0,24,25
 320 581 320 581 281.5 556.5 c 128,-1,26
 243 532 243 532 243 494 c 0,27,28
 243 458 243 458 269 438 c 128,-1,29
 295 418 295 418 350 418 c 2,30,-1
 541 418 l 1,31,-1
 541 290 l 1,32,-1
 340 290 l 2,33,34
 300 290 300 290 271.5 280.5 c 128,-1,35
 243 271 243 271 228 253 c 128,-1,36
 213 235 213 235 213 208 c 0,37,38
 213 168 213 168 254 143.5 c 128,-1,39
 295 119 295 119 386 119 c 0,40,41
 448 119 448 119 509.5 135.5 c 128,-1,42
 571 152 571 152 615 182 c 1,43,-1
 665 60 l 1,44,45
 616 27 616 27 540 7.5 c 128,-1,46
 464 -12 464 -12 379 -12 c 0,0,1
159 -70 m 1,47,-1
 544 770 l 1,48,-1
 643 770 l 1,49,-1
 259 -70 l 1,50,-1
 159 -70 l 1,47,-1
EndSplineSet
EndChar

StartChar: uni018E.ss01
Encoding: 65616 -1 442
Width: 672
GlyphClass: 2
Flags: W
AnchorPoint: "Anchor-3" 288 700 basechar 0
AnchorPoint: "Anchor-0" 288 0 basechar 0
LayerCount: 2
Fore
SplineSet
290 -12 m 0,0,1
 203 -12 203 -12 129.5 7.5 c 128,-1,2
 56 27 56 27 5 60 c 1,3,-1
 56 182 l 1,4,5
 103 151 103 151 163 135 c 128,-1,6
 223 119 223 119 291 119 c 0,7,8
 377 119 377 119 417.5 144 c 128,-1,9
 458 169 458 169 458 212 c 0,10,11
 458 240 458 240 443 259 c 128,-1,12
 428 278 428 278 399.5 288 c 128,-1,13
 371 298 371 298 331 298 c 2,14,-1
 150 298 l 1,15,-1
 150 420 l 1,16,-1
 321 420 l 2,17,18
 375 420 375 420 401.5 439 c 128,-1,19
 428 458 428 458 428 493 c 0,20,21
 428 525 428 525 409.5 544 c 128,-1,22
 391 563 391 563 360 571.5 c 128,-1,23
 329 580 329 580 291 580 c 0,24,25
 255 580 255 580 216 573.5 c 128,-1,26
 177 567 177 567 142 555.5 c 128,-1,27
 107 544 107 544 79 529 c 1,28,-1
 34 653 l 1,29,30
 87 681 87 681 154 696.5 c 128,-1,31
 221 712 221 712 290 712 c 0,32,33
 348 712 348 712 402 700.5 c 128,-1,34
 456 689 456 689 499 665 c 128,-1,35
 542 641 542 641 567 604.5 c 128,-1,36
 592 568 592 568 592 517 c 0,37,38
 592 471 592 471 570 431 c 128,-1,39
 548 391 548 391 506 366 c 128,-1,40
 464 341 464 341 405 341 c 1,41,-1
 410 376 l 1,42,43
 471 376 471 376 518.5 355 c 128,-1,44
 566 334 566 334 593.5 294.5 c 128,-1,45
 621 255 621 255 621 200 c 0,46,47
 621 138 621 138 582.5 90 c 128,-1,48
 544 42 544 42 470.5 15 c 128,-1,49
 397 -12 397 -12 290 -12 c 0,0,1
EndSplineSet
EndChar

StartChar: uni018F.ss01
Encoding: 65617 -1 443
Width: 837
GlyphClass: 2
Flags: W
AnchorPoint: "Anchor-3" 418 700 basechar 0
AnchorPoint: "Anchor-2" 481 0 basechar 0
AnchorPoint: "Anchor-0" 418 0 basechar 0
LayerCount: 2
Fore
SplineSet
419 -12 m 0,0,1
 332 -12 332 -12 260.5 19 c 128,-1,2
 189 50 189 50 139 107.5 c 128,-1,3
 89 165 89 165 65 245 c 1,4,-1
 628 471 l 1,5,-1
 662 365 l 1,6,-1
 180 168 l 1,7,-1
 230 275 l 1,8,9
 240 202 240 202 287.5 159.5 c 128,-1,10
 335 117 335 117 419 117 c 0,11,12
 467 117 467 117 505 132 c 128,-1,13
 543 147 543 147 569.5 175.5 c 128,-1,14
 596 204 596 204 610 243.5 c 128,-1,15
 624 283 624 283 624 331 c 2,16,-1
 624 357 l 2,17,18
 624 404 624 404 607.5 444 c 128,-1,19
 591 484 591 484 562 513 c 128,-1,20
 533 542 533 542 493 558 c 128,-1,21
 453 574 453 574 407 574 c 0,22,23
 371 574 371 574 334 565 c 128,-1,24
 297 556 297 556 263.5 538 c 128,-1,25
 230 520 230 520 204 492 c 1,26,-1
 107 597 l 1,27,28
 140 631 140 631 187.5 657 c 128,-1,29
 235 683 235 683 291 697.5 c 128,-1,30
 347 712 347 712 408 712 c 0,31,32
 491 712 491 712 560.5 685.5 c 128,-1,33
 630 659 630 659 681.5 610 c 128,-1,34
 733 561 733 561 760.5 495 c 128,-1,35
 788 429 788 429 788 351 c 0,36,37
 788 271 788 271 760.5 205 c 128,-1,38
 733 139 733 139 683 90.5 c 128,-1,39
 633 42 633 42 566 15 c 128,-1,40
 499 -12 499 -12 419 -12 c 0,0,1
EndSplineSet
EndChar

StartChar: F.ss01
Encoding: 65618 -1 444
Width: 635
GlyphClass: 2
Flags: W
AnchorPoint: "Anchor-3" 374 700 basechar 0
AnchorPoint: "Anchor-0" 374 0 basechar 0
LayerCount: 2
Fore
SplineSet
87 0 m 1,0,-1
 87 427 l 2,1,2
 87 562 87 562 172 637 c 128,-1,3
 257 712 257 712 408 712 c 0,4,5
 469 712 469 712 521.5 699.5 c 128,-1,6
 574 687 574 687 613 663 c 1,7,-1
 563 535 l 1,8,9
 531 556 531 556 493.5 565 c 128,-1,10
 456 574 456 574 419 574 c 0,11,12
 335 574 335 574 292 537.5 c 128,-1,13
 249 501 249 501 249 428 c 2,14,-1
 249 0 l 1,15,-1
 87 0 l 1,0,-1
188 255 m 1,16,-1
 188 385 l 1,17,-1
 537 385 l 1,18,-1
 537 255 l 1,19,-1
 188 255 l 1,16,-1
EndSplineSet
EndChar

StartChar: uni0191.ss01
Encoding: 65620 -1 446
Width: 659
GlyphClass: 1
Flags: W
LayerCount: 2
Fore
SplineSet
-34 -182 m 1,0,-1
 6 -66 l 1,1,2
 26 -74 26 -74 44.5 -74.5 c 128,-1,3
 63 -75 63 -75 78 -67.5 c 128,-1,4
 93 -60 93 -60 102 -45 c 128,-1,5
 111 -30 111 -30 111 -8 c 2,6,-1
 111 427 l 2,7,8
 111 562 111 562 196 637 c 128,-1,9
 281 712 281 712 432 712 c 0,10,11
 492 712 492 712 545 699.5 c 128,-1,12
 598 687 598 687 637 663 c 1,13,-1
 587 535 l 1,14,15
 555 556 555 556 517.5 565 c 128,-1,16
 480 574 480 574 442 574 c 0,17,18
 359 574 359 574 314.5 537.5 c 128,-1,19
 270 501 270 501 273 428 c 2,20,-1
 273 -17 l 2,21,22
 273 -67 273 -67 254.5 -104 c 128,-1,23
 236 -141 236 -141 204.5 -164 c 128,-1,24
 173 -187 173 -187 133 -196.5 c 128,-1,25
 93 -206 93 -206 50 -202.5 c 128,-1,26
 7 -199 7 -199 -34 -182 c 1,0,-1
212 255 m 1,27,-1
 212 385 l 1,28,-1
 560 385 l 1,29,-1
 560 255 l 1,30,-1
 212 255 l 1,27,-1
EndSplineSet
EndChar

StartChar: G.ss01
Encoding: 65621 -1 447
Width: 791
GlyphClass: 2
Flags: W
AnchorPoint: "Anchor-3" 427 700 basechar 0
AnchorPoint: "Anchor-0" 417 0 basechar 0
LayerCount: 2
Fore
SplineSet
404 -12 m 0,0,1
 333 -12 333 -12 269 11 c 128,-1,2
 205 34 205 34 155 79.5 c 128,-1,3
 105 125 105 125 77 191.5 c 128,-1,4
 49 258 49 258 49 344 c 0,5,6
 49 426 49 426 77.5 493 c 128,-1,7
 106 560 106 560 158 609 c 128,-1,8
 210 658 210 658 280 685 c 128,-1,9
 350 712 350 712 434 712 c 0,10,11
 527 712 527 712 601.5 681 c 128,-1,12
 676 650 676 650 727 591 c 1,13,-1
 623 495 l 1,14,15
 585 535 585 535 540 554.5 c 128,-1,16
 495 574 495 574 442 574 c 0,17,18
 391 574 391 574 349 558 c 128,-1,19
 307 542 307 542 276.5 512 c 128,-1,20
 246 482 246 482 229.5 439.5 c 128,-1,21
 213 397 213 397 213 345 c 0,22,23
 213 290 213 290 230 248 c 128,-1,24
 247 206 247 206 276.5 178.5 c 128,-1,25
 306 151 306 151 343.5 137 c 128,-1,26
 381 123 381 123 423 123 c 0,27,28
 476 123 476 123 524 144.5 c 128,-1,29
 572 166 572 166 603 211 c 1,30,-1
 672 144 l 1,31,32
 636 63 636 63 566.5 25.5 c 128,-1,33
 497 -12 497 -12 404 -12 c 0,0,1
592 0 m 1,34,-1
 592 92 l 1,35,-1
 566 110 l 1,36,-1
 566 361 l 1,37,-1
 714 361 l 1,38,-1
 714 0 l 1,39,-1
 592 0 l 1,34,-1
EndSplineSet
EndChar

StartChar: uni0193.ss01
Encoding: 65628 -1 454
Width: 807
GlyphClass: 2
Flags: W
AnchorPoint: "Anchor-3" 427 700 basechar 0
AnchorPoint: "Anchor-0" 417 0 basechar 0
LayerCount: 2
Fore
SplineSet
589 589 m 1,0,-1
 589 671 l 2,1,2
 589 732 589 732 613 771.5 c 128,-1,3
 637 811 637 811 676 831 c 128,-1,4
 715 851 715 851 762.5 851.5 c 128,-1,5
 810 852 810 852 856 833 c 1,6,-1
 820 721 l 1,7,8
 799 730 799 730 777 726 c 128,-1,9
 755 722 755 722 741 707 c 128,-1,10
 727 692 727 692 727 665 c 2,11,-1
 727 591 l 1,12,-1
 589 589 l 1,0,-1
404 -12 m 0,13,14
 333 -12 333 -12 269 11 c 128,-1,15
 205 34 205 34 155 79.5 c 128,-1,16
 105 125 105 125 77 191.5 c 128,-1,17
 49 258 49 258 49 344 c 0,18,19
 49 426 49 426 77.5 493 c 128,-1,20
 106 560 106 560 158 609 c 128,-1,21
 210 658 210 658 280 685 c 128,-1,22
 350 712 350 712 434 712 c 0,23,24
 527 712 527 712 601.5 681 c 128,-1,25
 676 650 676 650 727 591 c 1,26,-1
 623 495 l 1,27,28
 585 535 585 535 540 554.5 c 128,-1,29
 495 574 495 574 442 574 c 0,30,31
 391 574 391 574 349 558 c 128,-1,32
 307 542 307 542 276.5 512 c 128,-1,33
 246 482 246 482 229.5 439.5 c 128,-1,34
 213 397 213 397 213 345 c 0,35,36
 213 290 213 290 230 248 c 128,-1,37
 247 206 247 206 276.5 178.5 c 128,-1,38
 306 151 306 151 343.5 137 c 128,-1,39
 381 123 381 123 423 123 c 0,40,41
 476 123 476 123 524 144.5 c 128,-1,42
 572 166 572 166 603 211 c 1,43,-1
 672 144 l 1,44,45
 636 63 636 63 566.5 25.5 c 128,-1,46
 497 -12 497 -12 404 -12 c 0,13,14
592 0 m 1,47,-1
 592 92 l 1,48,-1
 566 110 l 1,49,-1
 566 361 l 1,50,-1
 714 361 l 1,51,-1
 714 0 l 1,52,-1
 592 0 l 1,47,-1
EndSplineSet
EndChar

StartChar: uni01E4.ss01
Encoding: 65630 -1 456
Width: 836
GlyphClass: 2
Flags: W
AnchorPoint: "Anchor-3" 427 700 basechar 0
AnchorPoint: "Anchor-0" 417 0 basechar 0
LayerCount: 2
Fore
SplineSet
404 -12 m 0,0,1
 333 -12 333 -12 269 11 c 128,-1,2
 205 34 205 34 155 79.5 c 128,-1,3
 105 125 105 125 77 191.5 c 128,-1,4
 49 258 49 258 49 344 c 0,5,6
 49 426 49 426 77.5 493 c 128,-1,7
 106 560 106 560 158 609 c 128,-1,8
 210 658 210 658 280 685 c 128,-1,9
 350 712 350 712 434 712 c 0,10,11
 527 712 527 712 601.5 681 c 128,-1,12
 676 650 676 650 727 591 c 1,13,-1
 623 495 l 1,14,15
 585 535 585 535 540 554.5 c 128,-1,16
 495 574 495 574 442 574 c 0,17,18
 391 574 391 574 349 558 c 128,-1,19
 307 542 307 542 276.5 512 c 128,-1,20
 246 482 246 482 229.5 439.5 c 128,-1,21
 213 397 213 397 213 345 c 0,22,23
 213 290 213 290 230 248 c 128,-1,24
 247 206 247 206 276.5 178.5 c 128,-1,25
 306 151 306 151 343.5 137 c 128,-1,26
 381 123 381 123 423 123 c 0,27,28
 476 123 476 123 524 144.5 c 128,-1,29
 572 166 572 166 603 211 c 1,30,-1
 672 144 l 1,31,32
 636 63 636 63 566.5 25.5 c 128,-1,33
 497 -12 497 -12 404 -12 c 0,0,1
592 0 m 1,34,-1
 592 92 l 1,35,-1
 566 110 l 1,36,-1
 566 361 l 1,37,-1
 714 361 l 1,38,-1
 714 0 l 1,39,-1
 592 0 l 1,34,-1
434 208 m 1,40,-1
 434 317 l 1,41,-1
 802 317 l 1,42,-1
 802 208 l 1,43,-1
 434 208 l 1,40,-1
EndSplineSet
EndChar

StartChar: I.ss01
Encoding: 65631 -1 457
Width: 503
GlyphClass: 2
Flags: W
AnchorPoint: "Anchor-3" 252 700 basechar 0
AnchorPoint: "Anchor-2" 343 0 basechar 0
AnchorPoint: "Anchor-0" 252 0 basechar 0
LayerCount: 2
Fore
SplineSet
171 17 m 1,0,-1
 171 684 l 1,1,-1
 333 684 l 1,2,-1
 333 17 l 1,3,-1
 171 17 l 1,0,-1
49 0 m 1,4,-1
 49 129 l 1,5,-1
 454 129 l 1,6,-1
 454 0 l 1,7,-1
 49 0 l 1,4,-1
49 571 m 1,8,-1
 49 700 l 1,9,-1
 454 700 l 1,10,-1
 454 571 l 1,11,-1
 49 571 l 1,8,-1
EndSplineSet
EndChar

StartChar: IJ.ss01
Encoding: 65632 -1 458
Width: 744
GlyphClass: 2
Flags: W
AnchorPoint: "Anchor-3" 178 700 basechar 0
LayerCount: 2
Fore
SplineSet
337 -109 m 0,0,1
 258 -109 258 -109 189.5 -88 c 128,-1,2
 121 -67 121 -67 71 -32 c 1,3,-1
 132 90 l 1,4,5
 178 58 178 58 231 42 c 128,-1,6
 284 26 284 26 334 26 c 0,7,8
 414 26 414 26 454.5 70 c 128,-1,9
 495 114 495 114 495 208 c 2,10,-1
 495 700 l 1,11,-1
 657 700 l 1,12,-1
 657 218 l 2,13,14
 657 111 657 111 617 38 c 128,-1,15
 577 -35 577 -35 505.5 -72 c 128,-1,16
 434 -109 434 -109 337 -109 c 0,0,1
87 222 m 1,17,-1
 87 700 l 1,18,-1
 249 700 l 1,19,-1
 249 222 l 1,20,-1
 87 222 l 1,17,-1
EndSplineSet
EndChar

StartChar: Iogonek.ss01
Encoding: 65645 -1 471
Width: 503
GlyphClass: 2
Flags: W
AnchorPoint: "Anchor-3" 252 700 basechar 0
AnchorPoint: "Anchor-2" 343 0 basechar 0
AnchorPoint: "Anchor-0" 252 0 basechar 0
LayerCount: 2
Fore
SplineSet
171 17 m 1,0,-1
 171 684 l 1,1,-1
 333 684 l 1,2,-1
 333 17 l 1,3,-1
 171 17 l 1,0,-1
263 -232 m 0,4,5
 224 -232 224 -232 193 -219 c 128,-1,6
 162 -206 162 -206 143.5 -181 c 128,-1,7
 125 -156 125 -156 125 -120 c 0,8,9
 125 -89 125 -89 140 -59 c 128,-1,10
 155 -29 155 -29 182 -3.5 c 128,-1,11
 209 22 209 22 244 40 c 1,12,-1
 307 0 l 1,13,14
 265 -28 265 -28 244.5 -55 c 128,-1,15
 224 -82 224 -82 224 -106 c 256,16,17
 224 -130 224 -130 240.5 -141.5 c 128,-1,18
 257 -153 257 -153 282 -153 c 0,19,20
 299 -153 299 -153 314.5 -148.5 c 128,-1,21
 330 -144 330 -144 342 -138 c 1,22,-1
 365 -209 l 1,23,24
 345 -220 345 -220 318 -226 c 128,-1,25
 291 -232 291 -232 263 -232 c 0,4,5
49 0 m 1,26,-1
 49 130 l 1,27,-1
 454 130 l 1,28,-1
 454 0 l 1,29,-1
 49 0 l 1,26,-1
49 570 m 1,30,-1
 49 700 l 1,31,-1
 454 700 l 1,32,-1
 454 570 l 1,33,-1
 49 570 l 1,30,-1
EndSplineSet
EndChar

StartChar: uni0197.ss01
Encoding: 65646 -1 472
Width: 503
GlyphClass: 2
Flags: W
AnchorPoint: "Anchor-3" 252 700 basechar 0
AnchorPoint: "Anchor-2" 343 0 basechar 0
AnchorPoint: "Anchor-0" 252 0 basechar 0
LayerCount: 2
Fore
SplineSet
171 17 m 1,0,-1
 171 684 l 1,1,-1
 333 684 l 1,2,-1
 333 17 l 1,3,-1
 171 17 l 1,0,-1
49 0 m 1,4,-1
 49 129 l 1,5,-1
 454 129 l 1,6,-1
 454 0 l 1,7,-1
 49 0 l 1,4,-1
49 571 m 1,8,-1
 49 700 l 1,9,-1
 454 700 l 1,10,-1
 454 571 l 1,11,-1
 49 571 l 1,8,-1
83 303 m 1,12,-1
 83 412 l 1,13,-1
 422 412 l 1,14,-1
 422 303 l 1,15,-1
 83 303 l 1,12,-1
EndSplineSet
EndChar

StartChar: J.ss01
Encoding: 65649 -1 475
Width: 560
GlyphClass: 2
Flags: W
AnchorPoint: "Anchor-3" 270 700 basechar 0
LayerCount: 2
Fore
SplineSet
220 -112 m 0,0,1
 149 -112 149 -112 90.5 -85.5 c 128,-1,2
 32 -59 32 -59 -6 -10 c 1,3,-1
 82 98 l 1,4,5
 111 60 111 60 142.5 40.5 c 128,-1,6
 174 21 174 21 211 21 c 0,7,8
 311 21 311 21 311 137 c 2,9,-1
 311 570 l 1,10,-1
 66 570 l 1,11,-1
 66 700 l 1,12,-1
 473 700 l 1,13,-1
 473 146 l 2,14,15
 473 16 473 16 408.5 -48 c 128,-1,16
 344 -112 344 -112 220 -112 c 0,0,1
EndSplineSet
EndChar

StartChar: uniA7B2.ss01
Encoding: 65651 -1 477
Width: 560
GlyphClass: 2
Flags: W
AnchorPoint: "Anchor-3" 270 700 basechar 0
LayerCount: 2
Fore
SplineSet
231 -110 m 0,0,1
 168 -110 168 -110 122.5 -89.5 c 128,-1,2
 77 -69 77 -69 53 -33 c 128,-1,3
 29 3 29 3 29 47 c 0,4,5
 29 87 29 87 50.5 123 c 128,-1,6
 72 159 72 159 120.5 182.5 c 128,-1,7
 169 206 169 206 246 206 c 2,8,-1
 549 206 l 1,9,-1
 549 100 l 1,10,-1
 262 100 l 2,11,12
 223 100 223 100 201 91.5 c 128,-1,13
 179 83 179 83 170.5 70.5 c 128,-1,14
 162 58 162 58 162 46 c 256,15,16
 162 34 162 34 169.5 23.5 c 128,-1,17
 177 13 177 13 191.5 6.5 c 128,-1,18
 206 0 206 0 226 0 c 0,19,20
 248 0 248 0 267.5 9 c 128,-1,21
 287 18 287 18 299 39.5 c 128,-1,22
 311 61 311 61 311 96 c 2,23,-1
 311 570 l 1,24,-1
 66 570 l 1,25,-1
 66 700 l 1,26,-1
 473 700 l 1,27,-1
 473 115 l 2,28,29
 473 36 473 36 438.5 -13.5 c 128,-1,30
 404 -63 404 -63 348.5 -86.5 c 128,-1,31
 293 -110 293 -110 231 -110 c 0,0,1
EndSplineSet
EndChar

StartChar: uni0248.ss01
Encoding: 65652 -1 478
Width: 560
GlyphClass: 2
Flags: W
AnchorPoint: "Anchor-3" 270 700 basechar 0
LayerCount: 2
Fore
SplineSet
220 -112 m 0,0,1
 149 -112 149 -112 90.5 -85.5 c 128,-1,2
 32 -59 32 -59 -6 -10 c 1,3,-1
 82 98 l 1,4,5
 111 60 111 60 142.5 40.5 c 128,-1,6
 174 21 174 21 211 21 c 0,7,8
 311 21 311 21 311 137 c 2,9,-1
 311 570 l 1,10,-1
 66 570 l 1,11,-1
 66 700 l 1,12,-1
 473 700 l 1,13,-1
 473 146 l 2,14,15
 473 16 473 16 408.5 -48 c 128,-1,16
 344 -112 344 -112 220 -112 c 0,0,1
179 303 m 1,17,-1
 179 412 l 1,18,-1
 561 412 l 1,19,-1
 561 303 l 1,20,-1
 179 303 l 1,17,-1
EndSplineSet
EndChar

StartChar: M.ss01
Encoding: 65654 -1 480
Width: 1241
GlyphClass: 2
Flags: W
AnchorPoint: "Anchor-3" 619 700 basechar 0
AnchorPoint: "Anchor-0" 621 0 basechar 0
LayerCount: 2
Fore
SplineSet
93 0 m 1,0,-1
 93 700 l 1,1,-1
 250 700 l 1,2,-1
 250 548 l 1,3,-1
 228 573 l 1,4,5
 254 639 254 639 313.5 675.5 c 128,-1,6
 373 712 373 712 457 712 c 0,7,8
 546 712 546 712 605.5 672 c 128,-1,9
 665 632 665 632 688 561 c 1,10,-1
 641 565 l 1,11,12
 671 636 671 636 738 674 c 128,-1,13
 805 712 805 712 892 712 c 0,14,15
 1014 712 1014 712 1084 640.5 c 128,-1,16
 1154 569 1154 569 1154 430 c 2,17,-1
 1154 0 l 1,18,-1
 992 0 l 1,19,-1
 992 425 l 2,20,21
 992 502 992 502 952.5 538 c 128,-1,22
 913 574 913 574 852 574 c 0,23,24
 786 574 786 574 743.5 536 c 128,-1,25
 701 498 701 498 701 415 c 2,26,-1
 701 0 l 1,27,-1
 539 0 l 1,28,-1
 539 425 l 2,29,30
 539 502 539 502 502 538 c 128,-1,31
 465 574 465 574 405 574 c 0,32,33
 363 574 363 574 328.5 557.5 c 128,-1,34
 294 541 294 541 274.5 506 c 128,-1,35
 255 471 255 471 255 415 c 2,36,-1
 255 0 l 1,37,-1
 93 0 l 1,0,-1
EndSplineSet
EndChar

StartChar: N.ss01
Encoding: 65656 -1 482
Width: 816
GlyphClass: 2
Flags: W
AnchorPoint: "Anchor-3" 411 700 basechar 0
AnchorPoint: "Anchor-0" 411 0 basechar 0
LayerCount: 2
Fore
SplineSet
93 0 m 1,0,-1
 93 700 l 1,1,-1
 250 700 l 1,2,-1
 250 526 l 1,3,-1
 216 554 l 1,4,5
 249 634 249 634 312 673 c 128,-1,6
 375 712 375 712 464 712 c 0,7,8
 589 712 589 712 659 634 c 128,-1,9
 729 556 729 556 729 410 c 2,10,-1
 729 0 l 1,11,-1
 567 0 l 1,12,-1
 567 405 l 2,13,14
 567 491 567 491 526.5 532.5 c 128,-1,15
 486 574 486 574 418 574 c 0,16,17
 347 574 347 574 301 530.5 c 128,-1,18
 255 487 255 487 255 394 c 2,19,-1
 255 0 l 1,20,-1
 93 0 l 1,0,-1
EndSplineSet
EndChar

StartChar: Eng.ss01
Encoding: 65668 -1 494
Width: 816
GlyphClass: 2
Flags: W
AnchorPoint: "Anchor-3" 464 700 basechar 0
AnchorPoint: "Anchor-0" 408 -194 basechar 0
LayerCount: 2
Fore
SplineSet
478 -202 m 0,0,1
 422 -202 422 -202 374 -185.5 c 128,-1,2
 326 -169 326 -169 289 -136 c 1,3,-1
 365 -20 l 1,4,5
 386 -42 386 -42 412 -54 c 128,-1,6
 438 -66 438 -66 469 -66 c 0,7,8
 567 -66 567 -66 567 50 c 2,9,-1
 567 405 l 2,10,11
 567 491 567 491 526.5 532.5 c 128,-1,12
 486 574 486 574 418 574 c 0,13,14
 347 574 347 574 301 530.5 c 128,-1,15
 255 487 255 487 255 394 c 2,16,-1
 255 0 l 1,17,-1
 93 0 l 1,18,-1
 93 700 l 1,19,-1
 250 700 l 1,20,-1
 250 526 l 1,21,-1
 216 554 l 1,22,23
 249 634 249 634 312 673 c 128,-1,24
 375 712 375 712 464 712 c 0,25,26
 589 712 589 712 659 634 c 128,-1,27
 729 556 729 556 729 410 c 2,28,-1
 729 57 l 2,29,30
 729 -73 729 -73 664.5 -137.5 c 128,-1,31
 600 -202 600 -202 478 -202 c 0,0,1
EndSplineSet
EndChar

StartChar: Q.ss01
Encoding: 65669 -1 495
Width: 864
GlyphClass: 1
Flags: W
LayerCount: 2
Fore
SplineSet
432 -12 m 0,0,1
 350 -12 350 -12 279.5 15 c 128,-1,2
 209 42 209 42 157.5 91 c 128,-1,3
 106 140 106 140 77.5 206 c 128,-1,4
 49 272 49 272 49 350 c 256,5,6
 49 428 49 428 77.5 494 c 128,-1,7
 106 560 106 560 158 609 c 128,-1,8
 210 658 210 658 280 685 c 128,-1,9
 350 712 350 712 432 712 c 0,10,11
 515 712 515 712 584.5 685 c 128,-1,12
 654 658 654 658 705.5 609.5 c 128,-1,13
 757 561 757 561 786 495 c 128,-1,14
 815 429 815 429 815 350 c 0,15,16
 815 272 815 272 786 206 c 128,-1,17
 757 140 757 140 705.5 91 c 128,-1,18
 654 42 654 42 584.5 15 c 128,-1,19
 515 -12 515 -12 432 -12 c 0,0,1
350 -135 m 1,20,-1
 350 18 l 1,21,-1
 356 67 l 1,22,-1
 356 281 l 1,23,-1
 506 281 l 1,24,-1
 506 67 l 1,25,-1
 513 18 l 1,26,-1
 513 -135 l 1,27,-1
 350 -135 l 1,20,-1
432 126 m 256,28,29
 481 126 481 126 521 142 c 128,-1,30
 561 158 561 158 590 188 c 128,-1,31
 619 218 619 218 635 259 c 128,-1,32
 651 300 651 300 651 350 c 256,33,34
 651 400 651 400 634.5 441 c 128,-1,35
 618 482 618 482 588 512 c 128,-1,36
 558 542 558 542 518.5 558 c 128,-1,37
 479 574 479 574 432 574 c 256,38,39
 385 574 385 574 345 558 c 128,-1,40
 305 542 305 542 275.5 512 c 128,-1,41
 246 482 246 482 229.5 441 c 128,-1,42
 213 400 213 400 213 350 c 256,43,44
 213 300 213 300 229 259 c 128,-1,45
 245 218 245 218 274 188 c 128,-1,46
 303 158 303 158 343 142 c 128,-1,47
 383 126 383 126 432 126 c 256,28,29
EndSplineSet
EndChar

StartChar: T.ss01
Encoding: 65670 -1 496
Width: 658
GlyphClass: 2
Flags: W
AnchorPoint: "Anchor-3" 332 700 basechar 0
AnchorPoint: "Anchor-1" 329 342 basechar 0
AnchorPoint: "Anchor-0" 329 0 basechar 0
LayerCount: 2
Fore
SplineSet
54 504 m 1,0,-1
 -1 625 l 1,1,2
 72 669 72 669 156.5 690.5 c 128,-1,3
 241 712 241 712 328 712 c 0,4,5
 416 712 416 712 501 690.5 c 128,-1,6
 586 669 586 669 658 625 c 1,7,-1
 603 504 l 1,8,9
 541 540 541 540 473 558 c 128,-1,10
 405 576 405 576 328 576 c 0,11,12
 252 576 252 576 184.5 558 c 128,-1,13
 117 540 117 540 54 504 c 1,0,-1
248 0 m 1,14,-1
 248 632 l 1,15,-1
 410 632 l 1,16,-1
 410 0 l 1,17,-1
 248 0 l 1,14,-1
EndSplineSet
EndChar

StartChar: Tbar.ss01
Encoding: 65671 -1 497
Width: 658
GlyphClass: 2
Flags: W
AnchorPoint: "Anchor-3" 332 700 basechar 0
AnchorPoint: "Anchor-1" 329 342 basechar 0
AnchorPoint: "Anchor-0" 329 0 basechar 0
LayerCount: 2
Fore
SplineSet
54 504 m 1,0,-1
 -1 625 l 1,1,2
 72 669 72 669 156.5 690.5 c 128,-1,3
 241 712 241 712 328 712 c 0,4,5
 416 712 416 712 501 690.5 c 128,-1,6
 586 669 586 669 658 625 c 1,7,-1
 603 504 l 1,8,9
 541 540 541 540 473 558 c 128,-1,10
 405 576 405 576 328 576 c 0,11,12
 252 576 252 576 184.5 558 c 128,-1,13
 117 540 117 540 54 504 c 1,0,-1
248 0 m 1,14,-1
 248 632 l 1,15,-1
 410 632 l 1,16,-1
 410 0 l 1,17,-1
 248 0 l 1,14,-1
115 287 m 1,18,-1
 115 396 l 1,19,-1
 543 396 l 1,20,-1
 543 287 l 1,21,-1
 115 287 l 1,18,-1
EndSplineSet
EndChar

StartChar: uni023E.ss01
Encoding: 65676 -1 502
Width: 658
GlyphClass: 2
Flags: W
AnchorPoint: "Anchor-3" 330 700 basechar 0
AnchorPoint: "Anchor-1" 330 329 basechar 0
AnchorPoint: "Anchor-0" 330 0 basechar 0
LayerCount: 2
Fore
SplineSet
128 -70 m 1,0,-1
 512 770 l 1,1,-1
 612 770 l 1,2,-1
 227 -70 l 1,3,-1
 128 -70 l 1,0,-1
54 504 m 1,4,-1
 -1 625 l 1,5,6
 72 669 72 669 156.5 690.5 c 128,-1,7
 241 712 241 712 328 712 c 0,8,9
 416 712 416 712 501 690.5 c 128,-1,10
 586 669 586 669 658 625 c 1,11,-1
 603 504 l 1,12,13
 541 540 541 540 473 558 c 128,-1,14
 405 576 405 576 328 576 c 0,15,16
 252 576 252 576 184.5 558 c 128,-1,17
 117 540 117 540 54 504 c 1,4,-1
253 0 m 1,18,-1
 253 632 l 1,19,-1
 405 632 l 1,20,-1
 405 0 l 1,21,-1
 253 0 l 1,18,-1
EndSplineSet
Substitution2: "'rvrn' Required Variation Alternates lookup 0 subtable" uni023E.ss01.BRACKET.varAlt01
EndChar

StartChar: uni01AC.ss01
Encoding: 65679 -1 505
Width: 697
GlyphClass: 2
Flags: W
AnchorPoint: "Anchor-3" 369 700 basechar 0
AnchorPoint: "Anchor-1" 369 328 basechar 0
AnchorPoint: "Anchor-0" 369 0 basechar 0
LayerCount: 2
Fore
SplineSet
59 344 m 1,0,1
 22 384 22 384 7.5 432.5 c 128,-1,2
 -7 481 -7 481 6 530.5 c 128,-1,3
 19 580 19 580 60.5 621 c 128,-1,4
 102 662 102 662 176.5 687 c 128,-1,5
 251 712 251 712 362 712 c 0,6,7
 456 712 456 712 540 691 c 128,-1,8
 624 670 624 670 698 625 c 1,9,-1
 643 504 l 1,10,11
 597 530 597 530 553.5 545.5 c 128,-1,12
 510 561 510 561 462.5 568.5 c 128,-1,13
 415 576 415 576 358 576 c 0,14,15
 269 576 269 576 219 560.5 c 128,-1,16
 169 545 169 545 151 519.5 c 128,-1,17
 133 494 133 494 139.5 463.5 c 128,-1,18
 146 433 146 433 170 403 c 1,19,-1
 59 344 l 1,0,1
287 0 m 1,20,-1
 287 632 l 1,21,-1
 450 632 l 1,22,-1
 450 0 l 1,23,-1
 287 0 l 1,20,-1
EndSplineSet
EndChar

StartChar: uni01AE.ss01
Encoding: 65681 -1 507
Width: 673
GlyphClass: 2
Flags: W
AnchorPoint: "Anchor-3" 337 700 basechar 0
AnchorPoint: "Anchor-1" 337 328 basechar 0
AnchorPoint: "Anchor-0" 337 0 basechar 0
LayerCount: 2
Fore
SplineSet
590 -169 m 1,0,1
 536 -197 536 -197 478 -202.5 c 128,-1,2
 420 -208 420 -208 369.5 -189.5 c 128,-1,3
 319 -171 319 -171 287 -127 c 128,-1,4
 255 -83 255 -83 255 -12 c 2,5,-1
 255 589 l 1,6,-1
 418 589 l 1,7,-1
 418 -9 l 2,8,9
 418 -34 418 -34 429 -49.5 c 128,-1,10
 440 -65 440 -65 458 -71 c 128,-1,11
 476 -77 476 -77 499 -73 c 128,-1,12
 522 -69 522 -69 545 -55 c 1,13,-1
 590 -169 l 1,0,1
61 504 m 1,14,-1
 6 625 l 1,15,16
 79 669 79 669 163.5 690.5 c 128,-1,17
 248 712 248 712 336 712 c 0,18,19
 423 712 423 712 508 690.5 c 128,-1,20
 593 669 593 669 665 625 c 1,21,-1
 610 504 l 1,22,23
 548 540 548 540 480 558 c 128,-1,24
 412 576 412 576 336 576 c 0,25,26
 259 576 259 576 191.5 558 c 128,-1,27
 124 540 124 540 61 504 c 1,14,-1
EndSplineSet
EndChar

StartChar: uniA7B1.ss01
Encoding: 65682 -1 508
Width: 658
GlyphClass: 1
Flags: W
LayerCount: 2
Fore
SplineSet
603 196 m 1,0,-1
 658 75 l 1,1,2
 586 31 586 31 501.5 9.5 c 128,-1,3
 417 -12 417 -12 329 -12 c 256,4,5
 241 -12 241 -12 156.5 9.5 c 128,-1,6
 72 31 72 31 -1 75 c 1,7,-1
 54 196 l 1,8,9
 117 160 117 160 184.5 142 c 128,-1,10
 252 124 252 124 329 124 c 0,11,12
 405 124 405 124 472.5 142 c 128,-1,13
 540 160 540 160 603 196 c 1,0,-1
410 700 m 1,14,-1
 410 68 l 1,15,-1
 247 68 l 1,16,-1
 247 700 l 1,17,-1
 410 700 l 1,14,-1
EndSplineSet
EndChar

StartChar: U.ss01
Encoding: 65683 -1 509
Width: 812
GlyphClass: 2
Flags: W
AnchorPoint: "Anchor-4" 652 700 basechar 0
AnchorPoint: "Anchor-3" 401 700 basechar 0
AnchorPoint: "Anchor-2" 719 0 basechar 0
AnchorPoint: "Anchor-1" 403 366 basechar 0
AnchorPoint: "Anchor-0" 401 0 basechar 0
LayerCount: 2
Fore
SplineSet
350 -12 m 0,0,1
 228 -12 228 -12 157.5 66 c 128,-1,2
 87 144 87 144 87 290 c 2,3,-1
 87 700 l 1,4,-1
 249 700 l 1,5,-1
 249 295 l 2,6,7
 249 209 249 209 289.5 167.5 c 128,-1,8
 330 126 330 126 396 126 c 0,9,10
 465 126 465 126 511 169.5 c 128,-1,11
 557 213 557 213 557 306 c 2,12,-1
 557 700 l 1,13,-1
 719 700 l 1,14,-1
 719 0 l 1,15,-1
 562 0 l 1,16,-1
 562 174 l 1,17,-1
 596 146 l 1,18,19
 564 66 564 66 501 27 c 128,-1,20
 438 -12 438 -12 350 -12 c 0,0,1
EndSplineSet
EndChar

StartChar: uni0244.ss01
Encoding: 65685 -1 511
Width: 827
GlyphClass: 2
Flags: W
AnchorPoint: "Anchor-4" 653 700 basechar 0
AnchorPoint: "Anchor-3" 402 700 basechar 0
AnchorPoint: "Anchor-2" 720 0 basechar 0
AnchorPoint: "Anchor-1" 404 366 basechar 0
AnchorPoint: "Anchor-0" 402 0 basechar 0
LayerCount: 2
Fore
SplineSet
351 -12 m 0,0,1
 229 -12 229 -12 158.5 66 c 128,-1,2
 88 144 88 144 88 290 c 2,3,-1
 88 700 l 1,4,-1
 250 700 l 1,5,-1
 250 295 l 2,6,7
 250 209 250 209 290.5 167.5 c 128,-1,8
 331 126 331 126 397 126 c 0,9,10
 466 126 466 126 512 169.5 c 128,-1,11
 558 213 558 213 558 306 c 2,12,-1
 558 700 l 1,13,-1
 720 700 l 1,14,-1
 720 0 l 1,15,-1
 563 0 l 1,16,-1
 563 174 l 1,17,-1
 597 146 l 1,18,19
 565 66 565 66 502 27 c 128,-1,20
 439 -12 439 -12 351 -12 c 0,0,1
0 303 m 1,21,-1
 0 412 l 1,22,-1
 809 412 l 1,23,-1
 809 303 l 1,24,-1
 0 303 l 1,21,-1
EndSplineSet
EndChar

StartChar: W.ss01
Encoding: 65715 -1 541
Width: 1221
GlyphClass: 2
Flags: W
AnchorPoint: "Anchor-3" 610 700 basechar 0
AnchorPoint: "Anchor-0" 611 0 basechar 0
LayerCount: 2
Fore
SplineSet
390 -12 m 0,0,1
 246 -12 246 -12 166.5 64 c 128,-1,2
 87 140 87 140 87 287 c 2,3,-1
 87 700 l 1,4,-1
 249 700 l 1,5,-1
 249 292 l 2,6,7
 249 205 249 205 285 165.5 c 128,-1,8
 321 126 321 126 388 126 c 256,9,10
 455 126 455 126 492 165.5 c 128,-1,11
 529 205 529 205 529 292 c 2,12,-1
 529 700 l 1,13,-1
 691 700 l 1,14,-1
 691 292 l 2,15,16
 691 205 691 205 728 165.5 c 128,-1,17
 765 126 765 126 833 126 c 0,18,19
 899 126 899 126 935 165.5 c 128,-1,20
 971 205 971 205 971 292 c 2,21,-1
 971 700 l 1,22,-1
 1134 700 l 1,23,-1
 1134 287 l 2,24,25
 1134 140 1134 140 1054.5 64 c 128,-1,26
 975 -12 975 -12 831 -12 c 0,27,28
 740 -12 740 -12 676.5 20.5 c 128,-1,29
 613 53 613 53 581 106 c 1,30,-1
 639 106 l 1,31,32
 607 53 607 53 544 20.5 c 128,-1,33
 481 -12 481 -12 390 -12 c 0,0,1
EndSplineSet
EndChar

StartChar: uni2C72.ss01
Encoding: 65722 -1 548
Width: 1230
GlyphClass: 2
Flags: W
AnchorPoint: "Anchor-3" 610 700 basechar 0
AnchorPoint: "Anchor-0" 611 0 basechar 0
LayerCount: 2
Fore
SplineSet
1134 567 m 2,0,-1
 1134 287 l 2,1,2
 1134 140 1134 140 1054.5 64 c 128,-1,3
 975 -12 975 -12 831 -12 c 0,4,5
 740 -12 740 -12 676.5 20.5 c 128,-1,6
 613 53 613 53 581 106 c 1,7,-1
 639 106 l 1,8,9
 607 53 607 53 544 20.5 c 128,-1,10
 481 -12 481 -12 390 -12 c 0,11,12
 246 -12 246 -12 166.5 64 c 128,-1,13
 87 140 87 140 87 287 c 2,14,-1
 87 700 l 1,15,-1
 249 700 l 1,16,-1
 249 292 l 2,17,18
 249 205 249 205 285 165.5 c 128,-1,19
 321 126 321 126 388 126 c 256,20,21
 455 126 455 126 492 165.5 c 128,-1,22
 529 205 529 205 529 292 c 2,23,-1
 529 700 l 1,24,-1
 691 700 l 1,25,-1
 691 292 l 2,26,27
 691 205 691 205 728 165.5 c 128,-1,28
 765 126 765 126 833 126 c 0,29,30
 899 126 899 126 935 165.5 c 128,-1,31
 971 205 971 205 971 292 c 2,32,-1
 971 567 l 2,33,34
 971 620 971 620 989.5 657.5 c 128,-1,35
 1008 695 1008 695 1039 718 c 128,-1,36
 1070 741 1070 741 1108.5 750 c 128,-1,37
 1147 759 1147 759 1187.5 755.5 c 128,-1,38
 1228 752 1228 752 1265 737 c 1,39,-1
 1229 625 l 1,40,41
 1205 634 1205 634 1183.5 630 c 128,-1,42
 1162 626 1162 626 1148 610 c 128,-1,43
 1134 594 1134 594 1134 567 c 2,0,-1
EndSplineSet
EndChar

StartChar: Y.ss01
Encoding: 65723 -1 549
Width: 805
GlyphClass: 2
Flags: W
AnchorPoint: "Anchor-3" 400 700 basechar 0
AnchorPoint: "Anchor-2" 461 -100 basechar 0
AnchorPoint: "Anchor-0" 681 0 basechar 0
LayerCount: 2
Fore
SplineSet
387 -108 m 0,0,1
 293 -108 293 -108 218.5 -81.5 c 128,-1,2
 144 -55 144 -55 93 -9 c 1,3,-1
 161 106 l 1,4,5
 209 68 209 68 265 48.5 c 128,-1,6
 321 29 321 29 383 29 c 0,7,8
 471 29 471 29 513.5 73 c 128,-1,9
 556 117 556 117 556 211 c 2,10,-1
 556 343 l 1,11,-1
 594 318 l 1,12,13
 561 241 561 241 500.5 204.5 c 128,-1,14
 440 168 440 168 358 168 c 0,15,16
 226 168 226 168 154 243.5 c 128,-1,17
 82 319 82 319 82 461 c 2,18,-1
 82 700 l 1,19,-1
 244 700 l 1,20,-1
 244 471 l 2,21,22
 244 387 244 387 283.5 346 c 128,-1,23
 323 305 323 305 393 305 c 0,24,25
 464 305 464 305 510 347 c 128,-1,26
 556 389 556 389 556 482 c 2,27,-1
 556 700 l 1,28,-1
 718 700 l 1,29,-1
 718 219 l 2,30,31
 718 113 718 113 678 40 c 128,-1,32
 638 -33 638 -33 563.5 -70.5 c 128,-1,33
 489 -108 489 -108 387 -108 c 0,0,1
EndSplineSet
EndChar

StartChar: uni01B3.ss01
Encoding: 65730 -1 556
Width: 815
GlyphClass: 2
Flags: W
AnchorPoint: "Anchor-3" 400 700 basechar 0
AnchorPoint: "Anchor-0" 681 0 basechar 0
LayerCount: 2
Fore
SplineSet
387 -108 m 0,0,1
 294 -108 294 -108 219.5 -82 c 128,-1,2
 145 -56 145 -56 94 -11 c 1,3,-1
 163 105 l 1,4,5
 209 68 209 68 265 48.5 c 128,-1,6
 321 29 321 29 383 29 c 0,7,8
 471 29 471 29 513.5 73 c 128,-1,9
 556 117 556 117 556 211 c 2,10,-1
 556 343 l 1,11,-1
 594 318 l 1,12,13
 561 241 561 241 500.5 204.5 c 128,-1,14
 440 168 440 168 358 168 c 0,15,16
 226 168 226 168 154 243.5 c 128,-1,17
 82 319 82 319 82 461 c 2,18,-1
 82 700 l 1,19,-1
 244 700 l 1,20,-1
 244 471 l 2,21,22
 244 387 244 387 283.5 346 c 128,-1,23
 323 305 323 305 393 305 c 0,24,25
 464 305 464 305 510 347 c 128,-1,26
 556 389 556 389 556 482 c 2,27,-1
 556 567 l 2,28,29
 556 620 556 620 574.5 657.5 c 128,-1,30
 593 695 593 695 624 718 c 128,-1,31
 655 741 655 741 693.5 750 c 128,-1,32
 732 759 732 759 772.5 755.5 c 128,-1,33
 813 752 813 752 850 737 c 1,34,-1
 814 625 l 1,35,36
 790 634 790 634 768 630 c 128,-1,37
 746 626 746 626 732 610 c 128,-1,38
 718 594 718 594 718 567 c 2,39,-1
 718 219 l 2,40,41
 718 113 718 113 678 40 c 128,-1,42
 638 -33 638 -33 563.5 -70.5 c 128,-1,43
 489 -108 489 -108 387 -108 c 0,0,1
EndSplineSet
EndChar

StartChar: uni024E.ss01
Encoding: 65733 -1 559
Width: 805
GlyphClass: 2
Flags: W
AnchorPoint: "Anchor-3" 400 700 basechar 0
AnchorPoint: "Anchor-0" 681 0 basechar 0
LayerCount: 2
Fore
SplineSet
387 -108 m 0,0,1
 293 -108 293 -108 218.5 -81.5 c 128,-1,2
 144 -55 144 -55 93 -9 c 1,3,-1
 161 106 l 1,4,5
 209 68 209 68 265 48.5 c 128,-1,6
 321 29 321 29 383 29 c 0,7,8
 471 29 471 29 513.5 73 c 128,-1,9
 556 117 556 117 556 211 c 2,10,-1
 556 343 l 1,11,-1
 594 318 l 1,12,13
 561 241 561 241 500.5 204.5 c 128,-1,14
 440 168 440 168 358 168 c 0,15,16
 226 168 226 168 154 243.5 c 128,-1,17
 82 319 82 319 82 461 c 2,18,-1
 82 700 l 1,19,-1
 244 700 l 1,20,-1
 244 471 l 2,21,22
 244 387 244 387 283.5 346 c 128,-1,23
 323 305 323 305 393 305 c 0,24,25
 464 305 464 305 510 347 c 128,-1,26
 556 389 556 389 556 482 c 2,27,-1
 556 700 l 1,28,-1
 718 700 l 1,29,-1
 718 219 l 2,30,31
 718 113 718 113 678 40 c 128,-1,32
 638 -33 638 -33 563.5 -70.5 c 128,-1,33
 489 -108 489 -108 387 -108 c 0,0,1
-6 499 m 1,34,-1
 -6 608 l 1,35,-1
 807 608 l 1,36,-1
 807 499 l 1,37,-1
 -6 499 l 1,34,-1
EndSplineSet
EndChar

StartChar: Z.ss01
Encoding: 65735 -1 561
Width: 701
GlyphClass: 2
Flags: W
AnchorPoint: "Anchor-3" 358 700 basechar 0
AnchorPoint: "Anchor-0" 361 0 basechar 0
LayerCount: 2
Fore
SplineSet
53 0 m 1,0,-1
 53 94 l 1,1,-1
 484 619 l 1,2,-1
 505 570 l 1,3,-1
 60 570 l 1,4,-1
 60 700 l 1,5,-1
 650 700 l 1,6,-1
 650 607 l 1,7,-1
 219 81 l 1,8,-1
 198 130 l 1,9,-1
 665 130 l 1,10,-1
 665 0 l 1,11,-1
 53 0 l 1,0,-1
343 294 m 1,12,-1
 301 296 l 1,13,-1
 108 296 l 1,14,-1
 108 417 l 1,15,-1
 378 417 l 1,16,-1
 420 414 l 1,17,-1
 594 414 l 1,18,-1
 594 294 l 1,19,-1
 343 294 l 1,12,-1
EndSplineSet
EndChar

StartChar: uni01B2.loclTOD0.ss01
Encoding: 65746 -1 572
Width: 781
GlyphClass: 2
Flags: W
AnchorPoint: "Anchor-3" 383 700 basechar 0
AnchorPoint: "Anchor-0" 383 0 basechar 0
LayerCount: 2
Fore
SplineSet
304 0 m 1,0,-1
 1 700 l 1,1,-1
 176 700 l 1,2,-1
 422 120 l 1,3,-1
 354 120 l 1,4,-1
 616 729 l 2,5,6
 640 786 640 786 673 819 c 128,-1,7
 706 852 706 852 744 863.5 c 128,-1,8
 782 875 782 875 822 868.5 c 128,-1,9
 862 862 862 862 898 840 c 1,10,-1
 848 723 l 1,11,12
 820 738 820 738 795 728.5 c 128,-1,13
 770 719 770 719 754 683 c 2,14,-1
 463 0 l 1,15,-1
 304 0 l 1,0,-1
EndSplineSet
EndChar

StartChar: T_h
Encoding: 65747 -1 573
Width: 1263
GlyphClass: 3
LigCaretCntFixed: 1
Flags: W
AnchorPoint: "Anchor-8" 321 700 baselig 0
AnchorPoint: "Anchor-6" 321 350 baselig 0
AnchorPoint: "Anchor-5" 321 0 baselig 0
AnchorPoint: "Anchor-8" 942 700 baselig 1
AnchorPoint: "Anchor-5" 942 0 baselig 1
AnchorPoint: "Anchor-6" 942 350 baselig 1
LayerCount: 2
Fore
SplineSet
238 0 m 1,0,-1
 238 568 l 1,1,-1
 14 568 l 1,2,-1
 14 700 l 1,3,-1
 656 700 l 1,4,-1
 656 568 l 1,5,-1
 400 568 l 1,6,-1
 400 0 l 1,7,-1
 238 0 l 1,0,-1
635 0 m 1,8,-1
 635 700 l 1,9,-1
 791 700 l 1,10,-1
 791 389 l 1,11,-1
 756 434 l 1,12,13
 785 488 785 488 838.5 517 c 128,-1,14
 892 546 892 546 961 546 c 0,15,16
 1025 546 1025 546 1075.5 520.5 c 128,-1,17
 1126 495 1126 495 1155.5 442.5 c 128,-1,18
 1185 390 1185 390 1185 308 c 2,19,-1
 1185 0 l 1,20,-1
 1029 0 l 1,21,-1
 1029 284 l 2,22,23
 1029 349 1029 349 1000 380 c 128,-1,24
 971 411 971 411 920 411 c 0,25,26
 882 411 882 411 853 395.5 c 128,-1,27
 824 380 824 380 807.5 348 c 128,-1,28
 791 316 791 316 791 266 c 2,29,-1
 791 0 l 1,30,-1
 635 0 l 1,8,-1
EndSplineSet
Ligature2: "'dlig' Discretionary Ligatures lookup 50 subtable" T h
LCarets2: 1 622
EndChar

StartChar: Iacute_J.loclNLD.ss01
Encoding: 65748 -1 574
Width: 744
GlyphClass: 2
LigCaretCntFixed: 1
Flags: W
LayerCount: 2
Fore
SplineSet
337 -108 m 0,0,1
 258 -108 258 -108 189.5 -86.5 c 128,-1,2
 121 -65 121 -65 71 -29 c 1,3,-1
 132 91 l 1,4,5
 178 60 178 60 230 44 c 128,-1,6
 282 28 282 28 331 28 c 0,7,8
 412 28 412 28 453 72.5 c 128,-1,9
 494 117 494 117 494 211 c 2,10,-1
 494 700 l 1,11,-1
 657 700 l 1,12,-1
 657 219 l 2,13,14
 657 113 657 113 617 40 c 128,-1,15
 577 -33 577 -33 505.5 -70.5 c 128,-1,16
 434 -108 434 -108 337 -108 c 0,0,1
87 222 m 1,17,-1
 87 700 l 1,18,-1
 249 700 l 1,19,-1
 249 222 l 1,20,-1
 87 222 l 1,17,-1
94 757 m 1,21,-1
 228 901 l 1,22,-1
 384 901 l 1,23,-1
 203 757 l 1,24,-1
 94 757 l 1,21,-1
501 757 m 1,25,-1
 636 901 l 1,26,-1
 792 901 l 1,27,-1
 610 757 l 1,28,-1
 501 757 l 1,25,-1
EndSplineSet
LCarets2: 1 363
EndChar

StartChar: uni026A
Encoding: 618 618 575
Width: 416
GlyphClass: 2
Flags: W
AnchorPoint: "Anchor-3" 208 538 basechar 0
AnchorPoint: "Anchor-2" 286 0 basechar 0
AnchorPoint: "Anchor-0" 208 0 basechar 0
LayerCount: 2
Fore
SplineSet
40 420 m 1,0,-1
 40 538 l 1,1,-1
 376 538 l 1,2,-1
 376 420 l 1,3,-1
 40 420 l 1,0,-1
40 0 m 1,4,-1
 40 118 l 1,5,-1
 376 118 l 1,6,-1
 376 0 l 1,7,-1
 40 0 l 1,4,-1
130 0 m 1,8,-1
 130 538 l 1,9,-1
 286 538 l 1,10,-1
 286 0 l 1,11,-1
 130 0 l 1,8,-1
EndSplineSet
Substitution2: "'smcp' Lowercase to Small Capitals lookup 48 subtable" uni026A.sc
Substitution2: "'aalt' Access All Alternates lookup 2 subtable" uni026A.sc
EndChar

StartChar: uni1D7B
Encoding: 7547 7547 576
Width: 460
GlyphClass: 2
Flags: W
AnchorPoint: "Anchor-3" 230 538 basechar 0
AnchorPoint: "Anchor-2" 308 0 basechar 0
AnchorPoint: "Anchor-0" 230 0 basechar 0
LayerCount: 2
Fore
SplineSet
62 420 m 1,0,-1
 62 538 l 1,1,-1
 398 538 l 1,2,-1
 398 420 l 1,3,-1
 62 420 l 1,0,-1
62 0 m 1,4,-1
 62 118 l 1,5,-1
 398 118 l 1,6,-1
 398 0 l 1,7,-1
 62 0 l 1,4,-1
152 0 m 1,8,-1
 152 538 l 1,9,-1
 308 538 l 1,10,-1
 308 0 l 1,11,-1
 152 0 l 1,8,-1
69 229 m 1,12,-1
 69 319 l 1,13,-1
 391 319 l 1,14,-1
 391 229 l 1,15,-1
 69 229 l 1,12,-1
EndSplineSet
Substitution2: "'smcp' Lowercase to Small Capitals lookup 48 subtable" uni1D7B.sc
Substitution2: "'aalt' Access All Alternates lookup 2 subtable" uni1D7B.sc
EndChar

StartChar: uni0274
Encoding: 628 628 577
Width: 691
GlyphClass: 2
Flags: W
AnchorPoint: "Anchor-3" 346 538 basechar 0
AnchorPoint: "Anchor-0" 346 0 basechar 0
LayerCount: 2
Fore
SplineSet
71 0 m 1,0,-1
 71 538 l 1,1,-1
 199 538 l 1,2,-1
 526 186 l 1,3,-1
 466 186 l 1,4,-1
 466 538 l 1,5,-1
 619 538 l 1,6,-1
 619 0 l 1,7,-1
 493 0 l 1,8,-1
 166 355 l 1,9,-1
 225 355 l 1,10,-1
 225 0 l 1,11,-1
 71 0 l 1,0,-1
EndSplineSet
Substitution2: "'smcp' Lowercase to Small Capitals lookup 48 subtable" uni0274.sc
Substitution2: "'aalt' Access All Alternates lookup 2 subtable" uni0274.sc
EndChar

StartChar: uni0280
Encoding: 640 640 578
Width: 645
GlyphClass: 2
Flags: W
AnchorPoint: "Anchor-3" 333 538 basechar 0
AnchorPoint: "Anchor-0" 333 0 basechar 0
LayerCount: 2
Fore
SplineSet
82 0 m 1,0,-1
 82 538 l 1,1,-1
 344 538 l 2,2,3
 464 538 464 538 532.5 484.5 c 128,-1,4
 601 431 601 431 601 340 c 0,5,6
 601 280 601 280 569.5 235.5 c 128,-1,7
 538 191 538 191 480.5 167.5 c 128,-1,8
 423 144 423 144 344 144 c 2,9,-1
 169 144 l 1,10,-1
 238 209 l 1,11,-1
 238 0 l 1,12,-1
 82 0 l 1,0,-1
444 0 m 1,13,-1
 299 197 l 1,14,-1
 466 197 l 1,15,-1
 612 0 l 1,16,-1
 444 0 l 1,13,-1
238 191 m 1,17,-1
 169 265 l 1,18,-1
 337 265 l 2,19,20
 389 265 389 265 416 284 c 128,-1,21
 443 303 443 303 443 340 c 256,22,23
 443 377 443 377 416 396.5 c 128,-1,24
 389 416 389 416 337 416 c 2,25,-1
 169 416 l 1,26,-1
 238 486 l 1,27,-1
 238 191 l 1,17,-1
EndSplineSet
Substitution2: "'smcp' Lowercase to Small Capitals lookup 48 subtable" uni0280.sc
Substitution2: "'aalt' Access All Alternates lookup 2 subtable" uni0280.sc
EndChar

StartChar: a
Encoding: 97 97 580
Width: 637
GlyphClass: 2
Flags: W
AnchorPoint: "Anchor-3" 315 538 basechar 0
AnchorPoint: "Anchor-2" 558 0 basechar 0
AnchorPoint: "Anchor-0" 303 0 basechar 0
LayerCount: 2
Fore
SplineSet
412 0 m 1,0,-1
 412 105 l 1,1,-1
 402 128 l 1,2,-1
 402 316 l 2,3,4
 402 366 402 366 371.5 394 c 128,-1,5
 341 422 341 422 278 422 c 0,6,7
 235 422 235 422 193.5 408.5 c 128,-1,8
 152 395 152 395 123 372 c 1,9,-1
 67 481 l 1,10,11
 111 512 111 512 173 529 c 128,-1,12
 235 546 235 546 299 546 c 0,13,14
 422 546 422 546 490 488 c 128,-1,15
 558 430 558 430 558 307 c 2,16,-1
 558 0 l 1,17,-1
 412 0 l 1,0,-1
248 -8 m 0,18,19
 185 -8 185 -8 140 13.5 c 128,-1,20
 95 35 95 35 71 72 c 128,-1,21
 47 109 47 109 47 155 c 0,22,23
 47 203 47 203 70.5 239 c 128,-1,24
 94 275 94 275 145 295.5 c 128,-1,25
 196 316 196 316 278 316 c 2,26,-1
 421 316 l 1,27,-1
 421 225 l 1,28,-1
 295 225 l 2,29,30
 240 225 240 225 219.5 207 c 128,-1,31
 199 189 199 189 199 162 c 0,32,33
 199 132 199 132 222.5 114.5 c 128,-1,34
 246 97 246 97 287 97 c 0,35,36
 326 97 326 97 357 115.5 c 128,-1,37
 388 134 388 134 402 170 c 1,38,-1
 426 98 l 1,39,40
 409 46 409 46 364 19 c 128,-1,41
 319 -8 319 -8 248 -8 c 0,18,19
EndSplineSet
Substitution2: "'ss01' Style Set 1 lookup 52 subtable" a.ss01
Substitution2: "'smcp' Lowercase to Small Capitals lookup 48 subtable" a.sc
Substitution2: "Single Substitution lookup 41 subtable" ordfeminine
AlternateSubs2: "'aalt' Access All Alternates lookup 3 subtable" ordfeminine a.sc a.ss01
EndChar

StartChar: uni2C65
Encoding: 11365 11365 611
Width: 637
GlyphClass: 2
Flags: W
AnchorPoint: "Anchor-3" 315 538 basechar 0
AnchorPoint: "Anchor-2" 558 0 basechar 0
AnchorPoint: "Anchor-0" 303 0 basechar 0
LayerCount: 2
Fore
SplineSet
412 0 m 1,0,-1
 412 105 l 1,1,-1
 402 128 l 1,2,-1
 402 316 l 2,3,4
 402 366 402 366 371.5 394 c 128,-1,5
 341 422 341 422 278 422 c 0,6,7
 235 422 235 422 193.5 408.5 c 128,-1,8
 152 395 152 395 123 372 c 1,9,-1
 67 481 l 1,10,11
 111 512 111 512 173 529 c 128,-1,12
 235 546 235 546 299 546 c 0,13,14
 422 546 422 546 490 488 c 128,-1,15
 558 430 558 430 558 307 c 2,16,-1
 558 0 l 1,17,-1
 412 0 l 1,0,-1
248 -8 m 0,18,19
 185 -8 185 -8 140 13.5 c 128,-1,20
 95 35 95 35 71 72 c 128,-1,21
 47 109 47 109 47 155 c 0,22,23
 47 203 47 203 70.5 239 c 128,-1,24
 94 275 94 275 145 295.5 c 128,-1,25
 196 316 196 316 278 316 c 2,26,-1
 421 316 l 1,27,-1
 421 225 l 1,28,-1
 295 225 l 2,29,30
 240 225 240 225 219.5 207 c 128,-1,31
 199 189 199 189 199 162 c 0,32,33
 199 132 199 132 222.5 114.5 c 128,-1,34
 246 97 246 97 287 97 c 0,35,36
 326 97 326 97 357 115.5 c 128,-1,37
 388 134 388 134 402 170 c 1,38,-1
 426 98 l 1,39,40
 409 46 409 46 364 19 c 128,-1,41
 319 -8 319 -8 248 -8 c 0,18,19
142 -76 m 1,42,-1
 425 615 l 1,43,-1
 502 615 l 1,44,-1
 219 -76 l 1,45,-1
 142 -76 l 1,42,-1
EndSplineSet
Substitution2: "'ss01' Style Set 1 lookup 52 subtable" uni2C65.ss01
Substitution2: "'smcp' Lowercase to Small Capitals lookup 48 subtable" uni2C65.sc
AlternateSubs2: "'aalt' Access All Alternates lookup 3 subtable" uni2C65.sc uni2C65.ss01
EndChar

StartChar: uni0250
Encoding: 592 592 613
Width: 637
GlyphClass: 2
Flags: W
AnchorPoint: "Anchor-3" 319 538 basechar 0
AnchorPoint: "Anchor-0" 319 0 basechar 0
LayerCount: 2
Fore
SplineSet
225 538 m 1,0,-1
 225 433 l 1,1,-1
 235 410 l 1,2,-1
 235 222 l 2,3,4
 235 172 235 172 265.5 144 c 128,-1,5
 296 116 296 116 359 116 c 0,6,7
 401 116 401 116 443 129.5 c 128,-1,8
 485 143 485 143 514 166 c 1,9,-1
 570 57 l 1,10,11
 525 26 525 26 463.5 9 c 128,-1,12
 402 -8 402 -8 338 -8 c 0,13,14
 214 -8 214 -8 146.5 50.5 c 128,-1,15
 79 109 79 109 79 231 c 2,16,-1
 79 538 l 1,17,-1
 225 538 l 1,0,-1
389 546 m 0,18,19
 452 546 452 546 496.5 524.5 c 128,-1,20
 541 503 541 503 565 466.5 c 128,-1,21
 589 430 589 430 589 383 c 256,22,23
 589 336 589 336 565.5 299.5 c 128,-1,24
 542 263 542 263 491.5 242.5 c 128,-1,25
 441 222 441 222 359 222 c 2,26,-1
 216 222 l 1,27,-1
 216 313 l 1,28,-1
 341 313 l 2,29,30
 397 313 397 313 417 331 c 128,-1,31
 437 349 437 349 437 376 c 0,32,33
 437 406 437 406 414 423.5 c 128,-1,34
 391 441 391 441 350 441 c 0,35,36
 311 441 311 441 279.5 422.5 c 128,-1,37
 248 404 248 404 235 368 c 1,38,-1
 211 440 l 1,39,40
 228 492 228 492 273 519 c 128,-1,41
 318 546 318 546 389 546 c 0,18,19
EndSplineSet
Substitution2: "'smcp' Lowercase to Small Capitals lookup 48 subtable" uni0250.sc
Substitution2: "'aalt' Access All Alternates lookup 2 subtable" uni0250.sc
EndChar

StartChar: ae
Encoding: 230 230 614
Width: 1016
GlyphClass: 2
Flags: W
AnchorPoint: "Anchor-3" 481 538 basechar 0
AnchorPoint: "Anchor-2" 773 0 basechar 0
AnchorPoint: "Anchor-0" 488 0 basechar 0
LayerCount: 2
Fore
SplineSet
273 -8 m 0,0,1
 167 -8 167 -8 107 39 c 128,-1,2
 47 86 47 86 47 161 c 0,3,4
 47 205 47 205 70.5 240 c 128,-1,5
 94 275 94 275 145 296 c 128,-1,6
 196 317 196 317 278 317 c 2,7,-1
 418 317 l 1,8,-1
 418 226 l 1,9,-1
 295 226 l 2,10,11
 240 226 240 226 219.5 208 c 128,-1,12
 199 190 199 190 199 164 c 0,13,14
 199 133 199 133 222.5 115 c 128,-1,15
 246 97 246 97 289 97 c 0,16,17
 343 97 343 97 372.5 125.5 c 128,-1,18
 402 154 402 154 402 201 c 2,19,-1
 402 316 l 2,20,21
 402 366 402 366 371.5 394 c 128,-1,22
 341 422 341 422 279 422 c 0,23,24
 235 422 235 422 193.5 408.5 c 128,-1,25
 152 395 152 395 123 372 c 1,26,-1
 67 481 l 1,27,28
 111 512 111 512 172.5 529 c 128,-1,29
 234 546 234 546 298 546 c 0,30,31
 385 546 385 546 443 514 c 128,-1,32
 501 482 501 482 525 420 c 1,33,-1
 458 423 l 1,34,35
 493 480 493 480 555 513 c 128,-1,36
 617 546 617 546 694 546 c 0,37,38
 752 546 752 546 802.5 526.5 c 128,-1,39
 853 507 853 507 891.5 471 c 128,-1,40
 930 435 930 435 951.5 384.5 c 128,-1,41
 973 334 973 334 973 271 c 0,42,43
 973 258 973 258 972.5 246.5 c 128,-1,44
 972 235 972 235 970 226 c 1,45,-1
 539 226 l 1,46,-1
 539 317 l 1,47,-1
 868 317 l 1,48,-1
 824 289 l 1,49,50
 824 335 824 335 805.5 365.5 c 128,-1,51
 787 396 787 396 757 412 c 128,-1,52
 727 428 727 428 692 428 c 256,53,54
 657 428 657 428 626.5 412 c 128,-1,55
 596 396 596 396 577 365 c 128,-1,56
 558 334 558 334 558 287 c 2,57,-1
 558 263 l 2,58,59
 558 219 558 219 577 185.5 c 128,-1,60
 596 152 596 152 631.5 134.5 c 128,-1,61
 667 117 667 117 715 117 c 0,62,63
 756 117 756 117 788.5 130 c 128,-1,64
 821 143 821 143 851 169 c 1,65,-1
 934 79 l 1,66,67
 896 36 896 36 839 14 c 128,-1,68
 782 -8 782 -8 712 -8 c 0,69,70
 650 -8 650 -8 595 10 c 128,-1,71
 540 28 540 28 498 66 c 128,-1,72
 456 104 456 104 430 165 c 1,73,-1
 514 165 l 1,74,75
 497 98 497 98 460 60 c 128,-1,76
 423 22 423 22 374 7 c 128,-1,77
 325 -8 325 -8 273 -8 c 0,0,1
EndSplineSet
Substitution2: "'ss01' Style Set 1 lookup 52 subtable" ae.ss01
Substitution2: "'smcp' Lowercase to Small Capitals lookup 48 subtable" ae.sc
AlternateSubs2: "'aalt' Access All Alternates lookup 3 subtable" ae.sc ae.ss01
EndChar

StartChar: b
Encoding: 98 98 617
Width: 710
GlyphClass: 2
Flags: W
AnchorPoint: "Anchor-3" 401 538 basechar 0
AnchorPoint: "Anchor-0" 401 0 basechar 0
LayerCount: 2
Fore
SplineSet
400 -8 m 0,0,1
 329 -8 329 -8 278 22 c 128,-1,2
 227 52 227 52 200 113.5 c 128,-1,3
 173 175 173 175 173 269 c 0,4,5
 173 364 173 364 201.5 425 c 128,-1,6
 230 486 230 486 281 516 c 128,-1,7
 332 546 332 546 400 546 c 0,8,9
 476 546 476 546 536.5 512 c 128,-1,10
 597 478 597 478 632.5 416 c 128,-1,11
 668 354 668 354 668 269 c 0,12,13
 668 185 668 185 632.5 123 c 128,-1,14
 597 61 597 61 536.5 26.5 c 128,-1,15
 476 -8 476 -8 400 -8 c 0,0,1
82 0 m 1,16,-1
 82 742 l 1,17,-1
 238 742 l 1,18,-1
 238 429 l 1,19,-1
 228 270 l 1,20,-1
 231 110 l 1,21,-1
 231 0 l 1,22,-1
 82 0 l 1,16,-1
373 120 m 256,23,24
 412 120 412 120 442.5 138 c 128,-1,25
 473 156 473 156 491.5 189.5 c 128,-1,26
 510 223 510 223 510 269 c 0,27,28
 510 316 510 316 491.5 349 c 128,-1,29
 473 382 473 382 442.5 400 c 128,-1,30
 412 418 412 418 373 418 c 256,31,32
 334 418 334 418 303 400 c 128,-1,33
 272 382 272 382 254 349 c 128,-1,34
 236 316 236 316 236 269 c 0,35,36
 236 223 236 223 254 189.5 c 128,-1,37
 272 156 272 156 303 138 c 128,-1,38
 334 120 334 120 373 120 c 256,23,24
EndSplineSet
Substitution2: "'smcp' Lowercase to Small Capitals lookup 48 subtable" b.sc
Substitution2: "'aalt' Access All Alternates lookup 2 subtable" b.sc
EndChar

StartChar: uniA7B5
Encoding: 42933 42933 620
Width: 713
GlyphClass: 1
Flags: W
LayerCount: 2
Fore
SplineSet
82 -194 m 1,0,-1
 82 483 l 2,1,2
 82 572 82 572 118.5 631 c 128,-1,3
 155 690 155 690 217 720 c 128,-1,4
 279 750 279 750 357 750 c 0,5,6
 436 750 436 750 492.5 722.5 c 128,-1,7
 549 695 549 695 579.5 648 c 128,-1,8
 610 601 610 601 610 543 c 0,9,10
 610 495 610 495 590 458 c 128,-1,11
 570 421 570 421 538 395.5 c 128,-1,12
 506 370 506 370 467.5 356.5 c 128,-1,13
 429 343 429 343 389 343 c 1,14,-1
 427 408 l 1,15,16
 500 408 500 408 554.5 384.5 c 128,-1,17
 609 361 609 361 640 316 c 128,-1,18
 671 271 671 271 671 205 c 0,19,20
 671 147 671 147 648 106.5 c 128,-1,21
 625 66 625 66 586.5 40.5 c 128,-1,22
 548 15 548 15 499.5 3 c 128,-1,23
 451 -9 451 -9 401 -9 c 0,24,25
 337 -9 337 -9 279.5 9 c 128,-1,26
 222 27 222 27 183 58 c 1,27,-1
 227 175 l 1,28,29
 256 149 256 149 301.5 133.5 c 128,-1,30
 347 118 347 118 391 118 c 0,31,32
 424 118 424 118 452 127.5 c 128,-1,33
 480 137 480 137 496.5 158 c 128,-1,34
 513 179 513 179 513 211 c 0,35,36
 513 255 513 255 480.5 278.5 c 128,-1,37
 448 302 448 302 392 302 c 2,38,-1
 338 302 l 1,39,-1
 338 425 l 1,40,41
 394 427 394 427 427 455 c 128,-1,42
 460 483 460 483 460 530 c 0,43,44
 460 572 460 572 432.5 597.5 c 128,-1,45
 405 623 405 623 354 623 c 0,46,47
 301 623 301 623 269.5 592 c 128,-1,48
 238 561 238 561 238 502 c 2,49,-1
 238 -194 l 1,50,-1
 82 -194 l 1,0,-1
EndSplineSet
Substitution2: "'smcp' Lowercase to Small Capitals lookup 48 subtable" uniA7B5.sc
Substitution2: "'aalt' Access All Alternates lookup 2 subtable" uniA7B5.sc
EndChar

StartChar: uni0253
Encoding: 595 595 621
Width: 713
GlyphClass: 1
Flags: W
LayerCount: 2
Fore
SplineSet
402 -8 m 0,0,1
 332 -8 332 -8 281 21.5 c 128,-1,2
 230 51 230 51 202.5 112 c 128,-1,3
 175 173 175 173 175 267 c 256,4,5
 175 361 175 361 203.5 422 c 128,-1,6
 232 483 232 483 283.5 512.5 c 128,-1,7
 335 542 335 542 402 542 c 0,8,9
 478 542 478 542 538.5 508 c 128,-1,10
 599 474 599 474 634.5 412.5 c 128,-1,11
 670 351 670 351 670 267 c 0,12,13
 670 184 670 184 634.5 122 c 128,-1,14
 599 60 599 60 538.5 26 c 128,-1,15
 478 -8 478 -8 402 -8 c 0,0,1
85 0 m 1,16,-1
 85 561 l 2,17,18
 85 613 85 613 103 649.5 c 128,-1,19
 121 686 121 686 152.5 709 c 128,-1,20
 184 732 184 732 222 742.5 c 128,-1,21
 260 753 260 753 301 753 c 0,22,23
 344 753 344 753 386 741.5 c 128,-1,24
 428 730 428 730 456 710 c 1,25,-1
 403 603 l 1,26,27
 389 616 389 616 365.5 623 c 128,-1,28
 342 630 342 630 319 630 c 0,29,30
 288 630 288 630 264.5 614 c 128,-1,31
 241 598 241 598 241 554 c 2,32,-1
 241 420 l 1,33,-1
 231 270 l 1,34,-1
 233 110 l 1,35,-1
 233 0 l 1,36,-1
 85 0 l 1,16,-1
375 119 m 256,37,38
 414 119 414 119 445 136.5 c 128,-1,39
 476 154 476 154 494 187.5 c 128,-1,40
 512 221 512 221 512 267 c 0,41,42
 512 314 512 314 494 347 c 128,-1,43
 476 380 476 380 445 397.5 c 128,-1,44
 414 415 414 415 375 415 c 256,45,46
 336 415 336 415 305.5 397.5 c 128,-1,47
 275 380 275 380 256.5 347 c 128,-1,48
 238 314 238 314 238 267 c 0,49,50
 238 221 238 221 256.5 187.5 c 128,-1,51
 275 154 275 154 305.5 136.5 c 128,-1,52
 336 119 336 119 375 119 c 256,37,38
EndSplineSet
Substitution2: "'smcp' Lowercase to Small Capitals lookup 48 subtable" uni0253.sc
Substitution2: "'aalt' Access All Alternates lookup 2 subtable" uni0253.sc
EndChar

StartChar: uni0298
Encoding: 664 664 622
Width: 876
GlyphClass: 2
Flags: W
AnchorPoint: "Anchor-4" 626 700 basechar 0
AnchorPoint: "Anchor-3" 432 399 basechar 0
AnchorPoint: "Anchor-2" 530 0 basechar 0
AnchorPoint: "Anchor-1" 432 350 basechar 0
AnchorPoint: "Anchor-0" 432 0 basechar 0
LayerCount: 2
Fore
SplineSet
432 -12 m 0,0,1
 350 -12 350 -12 279.5 15 c 128,-1,2
 209 42 209 42 157.5 91 c 128,-1,3
 106 140 106 140 77.5 206 c 128,-1,4
 49 272 49 272 49 350 c 256,5,6
 49 428 49 428 77.5 494 c 128,-1,7
 106 560 106 560 158 609 c 128,-1,8
 210 658 210 658 280 685 c 128,-1,9
 350 712 350 712 432 712 c 0,10,11
 515 712 515 712 584.5 685 c 128,-1,12
 654 658 654 658 705.5 609.5 c 128,-1,13
 757 561 757 561 786 495 c 128,-1,14
 815 429 815 429 815 350 c 0,15,16
 815 272 815 272 786 205.5 c 128,-1,17
 757 139 757 139 705.5 90.5 c 128,-1,18
 654 42 654 42 584.5 15 c 128,-1,19
 515 -12 515 -12 432 -12 c 0,0,1
432 126 m 256,20,21
 479 126 479 126 518.5 142 c 128,-1,22
 558 158 558 158 588 188 c 128,-1,23
 618 218 618 218 634.5 259 c 128,-1,24
 651 300 651 300 651 350 c 256,25,26
 651 400 651 400 634.5 441 c 128,-1,27
 618 482 618 482 588.5 512 c 128,-1,28
 559 542 559 542 519 558 c 128,-1,29
 479 574 479 574 432 574 c 256,30,31
 385 574 385 574 345.5 558 c 128,-1,32
 306 542 306 542 276 512 c 128,-1,33
 246 482 246 482 229.5 441 c 128,-1,34
 213 400 213 400 213 350 c 0,35,36
 213 301 213 301 229.5 259.5 c 128,-1,37
 246 218 246 218 275.5 188 c 128,-1,38
 305 158 305 158 345 142 c 128,-1,39
 385 126 385 126 432 126 c 256,20,21
432 267 m 0,40,41
 395 267 395 267 371.5 291 c 128,-1,42
 348 315 348 315 348 351 c 256,43,44
 348 387 348 387 371.5 410.5 c 128,-1,45
 395 434 395 434 432 434 c 0,46,47
 468 434 468 434 491.5 410.5 c 128,-1,48
 515 387 515 387 515 351 c 256,49,50
 515 315 515 315 491.5 291 c 128,-1,51
 468 267 468 267 432 267 c 0,40,41
EndSplineSet
Substitution2: "'smcp' Lowercase to Small Capitals lookup 48 subtable" uni0298.sc
Substitution2: "'aalt' Access All Alternates lookup 2 subtable" uni0298.sc
EndChar

StartChar: uni0180
Encoding: 384 384 624
Width: 722
GlyphClass: 1
Flags: W
LayerCount: 2
Fore
SplineSet
411 -8 m 0,0,1
 341 -8 341 -8 290 22 c 128,-1,2
 239 52 239 52 212 113.5 c 128,-1,3
 185 175 185 175 185 269 c 0,4,5
 185 364 185 364 213 425 c 128,-1,6
 241 486 241 486 292.5 516 c 128,-1,7
 344 546 344 546 411 546 c 0,8,9
 488 546 488 546 548.5 512 c 128,-1,10
 609 478 609 478 644.5 416 c 128,-1,11
 680 354 680 354 680 269 c 0,12,13
 680 185 680 185 644.5 123 c 128,-1,14
 609 61 609 61 548.5 26.5 c 128,-1,15
 488 -8 488 -8 411 -8 c 0,0,1
94 0 m 1,16,-1
 94 742 l 1,17,-1
 250 742 l 1,18,-1
 250 429 l 1,19,-1
 240 270 l 1,20,-1
 243 110 l 1,21,-1
 243 0 l 1,22,-1
 94 0 l 1,16,-1
385 120 m 0,23,24
 423 120 423 120 454 138 c 128,-1,25
 485 156 485 156 503.5 189.5 c 128,-1,26
 522 223 522 223 522 269 c 0,27,28
 522 316 522 316 503.5 349 c 128,-1,29
 485 382 485 382 454 400 c 128,-1,30
 423 418 423 418 385 418 c 0,31,32
 346 418 346 418 315 400 c 128,-1,33
 284 382 284 382 265.5 349 c 128,-1,34
 247 316 247 316 247 269 c 0,35,36
 247 223 247 223 265.5 189.5 c 128,-1,37
 284 156 284 156 315 138 c 128,-1,38
 346 120 346 120 385 120 c 0,23,24
11 594 m 1,39,-1
 11 684 l 1,40,-1
 417 684 l 1,41,-1
 417 594 l 1,42,-1
 11 594 l 1,39,-1
EndSplineSet
Substitution2: "'smcp' Lowercase to Small Capitals lookup 48 subtable" uni0180.sc
Substitution2: "'aalt' Access All Alternates lookup 2 subtable" uni0180.sc
EndChar

StartChar: uni0183
Encoding: 387 387 625
Width: 710
GlyphClass: 1
Flags: W
LayerCount: 2
Fore
SplineSet
398 -8 m 0,0,1
 330 -8 330 -8 279 21.5 c 128,-1,2
 228 51 228 51 200.5 111 c 128,-1,3
 173 171 173 171 173 262 c 0,4,5
 173 356 173 356 202 416 c 128,-1,6
 231 476 231 476 282 505 c 128,-1,7
 333 534 333 534 399 534 c 0,8,9
 475 534 475 534 536 501 c 128,-1,10
 597 468 597 468 632.5 407 c 128,-1,11
 668 346 668 346 668 264 c 0,12,13
 668 181 668 181 632.5 120 c 128,-1,14
 597 59 597 59 536 25.5 c 128,-1,15
 475 -8 475 -8 398 -8 c 0,0,1
82 0 m 1,16,-1
 82 742 l 1,17,-1
 238 742 l 1,18,-1
 238 429 l 1,19,-1
 228 270 l 1,20,-1
 231 110 l 1,21,-1
 231 0 l 1,22,-1
 82 0 l 1,16,-1
373 117 m 0,23,24
 412 117 412 117 443 135 c 128,-1,25
 474 153 474 153 492 186 c 128,-1,26
 510 219 510 219 510 264 c 0,27,28
 510 308 510 308 492 341 c 128,-1,29
 474 374 474 374 443 392 c 128,-1,30
 412 410 412 410 373 410 c 0,31,32
 333 410 333 410 302 392 c 128,-1,33
 271 374 271 374 253.5 341 c 128,-1,34
 236 308 236 308 236 264 c 0,35,36
 236 219 236 219 253.5 186 c 128,-1,37
 271 153 271 153 302 135 c 128,-1,38
 333 117 333 117 373 117 c 0,23,24
238 632 m 1,39,-1
 82 742 l 1,40,-1
 549 742 l 1,41,-1
 549 632 l 1,42,-1
 238 632 l 1,39,-1
EndSplineSet
Substitution2: "'smcp' Lowercase to Small Capitals lookup 48 subtable" uni0183.sc
Substitution2: "'aalt' Access All Alternates lookup 2 subtable" uni0183.sc
EndChar

StartChar: c
Encoding: 99 99 626
Width: 611
GlyphClass: 2
Flags: W
AnchorPoint: "Anchor-3" 328 538 basechar 0
AnchorPoint: "Anchor-1" 144 271 basechar 0
AnchorPoint: "Anchor-0" 328 0 basechar 0
LayerCount: 2
Fore
SplineSet
342 -8 m 0,0,1
 255 -8 255 -8 187 27.5 c 128,-1,2
 119 63 119 63 80.5 126 c 128,-1,3
 42 189 42 189 42 269 c 0,4,5
 42 350 42 350 80.5 412.5 c 128,-1,6
 119 475 119 475 187 510.5 c 128,-1,7
 255 546 255 546 342 546 c 0,8,9
 427 546 427 546 490 510.5 c 128,-1,10
 553 475 553 475 583 409 c 1,11,-1
 462 344 l 1,12,13
 441 382 441 382 409.5 400 c 128,-1,14
 378 418 378 418 341 418 c 0,15,16
 301 418 301 418 269 400 c 128,-1,17
 237 382 237 382 218.5 349 c 128,-1,18
 200 316 200 316 200 269 c 256,19,20
 200 222 200 222 218.5 189 c 128,-1,21
 237 156 237 156 269 138 c 128,-1,22
 301 120 301 120 341 120 c 0,23,24
 378 120 378 120 409.5 137.5 c 128,-1,25
 441 155 441 155 462 194 c 1,26,-1
 583 128 l 1,27,28
 553 63 553 63 490 27.5 c 128,-1,29
 427 -8 427 -8 342 -8 c 0,0,1
EndSplineSet
Substitution2: "'smcp' Lowercase to Small Capitals lookup 48 subtable" c.sc
Substitution2: "'aalt' Access All Alternates lookup 2 subtable" c.sc
EndChar

StartChar: uniA793
Encoding: 42899 42899 628
Width: 666
GlyphClass: 2
Flags: W
AnchorPoint: "Anchor-3" 383 538 basechar 0
AnchorPoint: "Anchor-1" 199 271 basechar 0
AnchorPoint: "Anchor-0" 383 0 basechar 0
LayerCount: 2
Fore
SplineSet
397 -8 m 0,0,1
 310 -8 310 -8 242 27.5 c 128,-1,2
 174 63 174 63 135.5 126 c 128,-1,3
 97 189 97 189 97 269 c 0,4,5
 97 350 97 350 135.5 412.5 c 128,-1,6
 174 475 174 475 242 510.5 c 128,-1,7
 310 546 310 546 397 546 c 0,8,9
 481 546 481 546 544.5 510.5 c 128,-1,10
 608 475 608 475 637 409 c 1,11,-1
 517 344 l 1,12,13
 495 382 495 382 463.5 400 c 128,-1,14
 432 418 432 418 396 418 c 0,15,16
 356 418 356 418 324 400 c 128,-1,17
 292 382 292 382 273.5 349 c 128,-1,18
 255 316 255 316 255 269 c 256,19,20
 255 222 255 222 273.5 189 c 128,-1,21
 292 156 292 156 324 138 c 128,-1,22
 356 120 356 120 396 120 c 0,23,24
 432 120 432 120 463.5 137.5 c 128,-1,25
 495 155 495 155 517 194 c 1,26,-1
 637 128 l 1,27,28
 608 63 608 63 544.5 27.5 c 128,-1,29
 481 -8 481 -8 397 -8 c 0,0,1
14 229 m 1,30,-1
 14 319 l 1,31,-1
 384 319 l 1,32,-1
 384 229 l 1,33,-1
 14 229 l 1,30,-1
EndSplineSet
Substitution2: "'smcp' Lowercase to Small Capitals lookup 48 subtable" uniA793.sc
Substitution2: "'aalt' Access All Alternates lookup 2 subtable" uniA793.sc
EndChar

StartChar: uniAB53
Encoding: 43859 43859 634
Width: 618
GlyphClass: 1
Flags: W
LayerCount: 2
Fore
SplineSet
694 -134 m 1,0,1
 665 -168 665 -168 625 -187 c 128,-1,2
 585 -206 585 -206 543.5 -205 c 128,-1,3
 502 -204 502 -204 465.5 -181 c 128,-1,4
 429 -158 429 -158 406 -109 c 2,5,-1
 311 89 l 1,6,-1
 264 155 l 1,7,-1
 139 386 l 2,8,9
 128 407 128 407 113 414.5 c 128,-1,10
 98 422 98 422 82 417 c 128,-1,11
 66 412 66 412 49 392 c 1,12,-1
 -28 478 l 1,13,14
 1 512 1 512 39.5 531 c 128,-1,15
 78 550 78 550 119 549 c 128,-1,16
 160 548 160 548 196.5 525 c 128,-1,17
 233 502 233 502 258 453 c 2,18,-1
 347 276 l 1,19,-1
 390 211 l 1,20,-1
 526 -42 l 2,21,22
 536 -61 536 -61 551 -70 c 128,-1,23
 566 -79 566 -79 583 -73.5 c 128,-1,24
 600 -68 600 -68 617 -48 c 1,25,-1
 694 -134 l 1,0,1
36 -194 m 1,26,-1
 275 237 l 1,27,-1
 295 232 l 1,28,-1
 447 538 l 1,29,-1
 612 538 l 1,30,-1
 377 136 l 1,31,-1
 360 137 l 1,32,-1
 201 -194 l 1,33,-1
 36 -194 l 1,26,-1
EndSplineSet
Substitution2: "'smcp' Lowercase to Small Capitals lookup 48 subtable" uniAB53.sc
Substitution2: "'aalt' Access All Alternates lookup 2 subtable" uniAB53.sc
EndChar

StartChar: uni0188
Encoding: 392 392 635
Width: 640
GlyphClass: 1
Flags: W
LayerCount: 2
Fore
SplineSet
583 409 m 1,0,-1
 452 413 l 1,1,-1
 452 582 l 2,2,3
 452 640 452 640 474.5 678 c 128,-1,4
 497 716 497 716 534 734.5 c 128,-1,5
 571 753 571 753 614 754 c 128,-1,6
 657 755 657 755 700 737 c 1,7,-1
 670 629 l 1,8,9
 649 637 649 637 628.5 634 c 128,-1,10
 608 631 608 631 595.5 616.5 c 128,-1,11
 583 602 583 602 583 576 c 2,12,-1
 583 409 l 1,0,-1
342 -8 m 0,13,14
 255 -8 255 -8 187 27.5 c 128,-1,15
 119 63 119 63 80.5 126 c 128,-1,16
 42 189 42 189 42 269 c 0,17,18
 42 350 42 350 80.5 412.5 c 128,-1,19
 119 475 119 475 187 510.5 c 128,-1,20
 255 546 255 546 342 546 c 0,21,22
 427 546 427 546 490 510.5 c 128,-1,23
 553 475 553 475 583 409 c 1,24,-1
 462 344 l 1,25,26
 441 382 441 382 409.5 400 c 128,-1,27
 378 418 378 418 341 418 c 0,28,29
 301 418 301 418 269 400 c 128,-1,30
 237 382 237 382 218.5 349 c 128,-1,31
 200 316 200 316 200 269 c 256,32,33
 200 222 200 222 218.5 189 c 128,-1,34
 237 156 237 156 269 138 c 128,-1,35
 301 120 301 120 341 120 c 0,36,37
 378 120 378 120 409.5 137.5 c 128,-1,38
 441 155 441 155 462 194 c 1,39,-1
 583 128 l 1,40,41
 553 63 553 63 490 27.5 c 128,-1,42
 427 -8 427 -8 342 -8 c 0,13,14
EndSplineSet
Substitution2: "'smcp' Lowercase to Small Capitals lookup 48 subtable" uni0188.sc
Substitution2: "'aalt' Access All Alternates lookup 2 subtable" uni0188.sc
EndChar

StartChar: uni023C
Encoding: 572 572 637
Width: 611
GlyphClass: 2
Flags: W
AnchorPoint: "Anchor-3" 328 538 basechar 0
AnchorPoint: "Anchor-1" 144 271 basechar 0
AnchorPoint: "Anchor-0" 328 0 basechar 0
LayerCount: 2
Fore
SplineSet
342 -8 m 0,0,1
 255 -8 255 -8 187 27.5 c 128,-1,2
 119 63 119 63 80.5 126 c 128,-1,3
 42 189 42 189 42 269 c 0,4,5
 42 350 42 350 80.5 412.5 c 128,-1,6
 119 475 119 475 187 510.5 c 128,-1,7
 255 546 255 546 342 546 c 0,8,9
 427 546 427 546 490 510.5 c 128,-1,10
 553 475 553 475 583 409 c 1,11,-1
 462 344 l 1,12,13
 441 382 441 382 409.5 400 c 128,-1,14
 378 418 378 418 341 418 c 0,15,16
 301 418 301 418 269 400 c 128,-1,17
 237 382 237 382 218.5 349 c 128,-1,18
 200 316 200 316 200 269 c 256,19,20
 200 222 200 222 218.5 189 c 128,-1,21
 237 156 237 156 269 138 c 128,-1,22
 301 120 301 120 341 120 c 0,23,24
 378 120 378 120 409.5 137.5 c 128,-1,25
 441 155 441 155 462 194 c 1,26,-1
 583 128 l 1,27,28
 553 63 553 63 490 27.5 c 128,-1,29
 427 -8 427 -8 342 -8 c 0,0,1
153 -76 m 1,30,-1
 438 615 l 1,31,-1
 515 615 l 1,32,-1
 230 -76 l 1,33,-1
 153 -76 l 1,30,-1
EndSplineSet
Substitution2: "'smcp' Lowercase to Small Capitals lookup 48 subtable" uni023C.sc
Substitution2: "'aalt' Access All Alternates lookup 2 subtable" uni023C.sc
EndChar

StartChar: d
Encoding: 100 100 638
Width: 712
GlyphClass: 2
Flags: W
AnchorPoint: "Anchor-4" 712 742 basechar 0
AnchorPoint: "Anchor-3" 304 538 basechar 0
AnchorPoint: "Anchor-1" 497 637 basechar 0
AnchorPoint: "Anchor-0" 373 0 basechar 0
LayerCount: 2
Fore
SplineSet
313 -8 m 0,0,1
 237 -8 237 -8 176 26.5 c 128,-1,2
 115 61 115 61 79.5 123 c 128,-1,3
 44 185 44 185 44 269 c 0,4,5
 44 354 44 354 79.5 416 c 128,-1,6
 115 478 115 478 176 512 c 128,-1,7
 237 546 237 546 313 546 c 0,8,9
 381 546 381 546 432 516 c 128,-1,10
 483 486 483 486 511 425 c 128,-1,11
 539 364 539 364 539 269 c 0,12,13
 539 175 539 175 512 113.5 c 128,-1,14
 485 52 485 52 434.5 22 c 128,-1,15
 384 -8 384 -8 313 -8 c 0,0,1
340 120 m 0,16,17
 378 120 378 120 409 138 c 128,-1,18
 440 156 440 156 458.5 189.5 c 128,-1,19
 477 223 477 223 477 269 c 0,20,21
 477 316 477 316 458.5 349 c 128,-1,22
 440 382 440 382 409 400 c 128,-1,23
 378 418 378 418 340 418 c 0,24,25
 301 418 301 418 270 400 c 128,-1,26
 239 382 239 382 220.5 349 c 128,-1,27
 202 316 202 316 202 269 c 0,28,29
 202 223 202 223 220.5 189.5 c 128,-1,30
 239 156 239 156 270 138 c 128,-1,31
 301 120 301 120 340 120 c 0,16,17
481 0 m 1,32,-1
 481 110 l 1,33,-1
 484 270 l 1,34,-1
 474 429 l 1,35,-1
 474 742 l 1,36,-1
 630 742 l 1,37,-1
 630 0 l 1,38,-1
 481 0 l 1,32,-1
EndSplineSet
Substitution2: "'smcp' Lowercase to Small Capitals lookup 48 subtable" d.sc
Substitution2: "'aalt' Access All Alternates lookup 2 subtable" d.sc
EndChar

StartChar: uni0257
Encoding: 599 599 645
Width: 707
GlyphClass: 2
Flags: W
AnchorPoint: "Anchor-4" 710 742 basechar 0
AnchorPoint: "Anchor-1" 495 637 basechar 0
AnchorPoint: "Anchor-0" 371 0 basechar 0
LayerCount: 2
Fore
SplineSet
311 -8 m 0,0,1
 235 -8 235 -8 174 26.5 c 128,-1,2
 113 61 113 61 77.5 123 c 128,-1,3
 42 185 42 185 42 269 c 0,4,5
 42 354 42 354 77.5 416 c 128,-1,6
 113 478 113 478 174 512 c 128,-1,7
 235 546 235 546 311 546 c 0,8,9
 379 546 379 546 430 516 c 128,-1,10
 481 486 481 486 509 425 c 128,-1,11
 537 364 537 364 537 269 c 0,12,13
 537 175 537 175 510 113.5 c 128,-1,14
 483 52 483 52 432.5 22 c 128,-1,15
 382 -8 382 -8 311 -8 c 0,0,1
338 120 m 0,16,17
 376 120 376 120 407 138 c 128,-1,18
 438 156 438 156 456.5 189.5 c 128,-1,19
 475 223 475 223 475 269 c 0,20,21
 475 316 475 316 456.5 349 c 128,-1,22
 438 382 438 382 407 400 c 128,-1,23
 376 418 376 418 338 418 c 0,24,25
 299 418 299 418 268 400 c 128,-1,26
 237 382 237 382 218.5 349 c 128,-1,27
 200 316 200 316 200 269 c 0,28,29
 200 223 200 223 218.5 189.5 c 128,-1,30
 237 156 237 156 268 138 c 128,-1,31
 299 120 299 120 338 120 c 0,16,17
479 0 m 1,32,-1
 479 110 l 1,33,-1
 482 270 l 1,34,-1
 472 429 l 1,35,-1
 472 570 l 2,36,37
 472 632 472 632 497 673 c 128,-1,38
 522 714 522 714 564 734 c 128,-1,39
 606 754 606 754 656 754 c 128,-1,40
 706 754 706 754 755 735 c 1,41,-1
 720 628 l 1,42,43
 699 639 699 639 677.5 637 c 128,-1,44
 656 635 656 635 642 619.5 c 128,-1,45
 628 604 628 604 628 574 c 2,46,-1
 628 0 l 1,47,-1
 479 0 l 1,32,-1
EndSplineSet
Substitution2: "'smcp' Lowercase to Small Capitals lookup 48 subtable" uni0257.sc
Substitution2: "'aalt' Access All Alternates lookup 2 subtable" uni0257.sc
EndChar

StartChar: uni1D91
Encoding: 7569 7569 646
Width: 709
GlyphClass: 1
Flags: W
LayerCount: 2
Fore
SplineSet
311 -8 m 0,0,1
 235 -8 235 -8 174 26.5 c 128,-1,2
 113 61 113 61 77.5 123 c 128,-1,3
 42 185 42 185 42 269 c 0,4,5
 42 354 42 354 77.5 416 c 128,-1,6
 113 478 113 478 174 512 c 128,-1,7
 235 546 235 546 311 546 c 0,8,9
 379 546 379 546 430 516 c 128,-1,10
 481 486 481 486 509 425 c 128,-1,11
 537 364 537 364 537 269 c 0,12,13
 537 175 537 175 510 113.5 c 128,-1,14
 483 52 483 52 432.5 22 c 128,-1,15
 382 -8 382 -8 311 -8 c 0,0,1
338 120 m 0,16,17
 376 120 376 120 407 138 c 128,-1,18
 438 156 438 156 456.5 189.5 c 128,-1,19
 475 223 475 223 475 269 c 0,20,21
 475 316 475 316 456.5 349 c 128,-1,22
 438 382 438 382 407 400 c 128,-1,23
 376 418 376 418 338 418 c 0,24,25
 299 418 299 418 268 400 c 128,-1,26
 237 382 237 382 218.5 349 c 128,-1,27
 200 316 200 316 200 269 c 0,28,29
 200 223 200 223 218.5 189.5 c 128,-1,30
 237 156 237 156 268 138 c 128,-1,31
 299 120 299 120 338 120 c 0,16,17
472 141 m 1,32,-1
 490 270 l 1,33,-1
 472 415 l 1,34,-1
 472 568 l 2,35,36
 472 618 472 618 489 654 c 128,-1,37
 506 690 506 690 535.5 712.5 c 128,-1,38
 565 735 565 735 601.5 745 c 128,-1,39
 638 755 638 755 678 753 c 128,-1,40
 718 751 718 751 756 736 c 1,41,-1
 726 626 l 1,42,43
 686 642 686 642 657 625.5 c 128,-1,44
 628 609 628 609 628 568 c 2,45,-1
 628 -19 l 2,46,47
 628 -60 628 -60 657 -76 c 128,-1,48
 686 -92 686 -92 726 -77 c 1,49,-1
 756 -187 l 1,50,51
 718 -202 718 -202 678 -204 c 128,-1,52
 638 -206 638 -206 601.5 -196 c 128,-1,53
 565 -186 565 -186 535.5 -163.5 c 128,-1,54
 506 -141 506 -141 489 -105 c 128,-1,55
 472 -69 472 -69 472 -19 c 2,56,-1
 472 141 l 1,32,-1
EndSplineSet
Substitution2: "'smcp' Lowercase to Small Capitals lookup 48 subtable" uni1D91.sc
Substitution2: "'aalt' Access All Alternates lookup 2 subtable" uni1D91.sc
EndChar

StartChar: uni0256
Encoding: 598 598 648
Width: 709
GlyphClass: 1
Flags: W
LayerCount: 2
Fore
SplineSet
311 -8 m 0,0,1
 235 -8 235 -8 174 26.5 c 128,-1,2
 113 61 113 61 77.5 123 c 128,-1,3
 42 185 42 185 42 269 c 0,4,5
 42 354 42 354 77.5 416 c 128,-1,6
 113 478 113 478 174 512 c 128,-1,7
 235 546 235 546 311 546 c 0,8,9
 379 546 379 546 430 516 c 128,-1,10
 481 486 481 486 509 425 c 128,-1,11
 537 364 537 364 537 269 c 0,12,13
 537 175 537 175 510 113.5 c 128,-1,14
 483 52 483 52 432.5 22 c 128,-1,15
 382 -8 382 -8 311 -8 c 0,0,1
338 120 m 0,16,17
 376 120 376 120 407 138 c 128,-1,18
 438 156 438 156 456.5 189.5 c 128,-1,19
 475 223 475 223 475 269 c 0,20,21
 475 316 475 316 456.5 349 c 128,-1,22
 438 382 438 382 407 400 c 128,-1,23
 376 418 376 418 338 418 c 0,24,25
 299 418 299 418 268 400 c 128,-1,26
 237 382 237 382 218.5 349 c 128,-1,27
 200 316 200 316 200 269 c 0,28,29
 200 223 200 223 218.5 189.5 c 128,-1,30
 237 156 237 156 268 138 c 128,-1,31
 299 120 299 120 338 120 c 0,16,17
472 23 m 1,32,-1
 479 110 l 1,33,-1
 492 270 l 1,34,-1
 472 429 l 1,35,-1
 472 742 l 1,36,-1
 628 742 l 1,37,-1
 628 -21 l 2,38,39
 628 -62 628 -62 657 -78 c 128,-1,40
 686 -94 686 -94 726 -79 c 1,41,-1
 756 -189 l 1,42,43
 718 -203 718 -203 678 -205.5 c 128,-1,44
 638 -208 638 -208 601.5 -198 c 128,-1,45
 565 -188 565 -188 535.5 -165.5 c 128,-1,46
 506 -143 506 -143 489 -107 c 128,-1,47
 472 -71 472 -71 472 -21 c 2,48,-1
 472 23 l 1,32,-1
EndSplineSet
Substitution2: "'smcp' Lowercase to Small Capitals lookup 48 subtable" uni0256.sc
Substitution2: "'aalt' Access All Alternates lookup 2 subtable" uni0256.sc
EndChar

StartChar: uni018C
Encoding: 396 396 649
Width: 710
GlyphClass: 2
Flags: W
AnchorPoint: "Anchor-4" 710 742 basechar 0
AnchorPoint: "Anchor-1" 495 637 basechar 0
AnchorPoint: "Anchor-0" 371 0 basechar 0
LayerCount: 2
Fore
SplineSet
311 -8 m 0,0,1
 235 -8 235 -8 174 25.5 c 128,-1,2
 113 59 113 59 77.5 120 c 128,-1,3
 42 181 42 181 42 264 c 0,4,5
 42 346 42 346 77.5 407 c 128,-1,6
 113 468 113 468 174 501 c 128,-1,7
 235 534 235 534 311 534 c 0,8,9
 379 534 379 534 430 505 c 128,-1,10
 481 476 481 476 509 416 c 128,-1,11
 537 356 537 356 537 264 c 0,12,13
 537 171 537 171 510 111 c 128,-1,14
 483 51 483 51 432.5 21.5 c 128,-1,15
 382 -8 382 -8 311 -8 c 0,0,1
338 117 m 0,16,17
 376 117 376 117 407 134.5 c 128,-1,18
 438 152 438 152 456.5 185.5 c 128,-1,19
 475 219 475 219 475 264 c 0,20,21
 475 310 475 310 456.5 342.5 c 128,-1,22
 438 375 438 375 407 392.5 c 128,-1,23
 376 410 376 410 338 410 c 0,24,25
 299 410 299 410 268 392.5 c 128,-1,26
 237 375 237 375 218.5 342.5 c 128,-1,27
 200 310 200 310 200 264 c 0,28,29
 200 219 200 219 218.5 185.5 c 128,-1,30
 237 152 237 152 268 134.5 c 128,-1,31
 299 117 299 117 338 117 c 0,16,17
479 0 m 1,32,-1
 479 110 l 1,33,-1
 482 270 l 1,34,-1
 472 429 l 1,35,-1
 472 742 l 1,36,-1
 628 742 l 1,37,-1
 628 0 l 1,38,-1
 479 0 l 1,32,-1
162 632 m 1,39,-1
 162 742 l 1,40,-1
 628 742 l 1,41,-1
 472 632 l 1,42,-1
 162 632 l 1,39,-1
EndSplineSet
Substitution2: "'smcp' Lowercase to Small Capitals lookup 48 subtable" uni018C.sc
Substitution2: "'aalt' Access All Alternates lookup 2 subtable" uni018C.sc
EndChar

StartChar: eth
Encoding: 240 240 652
Width: 634
GlyphClass: 1
Flags: W
LayerCount: 2
Fore
SplineSet
293 -7 m 0,0,1
 215 -7 215 -7 157 21.5 c 128,-1,2
 99 50 99 50 67 102.5 c 128,-1,3
 35 155 35 155 35 225 c 0,4,5
 35 292 35 292 63 341.5 c 128,-1,6
 91 391 91 391 142 418 c 128,-1,7
 193 445 193 445 262 445 c 0,8,9
 313 445 313 445 358 427 c 128,-1,10
 403 409 403 409 427 378 c 1,11,12
 421 439 421 439 377.5 495.5 c 128,-1,13
 334 552 334 552 266.5 600.5 c 128,-1,14
 199 649 199 649 118 683 c 1,15,-1
 223 749 l 1,16,17
 332 704 332 704 413.5 630.5 c 128,-1,18
 495 557 495 557 539.5 466.5 c 128,-1,19
 584 376 584 376 584 278 c 0,20,21
 584 192 584 192 548 127.5 c 128,-1,22
 512 63 512 63 446.5 28 c 128,-1,23
 381 -7 381 -7 293 -7 c 0,0,1
298 114 m 0,24,25
 353 114 353 114 386 144.5 c 128,-1,26
 419 175 419 175 419 226 c 0,27,28
 419 275 419 275 387.5 305 c 128,-1,29
 356 335 356 335 303 335 c 0,30,31
 249 335 249 335 216.5 304.5 c 128,-1,32
 184 274 184 274 184 224 c 256,33,34
 184 174 184 174 215.5 144 c 128,-1,35
 247 114 247 114 298 114 c 0,24,25
136 482 m 1,36,-1
 105 548 l 1,37,-1
 508 732 l 1,38,-1
 539 666 l 1,39,-1
 136 482 l 1,36,-1
EndSplineSet
Substitution2: "'smcp' Lowercase to Small Capitals lookup 48 subtable" eth.sc
Substitution2: "'aalt' Access All Alternates lookup 2 subtable" eth.sc
EndChar

StartChar: e
Encoding: 101 101 653
Width: 651
GlyphClass: 2
Flags: W
AnchorPoint: "Anchor-3" 326 538 basechar 0
AnchorPoint: "Anchor-2" 546 0 basechar 0
AnchorPoint: "Anchor-0" 326 0 basechar 0
LayerCount: 2
Fore
SplineSet
590 323 m 1025,0,-1
140 321 m 1025,1,-1
349 -8 m 0,2,3
 257 -8 257 -8 187.5 28 c 128,-1,4
 118 64 118 64 80 126.5 c 128,-1,5
 42 189 42 189 42 269 c 0,6,7
 42 350 42 350 79.5 412.5 c 128,-1,8
 117 475 117 475 182 510.5 c 128,-1,9
 247 546 247 546 329 546 c 128,-1,10
 411 546 411 546 471 515.25 c 0,11,12
 532.5390625 485.159179688 532.5390625 485.159179688 572 417 c 0,13,14
 617 341 617 341 608 269 c 1,15,-1
 80 165 l 1,16,-1
 64 253 l 1,17,-1
 526 345 l 1,18,-1
 464 289 l 1,19,20
 464 331 464 331 447 362 c 128,-1,21
 430 393 430 393 400 410.5 c 128,-1,22
 370 428 370 428 330 428 c 256,23,24
 290 428 290 428 259.5 410.5 c 128,-1,25
 229 393 229 393 212 361.5 c 128,-1,26
 195 330 195 330 195 287 c 2,27,-1
 195 263 l 2,28,29
 195 219 195 219 214.5 185.5 c 128,-1,30
 234 152 234 152 269.5 134.5 c 128,-1,31
 305 117 305 117 353 117 c 0,32,33
 396 117 396 117 428.5 130 c 128,-1,34
 461 143 461 143 488 169 c 1,35,-1
 571 79 l 1,36,37
 534 37 534 37 478 14.5 c 128,-1,38
 422 -8 422 -8 349 -8 c 0,2,3
EndSplineSet
Substitution2: "'ss01' Style Set 1 lookup 52 subtable" e.ss01
Substitution2: "'smcp' Lowercase to Small Capitals lookup 48 subtable" e.sc
AlternateSubs2: "'aalt' Access All Alternates lookup 3 subtable" e.sc e.ss01
EndChar

